<svg xmlns="http://www.w3.org/2000/svg" xmlns:xlink="http://www.w3.org/1999/xlink" viewBox="0 0 236.88 236.89"><defs><style>.cls-1{fill:#a5a4a4;stroke-width:1.13px;}.cls-1,.cls-10,.cls-26,.cls-27,.cls-5,.cls-6,.cls-7{stroke:#231f20;}.cls-1,.cls-10,.cls-26,.cls-27{stroke-linecap:round;stroke-linejoin:round;}.cls-2{fill:#5c5eaa;}.cls-3{fill:#cfc873;}.cls-4{fill:#ed1f24;}.cls-10,.cls-5,.cls-6,.cls-7{fill:none;}.cls-5,.cls-6,.cls-7,.cls-8{stroke-miterlimit:10;}.cls-5{stroke-width:0.11px;}.cls-6{stroke-width:0.13px;}.cls-7{stroke-width:0.13px;}.cls-8{fill:#fdf8c9;stroke:#050606;stroke-width:0.18px;}.cls-9{fill:#a4a3a2;}.cls-10{stroke-width:0.13px;}.cls-11{fill:url(#White_Black);}.cls-12{fill:url(#White_Black-2);}.cls-13{fill:url(#White_Black-3);}.cls-14{fill:url(#White_Black-4);}.cls-15{fill:url(#White_Black-5);}.cls-16{fill:url(#White_Black-6);}.cls-17,.cls-19{font-size:22.89px;fill:#070808;font-family:KomikaText, Komika Text;}.cls-18{font-size:16.99px;fill:#ed1c24;font-family:CenturyGothic, Century Gothic;}.cls-19{letter-spacing:-0.04em;}.cls-20{fill:url(#White_Black-7);}.cls-21{fill:url(#White_Black-8);}.cls-22{fill:url(#White_Black-9);}.cls-23{fill:url(#White_Black-10);}.cls-24{fill:url(#White_Black-11);}.cls-25{fill:url(#White_Black-12);}.cls-26{fill:#2d2660;}.cls-26,.cls-27{stroke-width:0.65px;}.cls-27{fill:#f2ea15;}</style><linearGradient id="White_Black" x1="171.39" y1="-293.84" x2="186.22" y2="-293.84" gradientTransform="translate(355.05 337.82) rotate(-90)" gradientUnits="userSpaceOnUse"><stop offset="0" stop-color="#fff"/><stop offset="1" stop-color="#231f20"/></linearGradient><linearGradient id="White_Black-2" x1="171.43" y1="-271.28" x2="186.27" y2="-271.28" xlink:href="#White_Black"/><linearGradient id="White_Black-3" x1="533.4" y1="254.05" x2="548.22" y2="254.05" gradientTransform="translate(337.82 -367.05) rotate(90)" xlink:href="#White_Black"/><linearGradient id="White_Black-4" x1="533.44" y1="276.61" x2="548.27" y2="276.61" gradientTransform="translate(337.82 -367.05) rotate(90)" xlink:href="#White_Black"/><linearGradient id="White_Black-5" x1="171.41" y1="-316.4" x2="186.25" y2="-316.4" xlink:href="#White_Black"/><linearGradient id="White_Black-6" x1="533.42" y1="299.16" x2="548.25" y2="299.16" gradientTransform="translate(337.82 -367.05) rotate(90)" xlink:href="#White_Black"/><linearGradient id="White_Black-7" x1="171.39" y1="-181.72" x2="186.22" y2="-181.72" xlink:href="#White_Black"/><linearGradient id="White_Black-8" x1="171.43" y1="-159.16" x2="186.27" y2="-159.16" xlink:href="#White_Black"/><linearGradient id="White_Black-9" x1="533.4" y1="141.93" x2="548.22" y2="141.93" gradientTransform="translate(337.82 -367.05) rotate(90)" xlink:href="#White_Black"/><linearGradient id="White_Black-10" x1="533.44" y1="164.48" x2="548.27" y2="164.48" gradientTransform="translate(337.82 -367.05) rotate(90)" xlink:href="#White_Black"/><linearGradient id="White_Black-11" x1="171.41" y1="-204.27" x2="186.25" y2="-204.27" xlink:href="#White_Black"/><linearGradient id="White_Black-12" x1="533.42" y1="187.04" x2="548.25" y2="187.04" gradientTransform="translate(337.82 -367.05) rotate(90)" xlink:href="#White_Black"/></defs><g id="Layer_2" data-name="Layer 2"><g id="most-popular-section"><g id="zoom-panel1"><g id="indicator"><path class="cls-1" d="M180.08,229.52c-27.84,9.2-89.76,9.2-128.38-.8A58,58,0,0,1,10.19,188l-1.26-4C-.84,151.16-2.16,99.35,5.54,62.87c.62-2.93,1.29-5.75,2-8.46C8,53,8.37,51.54,8.8,50.16s.9-2.83,1.38-4.18l2.28-5.59c7.33-17.59,23.92-31,44.33-35.3,33.53-7.27,98.68-4.77,127,.4,21.58,3.94,37.67,21.4,42.94,41.1l1.26,4c9.76,32.87,11.09,84.68,3.39,121.16-.62,2.92-1.3,5.75-2,8.46-.4,1.45-.81,2.87-1.23,4.25C222,204.27,197,226,180.08,229.52Z"/><path class="cls-2" d="M118.31,149.73a30.12,30.12,0,0,0,29.23-30.11c0-.89,0-1.78-.11-2.66h.11l67.56.41a96.62,96.62,0,0,0-96.59-94.55h-.4a96.6,96.6,0,0,0-96.59,94.55L89.07,117h.12c-.08.88-.12,1.77-.12,2.66A30.12,30.12,0,0,0,118.31,149.73ZM222.84,120.1c0,1.6,0,3.2-.11,4.79h0l-67-.42-.23,0a37.42,37.42,0,0,1-74.46,0l-.23,0-67,.42h0c-.08-1.59-.11-3.19-.11-4.79a104.53,104.53,0,1,1,209.06,0Z"/><path class="cls-3" d="M215.1,117.36,147.54,117h-.11c.07.88.11,1.77.11,2.66a30.12,30.12,0,0,1-29.23,30.11,30.12,30.12,0,0,1-29.24-30.11c0-.89,0-1.78.12-2.66h-.12l-67.55.41a96.6,96.6,0,0,1,96.59-94.55h.4A96.62,96.62,0,0,1,215.1,117.36ZM203.66,99.59l-1.14-4.94-14.11,3.26,1.15,4.94Zm-7.92-21.41-2.58-4.37L180.7,81.19l2.59,4.37Zm-14-18.84-3.51-3.66-10.46,10,3.52,3.66ZM157,57.12l7.66-12.29-4.31-2.68-7.66,12.29Zm-17.48-8.07,3.24-14.11-4.94-1.14-3.24,14.12Zm-19.14-3.14V31.42h-5.07V45.91Zm-18.4,2L98.76,33.8l-4.94,1.14,3.25,14.11ZM83.9,54.44,76.23,42.15l-4.3,2.68,7.66,12.29ZM65.3,69.36l3.51-3.66-10.45-10-3.51,3.66Zm-12,16.2,2.59-4.37L43.46,73.81l-2.59,4.37Zm-6.27,17.29,1.15-4.94L34.09,94.65,33,99.59Z"/><rect class="cls-4" x="188.8" y="96.21" width="14.48" height="5.07" transform="translate(-17.22 46.74) rotate(-13.03)"/><rect class="cls-4" x="180.98" y="77.15" width="14.48" height="5.07" transform="translate(-14.35 106.96) rotate(-30.61)"/><rect class="cls-4" x="167.55" y="59.98" width="14.48" height="5.08" transform="translate(5.39 138.43) rotate(-43.82)"/><rect class="cls-4" x="151.46" y="47.1" width="14.48" height="5.07" transform="translate(32.64 158.07) rotate(-58.07)"/><rect class="cls-4" x="131.46" y="38.89" width="14.48" height="5.07" transform="translate(67.27 167.33) rotate(-77.06)"/><rect class="cls-4" x="115.34" y="31.42" width="5.07" height="14.49"/><rect class="cls-4" x="95.38" y="34.19" width="5.07" height="14.48" transform="translate(-6.8 23.01) rotate(-12.96)"/><rect class="cls-4" x="75.38" y="42.39" width="5.07" height="14.48" transform="translate(-14.46 48.73) rotate(-31.94)"/><rect class="cls-4" x="59.29" y="55.28" width="5.07" height="14.48" transform="translate(-26.09 63.84) rotate(-46.18)"/><rect class="cls-4" x="45.86" y="72.45" width="5.08" height="14.48" transform="matrix(0.51, -0.86, 0.86, 0.51, -44.83, 80.76)"/><rect class="cls-4" x="38.04" y="91.51" width="5.07" height="14.48" transform="translate(-64.78 116) rotate(-76.96)"/><rect class="cls-5" x="38.04" y="91.51" width="5.07" height="14.48" transform="translate(-64.78 116) rotate(-76.96)"/><rect class="cls-5" x="45.86" y="72.45" width="5.08" height="14.48" transform="matrix(0.51, -0.86, 0.86, 0.51, -44.83, 80.76)"/><rect class="cls-5" x="59.29" y="55.28" width="5.07" height="14.48" transform="translate(-26.09 63.84) rotate(-46.18)"/><rect class="cls-5" x="75.38" y="42.39" width="5.07" height="14.48" transform="matrix(0.85, -0.53, 0.53, 0.85, -14.46, 48.66)"/><rect class="cls-5" x="95.38" y="34.19" width="5.07" height="14.48" transform="translate(-6.79 22.95) rotate(-12.93)"/><path class="cls-6" d="M13.89,124.89c-.08-1.59-.11-3.19-.11-4.79A104.78,104.78,0,0,1,118.31,15.31h.25"/><path class="cls-6" d="M119.19,149.74h-.88a30.12,30.12,0,0,1-29.24-30.11c0-.89,0-1.78.12-2.66"/><path class="cls-5" d="M118.73,158.13h-.42a37.88,37.88,0,0,1-37.23-33.67"/><path class="cls-7" d="M21.52,117.36a96.6,96.6,0,0,1,96.59-94.55"/><polyline class="cls-5" points="13.78 124.89 13.89 124.89 80.85 124.47"/><line class="cls-5" x1="21.52" y1="117.36" x2="89.07" y2="116.95"/><rect class="cls-5" x="188.8" y="96.21" width="14.48" height="5.07" transform="translate(-17.23 46.79) rotate(-13.04)"/><rect class="cls-5" x="180.98" y="77.15" width="14.48" height="5.07" transform="translate(-14.35 106.96) rotate(-30.61)"/><rect class="cls-5" x="167.55" y="59.98" width="14.48" height="5.08" transform="translate(5.39 138.43) rotate(-43.82)"/><rect class="cls-5" x="151.46" y="47.1" width="14.48" height="5.07" transform="translate(32.71 158.15) rotate(-58.1)"/><rect class="cls-5" x="131.46" y="38.89" width="14.48" height="5.07" transform="translate(67.27 167.33) rotate(-77.06)"/><rect class="cls-5" x="115.34" y="31.42" width="5.07" height="14.49"/><path class="cls-6" d="M222.73,124.89c.07-1.59.11-3.19.11-4.79A104.79,104.79,0,0,0,118.31,15.31h-.26"/><path class="cls-6" d="M117.43,149.74h.88a30.12,30.12,0,0,0,29.23-30.11c0-.89,0-1.78-.11-2.66"/><path class="cls-5" d="M117.89,158.13h.42a37.88,37.88,0,0,0,37.23-33.67"/><path class="cls-7" d="M215.1,117.36a96.62,96.62,0,0,0-96.59-94.55"/><polyline class="cls-5" points="222.84 124.89 222.73 124.89 155.77 124.47"/><line class="cls-5" x1="215.1" y1="117.36" x2="147.54" y2="116.95"/><path class="cls-8" d="M109.19,206.37c0,1.43-3.17,2.59-7.09,2.59H32.82c-3.92,0-7.1-1.16-7.1-2.59V186.45c0-1.43,3.18-2.59,7.1-2.59H102.1c3.92,0,7.09,1.16,7.09,2.59Z"/><rect class="cls-9" x="26.37" y="150.77" width="70.59" height="31.52" rx="1.2"/><rect class="cls-10" x="26.37" y="150.77" width="70.59" height="31.52" rx="1.2"/><path class="cls-11" d="M72.18,166.42A36,36,0,0,0,69.37,152l0-.36H53l0,.36a36.12,36.12,0,0,0-2.81,14.47H72.18Z"/><path class="cls-12" d="M94.74,166.38a36,36,0,0,0-2.81-14.46l0-.37H75.59l0,.37a36.05,36.05,0,0,0-2.8,14.47H94.74Z"/><path class="cls-13" d="M72.81,166.35a36,36,0,0,0,2.8,14.46l0,.36H92l0-.36a36.09,36.09,0,0,0,2.81-14.47H72.81Z"/><path class="cls-14" d="M50.25,166.39a36,36,0,0,0,2.81,14.46l0,.37H69.39l0-.37a36.07,36.07,0,0,0,2.81-14.46H50.25Z"/><path class="cls-15" d="M49.63,166.39a36.2,36.2,0,0,0-2.81-14.45l0-.37H30.48l0,.37a36.12,36.12,0,0,0-2.81,14.47l.38,0Z"/><path class="cls-16" d="M27.69,166.38a36.06,36.06,0,0,0,2.81,14.45l0,.37H46.84l0-.37a36.29,36.29,0,0,0,2.81-14.47l-.38,0Z"/><text class="cls-17" transform="translate(37.5 203.24)">Agree</text><text class="cls-18" transform="translate(75.41 173.76) scale(1.04 1)">%</text><path class="cls-8" d="M209.31,206.54c0,1.45-3.2,2.62-7.15,2.62H132.34c-4,0-7.15-1.17-7.15-2.62V186.47c0-1.45,3.2-2.61,7.15-2.61h69.82c4,0,7.15,1.16,7.15,2.61Z"/><text class="cls-19" transform="translate(127.71 202.76)">Disagree</text><rect class="cls-9" x="138.49" y="150.77" width="70.59" height="31.52" rx="1.2"/><rect class="cls-10" x="138.49" y="150.77" width="70.59" height="31.52" rx="1.2"/><path class="cls-20" d="M184.3,166.42A36,36,0,0,0,181.49,152l0-.36H165.16l0,.36a36.12,36.12,0,0,0-2.81,14.47H184.3Z"/><path class="cls-21" d="M206.86,166.38a36.18,36.18,0,0,0-2.81-14.46l0-.37H187.71l0,.37a35.88,35.88,0,0,0-2.81,14.47h21.93Z"/><path class="cls-22" d="M184.93,166.35a36,36,0,0,0,2.81,14.46l0,.36h16.36l0-.36a36.26,36.26,0,0,0,2.81-14.47H184.93Z"/><path class="cls-23" d="M162.37,166.39a36,36,0,0,0,2.81,14.46l0,.37h16.36l0-.37a35.9,35.9,0,0,0,2.81-14.46H162.37Z"/><path class="cls-24" d="M161.75,166.39a36.2,36.2,0,0,0-2.81-14.45l0-.37H142.6l0,.37a36.12,36.12,0,0,0-2.81,14.47l.38,0Z"/><path class="cls-25" d="M139.81,166.38a36.06,36.06,0,0,0,2.81,14.45l0,.37H159l0-.37a36.29,36.29,0,0,0,2.81-14.47l-.38,0Z"/><text class="cls-18" transform="translate(189.31 172.15) scale(1.04 1)">%</text><path class="cls-26" d="M106.32,113.58c5.85-8.38,30.93-40.3,37-49.3-.34,9.3-5.51,55.37-7.36,61.59C126.64,157.1,90.34,136.44,106.32,113.58Z"/><path class="cls-27" d="M126.06,124a8,8,0,1,1-8-8A8,8,0,0,1,126.06,124Z"/></g></g></g></g></svg>