<svg xmlns="http://www.w3.org/2000/svg" viewBox="0 0 840.74 519.14"><defs><style>.cls-1{fill:#dda976;}.cls-2{fill:#efc59d;}.cls-3{fill:#cf2127;}.cls-4{fill:#976236;}.cls-5{fill:#c18c57;}.cls-6{fill:#af7844;}.cls-10,.cls-11,.cls-12,.cls-15,.cls-17,.cls-7,.cls-9{fill:none;}.cls-16,.cls-7{stroke:#000;}.cls-11,.cls-15,.cls-16,.cls-17,.cls-7,.cls-9{stroke-linecap:round;stroke-linejoin:round;}.cls-16,.cls-17,.cls-7{stroke-width:2.16px;}.cls-8{fill:#8e6238;}.cls-10,.cls-11,.cls-12,.cls-13,.cls-15,.cls-17,.cls-9{stroke:#231f20;}.cls-9{stroke-width:0.5px;}.cls-10,.cls-13{stroke-width:2px;}.cls-11{stroke-width:0.39px;}.cls-12{stroke-width:1.57px;}.cls-13{fill:#f3f2ad;stroke-miterlimit:10;}.cls-14{fill:#f4d952;}.cls-15{stroke-width:0.54px;}.cls-16{fill:#f6f2a3;}</style></defs><g id="Layer_2" data-name="Layer 2"><g id="Ch-Shack"><path class="cls-1" d="M435,87c-3.24,5.71-6.71,11.61-7.76,13.34a10.25,10.25,0,0,1-3.7,3.65,8.69,8.69,0,0,0,1.62-1.64c1-1.25,13.89-23.29,16-27.32a1.7,1.7,0,0,0,.17-.78l.4,0c4.63,0,8.28,2.82,12.33,4.46,5.07,2.1,10.24,4,15.2,6.34,9,4.16,17.89,8.51,26.79,12.84,7.11,3.44,14.15,7,21.26,10.48q19,9.21,38.06,18.37c9.19,4.46,18.33,9,27.58,13.34,6.28,2.93,12.79,5.38,19.14,8.2,8.68,3.87,17.36,7.75,26,11.86,3.13,1.49,5.86,3.85,9,5.4,7.89,4,15.88,7.79,23.86,11.59q15,7.13,29.92,14.18c6.74,3.17,13.54,6.18,20.19,9.49,9.86,4.88,19.55,10.06,29.44,14.89,8.57,4.18,17.3,8.07,26,12.1,4.81,2.25,9.69,4.44,14.41,6.89,2.06,1.07,4,1.86,6.32,1.24l.22-.17a13.16,13.16,0,0,0,6.56,4.74,272.71,272.71,0,0,1,27.12,11.12,44.54,44.54,0,0,1,14.11,10.6,7.53,7.53,0,0,1,1.79,3.39c.79,3.72,1.34,7.51,1.91,11.27a115.21,115.21,0,0,1,.76,13.64c-.19,1.6-1.18,2.32-2.84,2.7-3.52.78-6.56-.27-9.45-1.93-10.28-5.88-20.47-11.92-30.75-17.78-1.88-1.07-3.79-2.6-6.28-1.88l-.39,0a2.76,2.76,0,0,0-1.71-2.38c-3-1.73-5.93-3.55-8.92-5.23-12-6.76-23.93-13.56-36-20.19-4.07-2.25-188.62-94-195.23-97.72-6.34-3.63-31.19-16.62-43.17-22.88-3.46-1.79-5.86-3-6.43-3.35-3.72-1.92-58.9-30.07-62.75-32.52Z"/><path class="cls-1" d="M800.67,197.4c.83,3.12.31,6.6.39,9.93a8.82,8.82,0,0,1,0,2.62c-.66,2.3-2.74,2.93-5.47,1.84-3.15-1.23-6.28-2.54-9.47-3.61a10.93,10.93,0,0,0-3.39-.07l-1.31.33a47.52,47.52,0,0,0-2-5.38,27.84,27.84,0,0,0-10.22-11.59,120,120,0,0,0-24-12c-7.17-2.56-131.32-61.11-138-64-5-2.16-28.5-13.32-35.44-16.51C565.4,96,550,88.28,548.6,87.36c-4.6-3-21.85-10.63-25.48-12.34-8.69-4-93-42.91-101.31-43.11-.46,0-.9,0-1.34,0-1.07,0-2.14,0-3.19,0l-.22-11a66.48,66.48,0,0,1,10.78.33,9.39,9.39,0,0,0,2.37,0,7.66,7.66,0,0,1,2.34,0,3.26,3.26,0,0,1,1.62.79c4.5,3.76,21.6,9.69,24.65,11.06,7.17,3.2,62.75,30,69,33,3.44,1.64,66.47,29.88,77.93,35.21,13.91,6.48,27.78,13.06,41.76,19.38,6.78,3.06,138.16,62.68,142.71,65C795.22,188.08,799.23,191.93,800.67,197.4Z"/><path class="cls-2" d="M335.83,122.57c3.48-1.81,5.88-3.06,6.45-3.34C346,117.3,401.16,89.15,405,86.7l.09-.06h0c3.39,6,7.22,12.55,8.33,14.37,2.26,3.67,6.37,6,10.13,3a10.25,10.25,0,0,0,3.7-3.65C428.33,98.6,431.8,92.7,435,87l.68.39c3.85,2.45,59,30.6,62.75,32.52.57.31,3,1.56,6.43,3.35,12,6.26,36.83,19.25,43.17,22.88,6.61,3.76,191.16,95.47,195.23,97.72,12.05,6.63,24,13.43,36,20.19,3,1.68,6,3.5,8.92,5.23a2.76,2.76,0,0,1,1.71,2.38,4.77,4.77,0,0,1-.31,1.6c-.48,1.4.55,234.42.18,240.89-.09,1.49-.7,2.71-2.37,2.87-4.28.41-8.57.78-12.86,1a5.37,5.37,0,0,1-2.69-1.23c.53-3,1.32-53.74,1.36-56.23,0-2.93-1.29-4.16-4.18-4.2-.85,0-2.45-.13-4.33-.28-4.37-.31-10.3-.84-12.2-.73C748.13,455.63,625.13,454,621,454c-13.13.08-53.37,1-60.37,1-5.95,0-11.9-.63-17.85-1a2.28,2.28,0,0,1-1.33-.44,2.4,2.4,0,0,1-.75-2.19c.14-2.53.44-5.07.49-7.61.08-4.11-.07-8.22.06-12.33.09-3-.37-185.65-2.41-187.07a2.66,2.66,0,0,0-1.57-1.36c-.28-.15-120.56-1.62-124.36-1.66-18.07.24-17.56-.48-34.67-.24-41.31.59-74.58,1.11-74.8,1.22a2.79,2.79,0,0,0-1.57,1.36h0c-2,1.42-2.49,184.09-2.38,187.07.13,4.11,0,8.22,0,12.33.07,2.54.38,5.08.51,7.61.06,1.45-.42,2.54-2.1,2.63-5.95.35-11.9,1-17.85,1-7,0-47.24-.91-60.37-1-4.11,0-127.09,1.62-131.49,1.38-1.88-.11-7.83.41-12.2.72-1.88.15-3.48.26-4.33.28-2.89,0-4.22,1.27-4.16,4.2,0,2.49.81,53.48,1.34,56.25a5.47,5.47,0,0,1-2.69,1.21c-4.29-.26-8.58-.64-12.86-1-1.65-.16-2.26-1.38-2.35-2.87-.37-6.47.64-239.49.16-240.89a4.65,4.65,0,0,1-.29-1.6,2.73,2.73,0,0,1,1.69-2.38c3-1.73,5.92-3.55,8.94-5.23,12-6.76,23.93-13.56,36-20.19,4.07-2.25,188.64-94,195.23-97.72C299,141.82,323.82,128.83,335.83,122.57Z"/><path class="cls-3" d="M420.41,40.42l.06-8.53c.44,0,.88,0,1.34,0C430.1,32.11,514.43,71,523.12,75c3.63,1.71,20.88,9.37,25.48,12.34,1.4.92,16.8,8.64,23.09,11.55,6.94,3.19,30.49,14.35,35.44,16.51,6.73,2.93,130.88,61.48,138,64a120,120,0,0,1,24,12,27.84,27.84,0,0,1,10.22,11.59,47.52,47.52,0,0,1,2,5.38c2.21,7,4.88,17.45,5.75,20.43.66,2.21,1.81,4.46.13,6.76a1.09,1.09,0,0,0,.11.13l-.22.17c-2.32.62-4.26-.17-6.32-1.24-4.72-2.45-9.6-4.64-14.41-6.89-8.66-4-17.39-7.92-26-12.1-9.89-4.83-19.58-10-29.44-14.89-6.65-3.31-13.45-6.32-20.19-9.49q-15-7.06-29.92-14.18c-8-3.8-16-7.61-23.86-11.59-3.11-1.55-5.84-3.91-9-5.4-8.6-4.11-17.28-8-26-11.86-6.35-2.82-12.86-5.27-19.14-8.2-9.25-4.31-18.39-8.88-27.58-13.34q-19-9.18-38.06-18.37c-7.11-3.46-14.15-7-21.26-10.48-8.9-4.33-17.8-8.68-26.79-12.84-5-2.29-10.13-4.24-15.2-6.34-4-1.64-7.7-4.44-12.33-4.46l-.4,0a3.11,3.11,0,0,0-.15-1.27c-1.25-3.26-17.94-30-18.64-30.71-1.51-1.51-2.88-1.6-4.41,0a50.17,50.17,0,0,0-3.37,4.51c1.86-3,3.17-5,3.37-5.19A3.28,3.28,0,0,1,420.41,40.42Z"/><path class="cls-4" d="M769,456.4c2.89,0,4.22,1.27,4.18,4.2,0,2.49-.83,53.28-1.36,56.23a58.59,58.59,0,0,1-7-6.12c-2.17-2.23-.27-52.06-.18-54.51v-.08C766.59,456.27,768.19,456.38,769,456.4Z"/><path class="cls-5" d="M541.47,453.6l-.24.44a30.83,30.83,0,0,0-.51,3.67c-.13,5.51-.48,44.71-.78,50.66a2.77,2.77,0,0,1-2.12,2.82,140.93,140.93,0,0,1-14.18,1.29,2.46,2.46,0,0,1-2.64-3,3.49,3.49,0,0,1,.28-1.11c1.4-3.37,1.29-74.39,0-76.12,0,0,.35-70,.57-77.69.24-8.22-.31-82.14-.31-82.14-.08-3.33-.22-6.65-.22-10a.38.38,0,0,1,0-.17,3.75,3.75,0,0,1,1-1.12c5.16-4.83,10.3-9.67,15.51-14.43.94-.88,1.29-1.64,1-2.32,2,1.42,2.5,184.09,2.41,187.07-.13,4.11,0,8.22-.06,12.33-.05,2.54-.35,5.08-.49,7.61A2.4,2.4,0,0,0,541.47,453.6Z"/><path class="cls-5" d="M514.7,262c-20.45-.46-84-1.4-93.55-1.2,0,0-71.26-.92-95.16.24-2.82.13-5,.28-6.28.48l-.33.09a3.87,3.87,0,0,0-1-1.12c-5.16-4.83-10.3-9.66-15.49-14.43-.94-.88-1.29-1.64-1-2.32a2.79,2.79,0,0,1,1.57-1.36c.22-.11,33.49-.63,74.8-1.22,17.11-.24,16.6.48,34.67.24,3.8,0,124.08,1.51,124.36,1.66a2.66,2.66,0,0,1,1.57,1.36c.27.68-.08,1.44-1,2.32-5.21,4.76-10.35,9.6-15.51,14.43a3.75,3.75,0,0,0-1,1.12l-.33-.09C520.76,262.14,518.44,262.07,514.7,262Z"/><path class="cls-6" d="M521.54,272.42s.55,73.92.31,82.14c-.22,7.7-.57,77.69-.57,77.69,1.29,1.73,1.4,72.75,0,76.12a3.49,3.49,0,0,0-.28,1.11l-.51-.06a43,43,0,0,1-4.42-4c.18-1.4-.34-47.38-.32-48.78,0-6.3,0-12.6,0-18.89,0-3.11-1.42-157.85-1.75-163.76a42.46,42.46,0,0,1,.68-12c3.74.09,6.06.16,6.32.2l.33.09a.38.38,0,0,0,0,.17C521.32,265.77,521.46,269.09,521.54,272.42Z"/><path class="cls-6" d="M441.21,73a3.11,3.11,0,0,1,.15,1.27,1.7,1.7,0,0,1-.17.78c-2.1,4-15,26.07-16,27.32a8.69,8.69,0,0,1-1.62,1.64c-2.49,1.31-5.45,1-8.05-2.32-1-1.24-13.87-23.29-16-27.31a2.82,2.82,0,0,1,0-2.06c.92-2.38,10-17.28,15.16-25.42a.22.22,0,0,0,.09-.1,50.17,50.17,0,0,1,3.37-4.51c1.53-1.6,2.9-1.51,4.41,0C423.27,43,440,69.71,441.21,73Z"/><path class="cls-6" d="M432.57,21l0,.24a7.66,7.66,0,0,0-2.34,0,9.39,9.39,0,0,1-2.37,0,66.48,66.48,0,0,0-10.78-.33c-4.83.11-9.36.4-10.21.35l-.05-.06a1.29,1.29,0,0,0,.16-.09c1.07-.7,6-13.21,8-16.38,3-4.6,6.15-4.9,9.39-.48C426.71,7.42,431.87,18.79,432.57,21Z"/><path class="cls-3" d="M397.25,73.71c-3.85.59-7.07,2.91-10.61,4.33-5.08,2.1-10.22,4-15.2,6.35-9,4.15-17.87,8.5-26.79,12.83-7.11,3.46-14.16,7-21.26,10.48q-19,9.22-38.06,18.37c-9.19,4.46-18.31,9.06-27.58,13.34-6.28,2.93-12.77,5.41-19.12,8.21-8.7,3.87-17.38,7.76-26,11.85-3.15,1.49-5.88,3.85-9,5.4-7.89,4-15.88,7.79-23.86,11.59q-14.92,7.13-29.92,14.18c-6.71,3.17-13.52,6.19-20.19,9.49C119.85,205,110.16,210.19,100.3,215c-8.6,4.2-17.33,8.07-26,12.1-4.81,2.25-9.67,4.44-14.39,6.89-2.08,1.07-4,1.86-6.34,1.25l-.22-.18a.63.63,0,0,0,.11-.13c-1.69-2.3-.51-4.55.13-6.76.9-3.08,3.78-14.35,6-21.28a39.26,39.26,0,0,1,1.68-4.53,27.78,27.78,0,0,1,10.21-11.57,120.44,120.44,0,0,1,24-12c7.19-2.56,131.34-61.11,138.05-64,5-2.16,28.52-13.32,35.46-16.51,6.27-2.91,21.67-10.63,23.09-11.55,4.57-3,21.83-10.63,25.46-12.33,7.94-3.7,79.2-36.55,97.64-42.28v0c.67-.07,1.35-.11,2-.14,1.05,0,2.12,0,3.19,0l-.06,8.53a3.28,3.28,0,0,0-2.25,1.16c-.2.2-1.51,2.23-3.37,5.19a.22.22,0,0,1-.09.1c-5.12,8.14-14.24,23-15.16,25.42a2.82,2.82,0,0,0,0,2.06c2.12,4,15,26.07,16,27.31,2.6,3.35,5.56,3.63,8.05,2.32-3.76,3-7.87.7-10.13-3-1.11-1.82-4.94-8.36-8.33-14.37h0c-2.65-4.75-5.08-9.19-5.67-10.79A3.26,3.26,0,0,0,397.25,73.71Z"/><path class="cls-1" d="M417.06,20.89l.22,11c-.68,0-1.36.07-2,.14v0c-18.44,5.73-89.7,38.58-97.64,42.28-3.63,1.7-20.89,9.36-25.46,12.33-1.42.92-16.82,8.64-23.09,11.55-6.94,3.19-30.51,14.35-35.46,16.51-6.71,2.93-130.86,61.48-138,64a120.44,120.44,0,0,0-24,12,27.78,27.78,0,0,0-10.21,11.57,39.26,39.26,0,0,0-1.68,4.53l-3.74.42a3.94,3.94,0,0,0-1.25.17c-3.19,1.07-6.32,2.38-9.47,3.61-2.74,1.09-4.79.46-5.47-1.84a8.82,8.82,0,0,1,0-2.62c.08-3.33-.42-6.8.39-9.93,1.44-5.47,5.47-9.32,10.41-11.77,4.55-2.27,135.93-61.9,142.71-65,14-6.32,27.85-12.9,41.76-19.38C246.4,95.28,309.43,67,312.87,65.4c6.32-3,61.87-29.79,69-33,2.39-1.08,13.35-4.92,20.17-8.36a10.93,10.93,0,0,0,2.43-1.29,22.08,22.08,0,0,0,1.88-1.29l.17-.13a2.29,2.29,0,0,0,.24-.15l.05.06C407.7,21.29,412.23,21,417.06,20.89Z"/><path class="cls-1" d="M335.83,122.57c-12,6.26-36.83,19.25-43.17,22.88-6.59,3.76-191.16,95.47-195.23,97.72-12,6.63-24,13.43-36,20.19-3,1.68-5.95,3.5-8.94,5.23A2.73,2.73,0,0,0,50.84,271l-.41,0c-2.47-.72-4.38.81-6.28,1.88-10.28,5.86-20.47,11.9-30.73,17.78-2.89,1.66-5.95,2.71-9.45,1.93-1.68-.37-2.67-1.1-2.84-2.69a107.33,107.33,0,0,1,.76-13.65c.57-3.76,1.12-7.55,1.89-11.26a7.62,7.62,0,0,1,1.81-3.39A44.2,44.2,0,0,1,19.7,250.94a268,268,0,0,1,27.1-11.11,13.16,13.16,0,0,0,6.56-4.75l.22.18c2.32.61,4.26-.18,6.34-1.25,4.72-2.45,9.58-4.64,14.39-6.89,8.66-4,17.39-7.9,26-12.1,9.86-4.83,19.55-10,29.41-14.89,6.67-3.3,13.48-6.32,20.19-9.49q15-7,29.92-14.18c8-3.8,16-7.61,23.86-11.59,3.11-1.55,5.84-3.91,9-5.4,8.58-4.09,17.26-8,26-11.85,6.35-2.8,12.84-5.28,19.12-8.21,9.27-4.28,18.39-8.88,27.58-13.34q19-9.18,38.06-18.37c7.1-3.46,14.15-7,21.26-10.48,8.92-4.33,17.8-8.68,26.79-12.83,5-2.3,10.12-4.25,15.2-6.35,3.54-1.42,6.76-3.74,10.61-4.33a3.26,3.26,0,0,1,2.18,2.14c.59,1.6,3,6,5.67,10.79l-.09.06c-3.85,2.45-59,30.6-62.73,32.53C341.71,119.51,339.31,120.76,335.83,122.57Z"/><path class="cls-6" d="M406.39,21.46a22.08,22.08,0,0,1-1.88,1.29C405,22.4,405.6,22,406.39,21.46Z"/><path class="cls-6" d="M326,261.24a42.16,42.16,0,0,1,.7,12.09C326.38,279.24,325,434,325,437.09c0,6.3,0,12.6,0,18.89,0,1.4-.5,47.38-.33,48.78a38.09,38.09,0,0,1-4.41,4l-.49.06a3.62,3.62,0,0,0-.28-1.11c-1.42-3.37-1.31-74.39,0-76.11,0,0-.35-70-.57-77.69-.22-8.23.31-82.15.31-82.15.08-3.33.21-6.65.21-10a.5.5,0,0,0,0-.17l.33-.09c1.31-.2,3.46-.35,6.28-.48Z"/><path class="cls-5" d="M319.75,508.8a2.47,2.47,0,0,1-2.66,3,140.07,140.07,0,0,1-14.15-1.29,2.72,2.72,0,0,1-2.13-2.82c-.32-5.95-.65-45.14-.81-50.66a28.87,28.87,0,0,0-.5-3.67h-1.57c1.68-.09,2.16-1.18,2.1-2.63-.13-2.53-.44-5.07-.51-7.61-.08-4.11.09-8.22,0-12.33-.11-3,.35-185.65,2.38-187.07h0c-.27.68.08,1.44,1,2.32,5.19,4.77,10.33,9.6,15.49,14.43a3.87,3.87,0,0,1,1,1.12.5.5,0,0,1,0,.17c0,3.33-.13,6.65-.21,10,0,0-.53,73.92-.31,82.15.22,7.7.57,77.69.57,77.69-1.29,1.72-1.4,72.74,0,76.11A3.62,3.62,0,0,1,319.75,508.8Z"/><path class="cls-4" d="M76,455.52c.09,2.45,2,52.28-.16,54.51a60.81,60.81,0,0,1-7,6.14c-.53-2.77-1.32-53.76-1.34-56.25-.06-2.93,1.27-4.15,4.16-4.2.85,0,2.45-.13,4.33-.28Z"/><path class="cls-7" d="M415.27,32.07h0c-18.44,5.73-89.7,38.58-97.64,42.28-3.63,1.7-20.89,9.36-25.46,12.33-1.42.92-16.82,8.64-23.09,11.55-6.94,3.19-30.51,14.35-35.46,16.51-6.71,2.93-130.86,61.48-138,64a120.44,120.44,0,0,0-24,12,27.78,27.78,0,0,0-10.21,11.57,39.26,39.26,0,0,0-1.68,4.53c-2.26,6.93-5.14,18.2-6,21.28-.64,2.21-1.82,4.46-.13,6.76a.63.63,0,0,1-.11.13,13.16,13.16,0,0,1-6.56,4.75,268,268,0,0,0-27.1,11.11A44.2,44.2,0,0,0,5.59,261.55a7.62,7.62,0,0,0-1.81,3.39c-.77,3.71-1.32,7.5-1.89,11.26a107.33,107.33,0,0,0-.76,13.65c.17,1.59,1.16,2.32,2.84,2.69,3.5.78,6.56-.27,9.45-1.93,10.26-5.88,20.45-11.92,30.73-17.78,1.9-1.07,3.81-2.6,6.28-1.88"/><path class="cls-7" d="M406.39,21.46a22.08,22.08,0,0,1-1.88,1.29c-.72.39-1.53.83-2.43,1.29-6.82,3.44-17.78,7.28-20.17,8.36-7.17,3.21-62.72,30-69,33-3.44,1.64-66.47,29.88-77.93,35.21C221,107.09,207.18,113.67,193.18,120,186.4,123.05,55,182.68,50.47,185c-4.94,2.45-9,6.3-10.41,11.77-.81,3.13-.31,6.6-.39,9.93a8.82,8.82,0,0,0,0,2.62c.68,2.3,2.73,2.93,5.47,1.84,3.15-1.23,6.28-2.54,9.47-3.61a3.94,3.94,0,0,1,1.25-.17c.7,0,1.44.11,2.14.11"/><path class="cls-7" d="M414.7,46.87c-5.12,8.14-14.24,23-15.16,25.42a2.82,2.82,0,0,0,0,2.06c2.12,4,15,26.07,16,27.31,2.6,3.35,5.56,3.63,8.05,2.32a10.25,10.25,0,0,0,3.7-3.65C428.33,98.6,431.8,92.7,435,87c2.89-5.12,5.62-10.09,6.26-11.81"/><path class="cls-7" d="M441.8,72.79c-2-4.72-17.17-29-19.23-31.21a3,3,0,0,0-2.16-1.16,3.28,3.28,0,0,0-2.25,1.16c-.2.2-1.51,2.23-3.37,5.19"/><path class="cls-7" d="M399,73.58a15.6,15.6,0,0,0-1.72.13c-3.85.59-7.07,2.91-10.61,4.33-5.08,2.1-10.22,4-15.2,6.35-9,4.15-17.87,8.5-26.79,12.83-7.11,3.46-14.16,7-21.26,10.48q-19,9.22-38.06,18.37c-9.19,4.46-18.31,9.06-27.58,13.34-6.28,2.93-12.77,5.41-19.12,8.21-8.7,3.87-17.38,7.76-26,11.85-3.15,1.49-5.88,3.85-9,5.4-7.89,4-15.88,7.79-23.86,11.59q-14.92,7.13-29.92,14.18c-6.71,3.17-13.52,6.19-20.19,9.49C119.85,205,110.16,210.19,100.3,215c-8.6,4.2-17.33,8.07-26,12.1-4.81,2.25-9.67,4.44-14.39,6.89-2.08,1.07-4,1.86-6.34,1.25"/><path class="cls-7" d="M319.71,261.5c1.31-.2,3.46-.35,6.28-.48,23.9-1.16,95.16-.24,95.16-.24"/><path class="cls-7" d="M326,261.24a42.16,42.16,0,0,1,.7,12.09C326.38,279.24,325,434,325,437.09c0,6.3,0,12.6,0,18.89,0,1.4-.5,47.38-.33,48.78"/><path class="cls-7" d="M342.11,158.25l-16.56,0"/><path class="cls-7" d="M412.93,241.38c-18.07.24-17.56-.48-34.67-.24-41.31.59-74.58,1.11-74.8,1.22a2.79,2.79,0,0,0-1.57,1.36c-.27.68.08,1.44,1,2.32,5.19,4.77,10.33,9.6,15.49,14.43a3.87,3.87,0,0,1,1,1.12.5.5,0,0,1,0,.17c0,3.33-.13,6.65-.21,10,0,0-.53,73.92-.31,82.15.22,7.7.57,77.69.57,77.69-1.29,1.72-1.4,72.74,0,76.11a3.62,3.62,0,0,1,.28,1.11,2.47,2.47,0,0,1-2.66,3,140.07,140.07,0,0,1-14.15-1.29,2.72,2.72,0,0,1-2.13-2.82c-.32-5.95-.65-45.14-.81-50.66a28.87,28.87,0,0,0-.5-3.67"/><path class="cls-7" d="M405,86.7c-3.85,2.45-59,30.6-62.73,32.53-.57.28-3,1.53-6.45,3.34-12,6.26-36.83,19.25-43.17,22.88-6.59,3.76-191.16,95.47-195.23,97.72-12,6.63-24,13.43-36,20.19-3,1.68-5.95,3.5-8.94,5.23A2.73,2.73,0,0,0,50.84,271a4.65,4.65,0,0,0,.29,1.6C51.61,274,50.6,507,51,513.46c.09,1.49.7,2.71,2.35,2.87,4.28.41,8.57.79,12.86,1a5.47,5.47,0,0,0,2.69-1.21,60.81,60.81,0,0,0,7-6.14c2.17-2.23.25-52.06.16-54.51"/><path class="cls-7" d="M324.65,504.76a38.09,38.09,0,0,1-4.41,4"/><path class="cls-7" d="M68.89,516.26s0,0,0-.09c-.53-2.77-1.32-53.76-1.34-56.25-.06-2.93,1.27-4.15,4.16-4.2.85,0,2.45-.13,4.33-.28,4.37-.31,10.32-.83,12.2-.72,4.4.24,127.38-1.43,131.49-1.38,13.13.09,53.37,1,60.37,1,5.95,0,11.9-.63,17.85-1,1.68-.09,2.16-1.18,2.1-2.63-.13-2.53-.44-5.07-.51-7.61-.08-4.11.09-8.22,0-12.33-.11-3,.35-185.65,2.38-187.07"/><path class="cls-7" d="M335.2,145c3.91,2.65,3.89,4.79,2.4,8.42a18.87,18.87,0,0,0-.83,3.39"/><path class="cls-7" d="M329.68,140.25c-1.61,1.72-1.77,3.89-1.53,6,.27,2.6,1.51,3.35,4.68,3.15"/><path class="cls-7" d="M334.15,136.31c2.07,1.62,2.47,4.07,2.25,6.3-.24,2.49-2.58,2.49-4.62,2.36"/><path class="cls-7" d="M328.9,132.11c-.44,1.66-1.38,3.39-1.18,5,.28,2.31,2.4,3.25,4.59,3.67"/><path class="cls-7" d="M329.42,150c-1.59,1.13-2.34,2.47-1.35,4.48a8.92,8.92,0,0,1,.3,2.87"/><path class="cls-7" d="M335.72,122.4a1.63,1.63,0,0,1,.11.17l.68,1.14c1.7,2.89.76,4.77-2.63,5.25"/><path class="cls-7" d="M329.68,127.38c-1.44.77-2,1.91-1.29,3.42s2.48,1.26,3.92,1.31v-1.05"/><path class="cls-7" d="M336.25,129c1.72,4.42,1,5.93-1.32,7.61"/><path class="cls-7" d="M415.25,32.05c.67-.07,1.35-.11,2-.14,1.05,0,2.12,0,3.19,0,.44,0,.88,0,1.34,0C430.1,32.11,514.43,71,523.12,75c3.63,1.71,20.88,9.37,25.48,12.34,1.4.92,16.8,8.64,23.09,11.55,6.94,3.19,30.49,14.35,35.44,16.51,6.73,2.93,130.88,61.48,138,64a120,120,0,0,1,24,12,27.84,27.84,0,0,1,10.22,11.59,47.52,47.52,0,0,1,2,5.38c2.21,7,4.88,17.45,5.75,20.43.66,2.21,1.81,4.46.13,6.76a1.09,1.09,0,0,0,.11.13,13.16,13.16,0,0,0,6.56,4.74,272.71,272.71,0,0,1,27.12,11.12,44.54,44.54,0,0,1,14.11,10.6,7.53,7.53,0,0,1,1.79,3.39c.79,3.72,1.34,7.51,1.91,11.27a115.21,115.21,0,0,1,.76,13.64c-.19,1.6-1.18,2.32-2.84,2.7-3.52.78-6.56-.27-9.45-1.93-10.28-5.88-20.47-11.92-30.75-17.78-1.88-1.07-3.79-2.6-6.28-1.88"/><path class="cls-7" d="M406.85,21.24c.85.05,5.38-.24,10.21-.35a66.48,66.48,0,0,1,10.78.33,9.39,9.39,0,0,0,2.37,0,7.66,7.66,0,0,1,2.34,0,3.26,3.26,0,0,1,1.62.79c4.5,3.76,21.6,9.69,24.65,11.06,7.17,3.2,62.75,30,69,33,3.44,1.64,66.47,29.88,77.93,35.21,13.91,6.48,27.78,13.06,41.76,19.38,6.78,3.06,138.16,62.68,142.71,65,5,2.45,9,6.3,10.41,11.77.83,3.12.31,6.6.39,9.93a8.82,8.82,0,0,1,0,2.62c-.66,2.3-2.74,2.93-5.47,1.84-3.15-1.23-6.28-2.54-9.47-3.61a10.93,10.93,0,0,0-3.39-.07"/><path class="cls-7" d="M432.57,21c-.7-2.19-5.86-13.56-8.2-16.75C421.13-.19,418,.11,415,4.71c-2.07,3.17-7,15.68-8,16.38a1.29,1.29,0,0,1-.16.09,2.29,2.29,0,0,1-.24.15l-.17.13c-.79.53-1.38.94-1.88,1.29A10.93,10.93,0,0,1,402.08,24c-.37.15-.81.29-1.31.44"/><path class="cls-7" d="M414.7,46.87a.22.22,0,0,0,.09-.1"/><path class="cls-7" d="M441.76,74.26c4.63,0,8.28,2.82,12.33,4.46,5.07,2.1,10.24,4,15.2,6.34,9,4.16,17.89,8.51,26.79,12.84,7.11,3.44,14.15,7,21.26,10.48q19,9.21,38.06,18.37c9.19,4.46,18.33,9,27.58,13.34,6.28,2.93,12.79,5.38,19.14,8.2,8.68,3.87,17.36,7.75,26,11.86,3.13,1.49,5.86,3.85,9,5.4,7.89,4,15.88,7.79,23.86,11.59q15,7.13,29.92,14.18c6.74,3.17,13.54,6.18,20.19,9.49,9.86,4.88,19.55,10.06,29.44,14.89,8.57,4.18,17.3,8.07,26,12.1,4.81,2.25,9.69,4.44,14.41,6.89,2.06,1.07,4,1.86,6.32,1.24"/><path class="cls-7" d="M521,262.18c-.26,0-2.58-.11-6.32-.2-20.45-.46-84-1.4-93.55-1.2"/><path class="cls-7" d="M514.72,261.92a.07.07,0,0,1,0,.06,42.46,42.46,0,0,0-.68,12c.33,5.91,1.77,160.65,1.75,163.76,0,6.29,0,12.59,0,18.89,0,1.4.5,47.38.32,48.78"/><path class="cls-7" d="M498.25,158.92c7.13,0,13.52.05,18.9.05"/><path class="cls-7" d="M412.93,241.38c3.8,0,124.08,1.51,124.36,1.66a2.66,2.66,0,0,1,1.57,1.36c.27.68-.08,1.44-1,2.32-5.21,4.76-10.35,9.6-15.51,14.43a3.75,3.75,0,0,0-1,1.12.38.38,0,0,0,0,.17c0,3.33.14,6.65.22,10,0,0,.55,73.92.31,82.14-.22,7.7-.57,77.69-.57,77.69,1.29,1.73,1.4,72.75,0,76.12a3.49,3.49,0,0,0-.28,1.11,2.46,2.46,0,0,0,2.64,3,140.93,140.93,0,0,0,14.18-1.29,2.77,2.77,0,0,0,2.12-2.82c.3-5.95.65-45.15.78-50.66a30.83,30.83,0,0,1,.51-3.67"/><path class="cls-7" d="M435.72,87.38c3.85,2.45,59,30.6,62.75,32.52.57.31,3,1.56,6.43,3.35,12,6.26,36.83,19.25,43.17,22.88,6.61,3.76,191.16,95.47,195.23,97.72,12.05,6.63,24,13.43,36,20.19,3,1.68,6,3.5,8.92,5.23a2.76,2.76,0,0,1,1.71,2.38,4.77,4.77,0,0,1-.31,1.6c-.48,1.4.55,234.42.18,240.89-.09,1.49-.7,2.71-2.37,2.87-4.28.41-8.57.78-12.86,1a5.37,5.37,0,0,1-2.69-1.23,58.59,58.59,0,0,1-7-6.12c-2.17-2.23-.27-52.06-.18-54.51"/><path class="cls-7" d="M516.07,505.44a43,43,0,0,0,4.42,4"/><path class="cls-7" d="M771.84,516.94s0-.07,0-.11c.53-3,1.32-53.74,1.36-56.23,0-2.93-1.29-4.16-4.18-4.2-.85,0-2.45-.13-4.33-.28-4.37-.31-10.3-.84-12.2-.73C748.13,455.63,625.13,454,621,454c-13.13.08-53.37,1-60.37,1-5.95,0-11.9-.63-17.85-1a2.28,2.28,0,0,1-1.33-.44,2.4,2.4,0,0,1-.75-2.19c.14-2.53.44-5.07.49-7.61.08-4.11-.07-8.22.06-12.33.09-3-.37-185.65-2.41-187.07"/><path class="cls-7" d="M505.53,145.65c-3.91,2.62-3.89,4.79-2.38,8.42a20.7,20.7,0,0,1,.81,3.39"/><path class="cls-7" d="M511,140.92c1.65,1.73,1.78,3.9,1.56,6-.29,2.6-1.51,3.35-4.7,3.15"/><path class="cls-7" d="M506.58,137c-2.08,1.61-2.47,4.06-2.25,6.3.26,2.49,2.58,2.49,4.61,2.36"/><path class="cls-7" d="M511.83,132.79c.44,1.66,1.4,3.39,1.2,5-.3,2.32-2.42,3.24-4.61,3.68"/><path class="cls-7" d="M511.31,150.63c1.62,1.16,2.36,2.48,1.35,4.49a8.56,8.56,0,0,0-.3,2.86"/><path class="cls-7" d="M505,123.08a1.63,1.63,0,0,0-.11.17l-.68,1.14c-1.71,2.89-.74,4.77,2.63,5.25"/><path class="cls-7" d="M511,128.06c1.45.77,2,1.91,1.29,3.41-.83,1.65-2.47,1.27-3.91,1.32v-1"/><path class="cls-7" d="M504.48,129.64c-1.72,4.42-1,5.92,1.32,7.61"/></g><g id="Layer_6" data-name="Layer 6"><path class="cls-8" d="M103.23,433.58c2.18-.16,157.16-.35,173.24-.16,2.34,0,5,2.05,5,3v9.39a4.32,4.32,0,0,1-4,4c-12.36.62-49.77-.25-56-.06-27.37.8-51,0-79.67,0-9.89,0-24.53.6-36.29.23-1.75-.05-5.64-2.1-5.64-4.55,0-.78.42-2.94.43-8.87A3,3,0,0,1,103.23,433.58Z"/><path class="cls-9" d="M276.47,433.42c2.34,0,5,2.05,5,3v9.39a4.32,4.32,0,0,1-4,4c-12.36.62-49.77-.25-56-.06-27.37.8-51,0-79.67,0-9.89,0-24.53.6-36.29.23-1.75-.05-5.64-2.1-5.64-4.55,0-.78.42-2.94.43-8.87a3,3,0,0,1,2.92-3C105.41,433.42,260.39,433.23,276.47,433.42Z"/><path class="cls-10" d="M103.23,433.58c2.18-.16,157.16-.35,173.24-.16,2.34,0,5,2.05,5,3v9.39a4.32,4.32,0,0,1-4,4c-12.36.62-49.77-.25-56-.06-27.37.8-51,0-79.67,0-9.89,0-24.53.6-36.29.23-1.75-.05-5.64-2.1-5.64-4.55,0-.78.42-2.94.43-8.87A3,3,0,0,1,103.23,433.58Z"/><path class="cls-10" d="M276.47,433.42c2.34,0,5,2.05,5,3v9.39a4.32,4.32,0,0,1-4,4c-12.36.62-49.77-.25-56-.06-27.37.8-51,0-79.67,0-9.89,0-24.53.6-36.29.23-1.75-.05-5.64-2.1-5.64-4.55,0-.78.42-2.94.43-8.87a3,3,0,0,1,2.92-3C105.41,433.42,260.39,433.23,276.47,433.42Z"/><path class="cls-8" d="M741.92,446c0-.81-.42-3.07-.43-9.27a3.09,3.09,0,0,0-2.92-3.14c-2.18-.17-157.16-.37-173.24-.17-2.34,0-5,2.14-5,3.17v9.82a4.44,4.44,0,0,0,4,4.18c12.36.65,49.77-.26,56-.07,27.37.84,51,0,79.67,0,9.89,0,24.53.63,36.29.25C738,450.71,741.92,448.57,741.92,446Z"/><path class="cls-11" d="M565.33,433.42c-2.34,0-5,2.14-5,3.17v9.82a4.44,4.44,0,0,0,4,4.18c12.36.65,49.77-.26,56-.07,27.37.84,51,0,79.67,0,9.89,0,24.53.63,36.29.25,1.75-.06,5.64-2.2,5.64-4.77,0-.81-.42-3.07-.43-9.27a3.09,3.09,0,0,0-2.92-3.14C736.39,433.42,581.41,433.22,565.33,433.42Z"/><path class="cls-12" d="M741.92,446c0-.81-.42-3.07-.43-9.27a3.09,3.09,0,0,0-2.92-3.14c-2.18-.17-157.16-.37-173.24-.17-2.34,0-5,2.14-5,3.17v9.82a4.44,4.44,0,0,0,4,4.18c12.36.65,49.77-.26,56-.07,27.37.84,51,0,79.67,0,9.89,0,24.53.63,36.29.25C738,450.71,741.92,448.57,741.92,446Z"/><path class="cls-12" d="M565.33,433.42c-2.34,0-5,2.14-5,3.17v9.82a4.44,4.44,0,0,0,4,4.18c12.36.65,49.77-.26,56-.07,27.37.84,51,0,79.67,0,9.89,0,24.53.63,36.29.25,1.75-.06,5.64-2.2,5.64-4.77,0-.81-.42-3.07-.43-9.27a3.09,3.09,0,0,0-2.92-3.14C736.39,433.42,581.41,433.22,565.33,433.42Z"/></g><g id="Window-L"><path class="cls-13" d="M107.23,428.7c-.28-24.3-.25-148.1.65-153.29-.31-19.91,15.6-36.46,36.19-43.16,2.54-.82,6.56-2,15.15-2.5,9.77-.58,26.2-3.12,30.12-8.57l.56.45c3.92,5.47,20.35,8,30.13,8.59,8.59.5,12.62,1.7,15.16,2.53,20.57,6.71,36.5,23.32,36.17,43.31.9,5.22.93,128.5.65,152.9h-.28l-164.4.2"/></g><g id="List-L"><path class="cls-14" d="M335.51,137.2a7,7,0,0,1,1.69,5.8,2.3,2.3,0,0,1-1.35,2.05l.15.31c3.91,2.64,3.89,4.79,2.4,8.42a12.48,12.48,0,0,0-.83,4.39l-.66.46c-6.79,0-1.83,0-7.56.05h-.18c-.08-1,.09-3-.3-3.86a4.43,4.43,0,0,1,1.35-5.49v0a3.23,3.23,0,0,1-1.27-2.64c-.25-2.14-.09-4.31,1.53-6l.15-.28a3.64,3.64,0,0,1-2.12-2.87c-.2-1.59.74-3.32,1.18-5l.32-.18a6.75,6.75,0,0,1-.82-1.14c-.87-1.44-.16-2.64,1.29-3.41l-.27-2.67c8.18-4.68,3.72-2,6.3-3.31v1c.27.43.53.87.79,1.31,1.71,2.89.77,4.77-2.62,5.25h2.36c1.73,4.42,1,5.92-1.31,7.61Z"/><path class="cls-15" d="M337.05,129.35c1.73,4.42,1,5.92-1.31,7.61"/><path class="cls-15" d="M329.7,132.5c-.44,1.66-1.38,3.39-1.18,5a3.64,3.64,0,0,0,2.12,2.87,8.85,8.85,0,0,0,2.47.81"/><path class="cls-15" d="M335,136.7a5.39,5.39,0,0,1,.56.5,7,7,0,0,1,1.69,5.8,2.3,2.3,0,0,1-1.35,2.05,7.25,7.25,0,0,1-3.26.31"/><path class="cls-15" d="M330.49,140.63c-1.62,1.73-1.78,3.9-1.53,6a3.23,3.23,0,0,0,1.27,2.64,5.7,5.7,0,0,0,3.41.51"/><path class="cls-15" d="M333.11,131.45v1.05c-.84.77-1.86,1.19-3.09-.18a6.75,6.75,0,0,1-.82-1.14c-.87-1.44-.16-2.64,1.29-3.41l-.27-2.67c8.18-4.68,3.72-2,6.3-3.31v1c.27.43.53.87.79,1.31,1.71,2.89.77,4.77-2.62,5.25"/><path class="cls-15" d="M336,145.36c3.91,2.64,3.89,4.79,2.4,8.42a12.48,12.48,0,0,0-.83,4.39l-.66.46c-6.79,0-1.83,0-7.56.05h-.18c-.08-1,.09-3-.3-3.86a4.43,4.43,0,0,1,1.35-5.49"/><path class="cls-14" d="M510.83,141.66a3.64,3.64,0,0,0,2.12-2.87c.2-1.59-.74-3.32-1.18-5l-.32-.18a6.75,6.75,0,0,0,.82-1.14c.87-1.44.16-2.64-1.29-3.41l.27-2.67c-8.18-4.68-3.72-2-6.3-3.31v1c-.27.43-.53.87-.79,1.31-1.58,2.67-.74,4,.49,4.63l0,.1c-1.73,4.42-1.16,6.44,1.13,8.13l.23.24a7,7,0,0,0-1.69,5.8,2.3,2.3,0,0,0,1.35,2.05l-.15.31c-3.91,2.64-3.89,4.79-2.4,8.42a12.48,12.48,0,0,1,.83,4.39l.66.46c6.79,0,1.83,0,7.56.05h.18c.08-1-.09-3,.3-3.86a4.43,4.43,0,0,0-1.35-5.49v0a3.23,3.23,0,0,0,1.27-2.64c.25-2.14.09-4.31-1.53-6Z"/><path class="cls-15" d="M504.6,130.14c-1.73,4.42-1.16,6.44,1.13,8.13"/><path class="cls-15" d="M511.77,133.81c.44,1.66,1.38,3.39,1.18,5a3.64,3.64,0,0,1-2.12,2.87,8.85,8.85,0,0,1-2.47.81"/><path class="cls-15" d="M506.52,138a5.39,5.39,0,0,0-.56.5,7,7,0,0,0-1.69,5.8,2.3,2.3,0,0,0,1.35,2.05,7.25,7.25,0,0,0,3.26.31"/><path class="cls-15" d="M511,141.94c1.62,1.73,1.78,3.9,1.53,6a3.23,3.23,0,0,1-1.27,2.64,5.7,5.7,0,0,1-3.41.51"/><path class="cls-15" d="M508.36,132.76v1.05c.84.77,1.86,1.19,3.09-.18a6.75,6.75,0,0,0,.82-1.14c.87-1.44.16-2.64-1.29-3.41l.27-2.67c-8.18-4.68-3.72-2-6.3-3.31v1c-.27.43-.53.87-.79,1.31-1.58,2.67-.74,4,.49,4.63a6.53,6.53,0,0,0,2.13.62"/><path class="cls-15" d="M505.47,146.67c-3.91,2.64-3.89,4.79-2.4,8.42a12.48,12.48,0,0,1,.83,4.39l.66.46c6.79,0,1.83,0,7.56.05h.18c.08-1-.09-3,.3-3.86a4.43,4.43,0,0,0-1.35-5.49"/></g><g id="Window-R"><path class="cls-13" d="M569,429.1c-.28-24.3-.25-148.11.65-153.29-.31-19.92,15.6-36.46,36.19-43.16,2.54-.82,6.56-2,15.15-2.51,9.78-.57,26.2-3.11,30.12-8.56l.56.45c3.93,5.47,20.35,8,30.13,8.59,8.59.5,12.62,1.7,15.16,2.53,20.57,6.71,36.5,23.32,36.17,43.31.9,5.22.93,127.5.65,151.9l-.28,1-164.4.2"/></g><g id="Layer_12" data-name="Layer 12"><rect class="cls-16" x="326.01" y="261.24" width="190.06" height="244.2"/></g><g id="bilboard"><path class="cls-6" d="M563.5,219.5a4.71,4.71,0,0,1-5,4.74l-8.64-.47c-2.75-.15-7.25-.2-10-.12l-24,.71c-2.75.08-7.25.14-10,.14h-17.5c-2.75,0-7.25.06-10,.12l-32.5.77c-2.75.06-7.25,0-10-.08l-15.51-.61c-2.75-.11-7.25-.16-10-.11l-45.5.82c-2.75.05-7.25,0-10-.06l-21.5-.69c-2.75-.08-7.24-.26-10-.38l-12.51-.55c-2.75-.13-7.25-.14-10,0l-16.38.62a4.79,4.79,0,0,1-5-4.81v-5.93c0-2.75.22-7.24.48-10l0-.55a85,85,0,0,0,.23-10l-.51-10.51c-.14-2.75-.25-7.24-.25-10V164a5,5,0,0,1,5-5h53.87c2.75,0,7.25-.06,10-.13l28-.74c2.75-.07,7.25-.06,10,0l19.51.66c2.74.09,7.24.17,10,.17h52c2.75,0,7.25,0,10,.09l44,.81c2.75.06,7.25,0,10,0l26.64-.73a4.86,4.86,0,0,1,5,4.87v1.07c0,2.75-.22,7-.5,9.5a64.61,64.61,0,0,0-.15,9.48l.31,4.53c.19,2.74.34,7.24.34,10V219.5Z"/><path class="cls-17" d="M563.5,219.5a4.71,4.71,0,0,1-5,4.74l-8.64-.47c-2.75-.15-7.25-.2-10-.12l-24,.71c-2.75.08-7.25.14-10,.14h-17.5c-2.75,0-7.25.06-10,.12l-32.5.77c-2.75.06-7.25,0-10-.08l-15.51-.61c-2.75-.11-7.25-.16-10-.11l-45.5.82c-2.75.05-7.25,0-10-.06l-21.5-.69c-2.75-.08-7.24-.26-10-.38l-12.51-.55c-2.75-.13-7.25-.14-10,0l-16.38.62a4.79,4.79,0,0,1-5-4.81v-5.93c0-2.75.22-7.24.48-10l0-.55a85,85,0,0,0,.23-10l-.51-10.51c-.14-2.75-.25-7.24-.25-10V164a5,5,0,0,1,5-5h53.87c2.75,0,7.25-.06,10-.13l28-.74c2.75-.07,7.25-.06,10,0l19.51.66c2.74.09,7.24.17,10,.17h52c2.75,0,7.25,0,10,.09l44,.81c2.75.06,7.25,0,10,0l26.64-.73a4.86,4.86,0,0,1,5,4.87v1.07c0,2.75-.22,7-.5,9.5a64.61,64.61,0,0,0-.15,9.48l.31,4.53c.19,2.74.34,7.24.34,10V219.5Z"/></g></g></svg>