<svg xmlns="http://www.w3.org/2000/svg" viewBox="0 0 228.05 224.2"><defs><style>.cls-1{fill:#949993;}.cls-2,.cls-3{fill:none;}.cls-2,.cls-3,.cls-4{stroke:#231f20;stroke-linecap:round;stroke-linejoin:round;}.cls-2{stroke-width:0.51px;}.cls-3{stroke-width:2px;}.cls-4{fill:#5a58a6;}</style></defs><g id="Layer_2" data-name="Layer 2"><g id="info"><path class="cls-1" d="M123.71,223c129-7.42,152-231.72-16.17-221.64C-50.9,10.84-21.85,231.35,123.71,223Z"/><path class="cls-2" d="M123.71,223c129-7.42,152-231.72-16.17-221.64C-50.9,10.84-21.85,231.35,123.71,223Z"/><path class="cls-2" d="M123.71,223c129-7.42,152-231.72-16.17-221.64C-50.9,10.84-21.85,231.35,123.71,223Z"/><path class="cls-3" d="M123.71,223c129-7.42,152-231.72-16.17-221.64C-50.9,10.84-21.85,231.35,123.71,223Z"/><path class="cls-4" d="M134.18,84.25c2.06,11.59-.62,16.79-4.62,30.26-3.13,10.57-3.16,30.68-.44,41.6,2.34,9.36,14.42,4.13,16.52,11.78a97.21,97.21,0,0,1,3.74,21.27c.12,1.32-1.91,7-5.93,7.48-11.64,1.46-36.53-.88-50-.93-2.12,0-6.75-4.43-7.22-6.79-1.23-6.26-1.51-12.66-.24-17.8,1.85-7.46,12.66-1.56,13-10.24.45-11.54.44-20.49,3.37-31.39,1.93-7.21,3.56-19.13-1.06-25.64C98.54,100,86.08,101,83.55,98.1c-1.39-1.58-1.23-9.28-1.17-15.2,0-4.63,1.08-6.9,4.31-7,9-.14,27.81-.36,41.82,0C129.8,76,133.75,81.83,134.18,84.25Z"/><path class="cls-4" d="M107,24.05c31.45.32,22.92,28.43,11,37-5.58,4-11.69,2.91-17-.89C86.58,50,94.42,23.92,107,24.05Z"/></g></g></svg>