<svg xmlns="http://www.w3.org/2000/svg" viewBox="0 0 560.25 211.79"><defs><style>.cls-1{fill:#ece95c;}.cls-2{fill:#d4d33a;}.cls-3{fill:#efe560;}.cls-4{fill:#c9c78f;}.cls-5{fill:#717796;}.cls-12,.cls-19,.cls-21,.cls-23,.cls-31,.cls-6,.cls-7,.cls-8,.cls-9{fill:none;}.cls-6{stroke:#010101;stroke-width:0.14px;}.cls-10,.cls-12,.cls-19,.cls-23,.cls-6,.cls-7,.cls-8,.cls-9{stroke-linecap:round;}.cls-10,.cls-12,.cls-19,.cls-6,.cls-7,.cls-8,.cls-9{stroke-linejoin:round;}.cls-10,.cls-12,.cls-7{stroke:#000;}.cls-7{stroke-width:0.28px;}.cls-8{stroke:#b7b7b7;}.cls-8,.cls-9{stroke-width:0.57px;}.cls-9{stroke:#c8c8c8;}.cls-10{fill:#53612b;stroke-width:0.31px;}.cls-11{fill:#423f3e;}.cls-12,.cls-18,.cls-19{stroke-width:0.42px;}.cls-13{fill:#4f5251;}.cls-14{fill:#778084;}.cls-15{fill:#f9c6d8;}.cls-16{fill:#050606;}.cls-17{fill:#f2f7f7;}.cls-18{fill:#161717;}.cls-18,.cls-19,.cls-31{stroke:#231f20;}.cls-18,.cls-21,.cls-23,.cls-24,.cls-25,.cls-26,.cls-27,.cls-28,.cls-29,.cls-30,.cls-31{stroke-miterlimit:10;}.cls-20{fill:#f9cb10;}.cls-21,.cls-23,.cls-24,.cls-25,.cls-26,.cls-27,.cls-28,.cls-29,.cls-30{stroke:#f7941d;}.cls-21{stroke-width:2.01px;}.cls-22{fill:#f8ad48;}.cls-23{stroke-width:1.34px;}.cls-24,.cls-25,.cls-26,.cls-27,.cls-28,.cls-29,.cls-30{fill:#f69e1d;}.cls-24{stroke-width:0.72px;}.cls-25{stroke-width:0.77px;}.cls-26{stroke-width:0.69px;}.cls-27{stroke-width:0.67px;}.cls-28{stroke-width:0.66px;}.cls-29{stroke-width:0.61px;}.cls-30{stroke-width:0.64px;}.cls-31{stroke-width:5px;}.cls-32{font-size:44.2px;fill:#231f20;font-family:KomikaText, Komika Text;}.cls-33{font-family:MyriadPro-Regular, Myriad Pro;}</style></defs><g id="Layer_2" data-name="Layer 2"><g id="Layer_4" data-name="Layer 4"><path class="cls-1" d="M128.23,106.8c-1.59-.32-3.38-.71-5.67-1.14-5-.94-9.27,0-18.37-.22-.11-.35-.23-.66-.3-.88a23.64,23.64,0,0,1-.74-10.16h0c1.3-.18,4.26-.6,7.78-.9,1.46-.13,3.48-.34,5.6-.48h0c4-.27,8.26-.34,9.77.65a1.37,1.37,0,0,1,.31.27c3,3.4,8.86,3.88,11.78,2,1.66-1.06,2.36-2.88,1-5.34l-.1,0c1.88-4,6.27-6.76,11.2-7.85h0c12.27,6.9,7.21,21.22-6.45,24.46a24.55,24.55,0,0,1-5.77.67A43.29,43.29,0,0,1,128.23,106.8Z"/><path class="cls-1" d="M139.42,90.62c1.33,2.46.63,4.28-1,5.34h0a10.64,10.64,0,0,1,.94-5.37Z"/><path class="cls-2" d="M103.15,94.4a24.85,24.85,0,0,1,1.9-7.29,4.13,4.13,0,0,0,.21-1,30.89,30.89,0,0,0,11.61-4.22c7.53-4.61,11.25-8.86,21.81-6.41h0a32.76,32.76,0,0,0-7.51,7A14.72,14.72,0,0,0,128,87.12c-4.94.32-4.55,4.65-11.42,5.9h0c-2.12.14-4.14.35-5.6.48-3.52.3-6.48.72-7.78.9Z"/><path class="cls-2" d="M86.17,96c-.84-.33-2.7-.74-3.12-1.25.39-.49,1.1-.53,1.6-.9a25.92,25.92,0,0,0-3.27-1.14c.43-.59,3-.64,2.73-2.1-.18-1-1.09-.85-2.74-1.69a7.72,7.72,0,0,0,2.69-.91c.91-.49,1.65-.55.92-1.32s-3.41-1.52-4.57-2a46,46,0,0,0,5.38-.21c-.15-.75-.55-1.06-.71-1.89a10.15,10.15,0,0,0,3.75,1.23,4.94,4.94,0,0,0-.93-2.23c.92.2,1.5.5,2.53.68a8.7,8.7,0,0,0,.79-2.75,8.37,8.37,0,0,1,1,3.4c.83-1.19,2.93-4.35,3.76-5.59a35.74,35.74,0,0,1-1.11,5.57h0c-.55-.29-1.4.16-1.76,1.19-.23.64-.15,0-.41.87A62.47,62.47,0,0,0,90.65,95,34.62,34.62,0,0,1,86.17,96Z"/><path class="cls-3" d="M86.17,96a34.62,34.62,0,0,0,4.48-1,36.64,36.64,0,0,0,.06,11.21l-.44.06C76.93,107.6,71.7,109,60.1,105.73c-5.3-1.54-16-3.32-25.87.58l-.16-11.15c4.28-2.86,9-2.56,13.57-2.67C52.94,92.35,59,95.2,64,96.21,71.69,97.74,80.53,97,86.17,96Z"/><path class="cls-4" d="M98.26,107.1c-.28,1.16-1.51.8-1.54,0,0-1.19-.06-1.46-.39-1.5-1.4-3.43-.86-16.49,1.1-20.32h0l.06.19A3.55,3.55,0,0,0,98,84.36c.31-1,2.24-1.37,2.18,0,0,.47-.23,1.34-.26,1.72-1.18,1.46-2.72,16.85-1.3,19.41C97.88,105.49,98.52,105.94,98.26,107.1Z"/><path class="cls-4" d="M90.71,106.23A36.64,36.64,0,0,1,90.65,95,62.47,62.47,0,0,1,92.71,85c.26-.85.18-.23.41-.87.36-1,1.21-1.48,1.76-1.19a1.06,1.06,0,0,1,.49.9,3.23,3.23,0,0,1-.05.85.39.39,0,0,0,0,.18c-1.39,2.62-3.29,16.27-2,20.49-.48,0,0-.28-.41,1.53-.3,1.34-1.72,1-2-.08C90.8,106.6,90.75,106.41,90.71,106.23Z"/><path class="cls-4" d="M102.07,106.69c0-.68.26-1.24-.21-1.24a.37.37,0,0,0-.25.08h0c-1.64-3.43-1.07-14.4.9-19.22.27-.46.37-1.14.63-1.5.41-.55,2.48-.18,2.12,1.32a4.13,4.13,0,0,1-.21,1,24.85,24.85,0,0,0-1.9,7.29,23.64,23.64,0,0,0,.74,10.16c.07.22.19.53.3.88s.16.47.22.72C104.82,107.84,102.06,107.81,102.07,106.69Z"/><path class="cls-4" d="M101.5,106.51c0,1.62-1.94,1.8-1.94.38-.47-1.28-.13-1.39-1-1.41-1.42-2.56.12-18,1.3-19.41a8.53,8.53,0,0,0,.78-1.6c.35-1.11,2.43-.3,2.12.54a9.88,9.88,0,0,0-.29,1.3c-2,4.82-2.54,15.79-.9,19.22h0C101.38,105.71,101.49,106.19,101.5,106.51Z"/><path class="cls-4" d="M96.33,105.63c-.47,0-.22-.07-.24,1.37,0,.84-2.35.7-2.43-.07-.14-1.36,0-1.61-.41-1.61-1.26-4.22.64-17.87,2-20.49,0-.06,0-.12,0-.18a4.41,4.41,0,0,0,.38-1.2c0-.82,2.37-.59,1.86.85a1.6,1.6,0,0,0-.13,1h0C95.47,89.14,94.93,102.2,96.33,105.63Z"/><path class="cls-5" d="M144.08,107.21c11,5.26,29.82-1.94,26.34-15.33-2.17-8.36-11.77-11-19.9-9.14-4.93,1.09-9.32,3.81-11.2,7.85a10.64,10.64,0,0,0-.94,5.37h0c-2.92,1.86-8.79,1.38-11.78-2a1.37,1.37,0,0,0-.31-.27v-.31A28.39,28.39,0,0,1,128,87.12a14.72,14.72,0,0,1,3.22-4.62,32.76,32.76,0,0,1,7.51-7C154.38,65,175.07,72.39,180.94,86c.95,2.22,2,4.74,5.34,5.87a4,4,0,0,1,1.47.9c.43.59-.07,1.2.49,1.85a3.46,3.46,0,0,0,1.86,1.11,3.41,3.41,0,0,0,2.22-.18,18,18,0,0,0,2.59-1.45c1.13-.67,1.64-.81,1.9-.64.43.3.19,1.45,1.05,2.34,1.66,1.74,2.39-.35,3.64-1.11,0,.25,1.27,2,1.2,2.27l.38,1c.72,2.33.72,3.72-1,6.15l-.76.62c-.1.24-2.18,1.29-2.35,1.51-.68-1.15-.12-3.27-2.58-2.39-1.27.44-1.71,1.54-2.26,1.64-.33.05-.71-.27-1.32-1.29a12.76,12.76,0,0,0-1.44-2.3,3.15,3.15,0,0,0-1.86-1,4.22,4.22,0,0,0-2.28.26c-.86.35-.78,1.09-1.49,1.43a4.52,4.52,0,0,1-1.8.24l-.46,0a6.16,6.16,0,0,0-5.45,3.21c-10.5,16.49-40.07,20.46-49.82.84a43.29,43.29,0,0,0,10.07,1.07,24.55,24.55,0,0,0,5.77-.67Z"/><path class="cls-6" d="M128.23,106.79h0c9.75,19.62,39.32,15.65,49.82-.84a6.16,6.16,0,0,1,5.45-3.21l.46,0a4.52,4.52,0,0,0,1.8-.24c.71-.34.63-1.08,1.49-1.43a4.22,4.22,0,0,1,2.28-.26,3.15,3.15,0,0,1,1.86,1,12.76,12.76,0,0,1,1.44,2.3c.61,1,1,1.34,1.32,1.29.55-.1,1-1.2,2.26-1.64,2.46-.88,1.9,1.24,2.58,2.39.17-.22,2.25-1.27,2.35-1.51l.76-.62c1.7-2.43,1.7-3.82,1-6.15l-.38-1c.07-.26-1.17-2-1.2-2.27-1.25.76-2,2.85-3.64,1.11-.86-.89-.62-2-1.05-2.34-.26-.17-.77,0-1.9.64a18,18,0,0,1-2.59,1.45,3.41,3.41,0,0,1-2.22.18,3.46,3.46,0,0,1-1.86-1.11c-.56-.65-.06-1.26-.49-1.85a4,4,0,0,0-1.47-.9c-3.35-1.13-4.39-3.65-5.34-5.87-5.87-13.59-26.56-21-42.26-10.48a32.76,32.76,0,0,0-7.51,7A14.72,14.72,0,0,0,128,87.12a28.39,28.39,0,0,0-1.64,6.24"/><path class="cls-7" d="M90.27,106.29C76.93,107.6,71.7,109,60.1,105.73c-5.3-1.54-16-3.32-25.87.58l-.16-11.15c4.28-2.86,9-2.56,13.57-2.67C52.94,92.35,59,95.2,64,96.21c7.69,1.53,16.53.81,22.17-.17a34.62,34.62,0,0,0,4.48-1h0"/><path class="cls-7" d="M86.17,96.05h0c-.84-.33-2.7-.74-3.12-1.25.39-.49,1.1-.53,1.6-.9a25.92,25.92,0,0,0-3.27-1.14c.43-.59,3-.64,2.73-2.1-.18-1-1.09-.85-2.74-1.69a7.72,7.72,0,0,0,2.69-.91c.91-.49,1.65-.55.92-1.32s-3.41-1.52-4.57-2a46,46,0,0,0,5.38-.21c-.15-.75-.55-1.06-.71-1.89a10.15,10.15,0,0,0,3.75,1.23,4.94,4.94,0,0,0-.93-2.23c.92.2,1.5.5,2.53.68a8.7,8.7,0,0,0,.79-2.75,8.37,8.37,0,0,1,1,3.4c.83-1.19,2.93-4.35,3.76-5.59a35.74,35.74,0,0,1-1.11,5.57"/><path class="cls-7" d="M93.25,105.32c.4,0,.27.25.41,1.61.08.77,2.43.91,2.43.07,0-1.44-.23-1.41.24-1.37s.34.31.39,1.5c0,.77,1.26,1.13,1.54,0s-.38-1.61.34-1.62.49.13,1,1.41c0,1.42,1.92,1.24,1.94-.38,0-.32-.12-.8.11-1h0a.37.37,0,0,1,.25-.08c.47,0,.22.56.21,1.24,0,1.12,2.75,1.15,2.34-.53-.06-.25-.14-.49-.22-.72s-.23-.66-.3-.88a23.64,23.64,0,0,1-.74-10.16,24.85,24.85,0,0,1,1.9-7.29,4.13,4.13,0,0,0,.21-1c.36-1.5-1.71-1.87-2.12-1.32-.26.36-.36,1-.63,1.5a9.88,9.88,0,0,1,.29-1.3c.31-.84-1.77-1.65-2.12-.54a8.53,8.53,0,0,1-.78,1.6c0-.38.24-1.25.26-1.72.06-1.36-1.87-1-2.18,0a3.55,3.55,0,0,1-.49,1.14l-.06-.19a1.6,1.6,0,0,1,.13-1c.51-1.44-1.85-1.67-1.86-.85a4.41,4.41,0,0,1-.38,1.2.39.39,0,0,0,0,.18c0-.06,0-.12,0-.18a3.23,3.23,0,0,0,.05-.85,1.06,1.06,0,0,0-.49-.9c-.55-.29-1.4.16-1.76,1.19-.23.64-.15,0-.41.87A62.47,62.47,0,0,0,90.65,95a36.64,36.64,0,0,0,.06,11.21c0,.18.09.37.13.54.28,1.06,1.7,1.42,2,.08C93.25,105,92.77,105.31,93.25,105.32Z"/><path class="cls-7" d="M93.25,105.32c-1.26-4.22.64-17.87,2-20.49"/><path class="cls-7" d="M96.33,105.63c-1.4-3.43-.86-16.49,1.1-20.32"/><path class="cls-7" d="M98.6,105.48c-1.42-2.56.12-18,1.3-19.41"/><path class="cls-7" d="M144.07,107.2c13.66-3.24,18.72-17.56,6.45-24.46"/><path class="cls-6" d="M128.23,106.8a43.29,43.29,0,0,0,10.07,1.07,24.55,24.55,0,0,0,5.77-.67"/><path class="cls-7" d="M104.19,105.44c9.1.22,13.4-.72,18.37.22,2.29.43,4.08.82,5.67,1.14"/><path class="cls-7" d="M116.53,93c6.87-1.25,6.48-5.58,11.42-5.9h0"/><path class="cls-7" d="M116.44,93l.09,0"/><path class="cls-7" d="M103.15,94.4c1.3-.18,4.26-.6,7.78-.9,1.46-.13,3.48-.34,5.6-.48h0c4-.27,8.26-.34,9.77.65a1.37,1.37,0,0,1,.31.27c3,3.4,8.86,3.88,11.78,2,1.66-1.06,2.36-2.88,1-5.34"/><path class="cls-7" d="M194.38,103.53a23.35,23.35,0,0,0,1.68-8.1"/><path class="cls-7" d="M105.26,86.13a30.89,30.89,0,0,0,11.61-4.22c7.53-4.61,11.25-8.86,21.81-6.41"/><path class="cls-7" d="M101.61,105.53c-1.64-3.43-1.07-14.4.9-19.22"/><path class="cls-7" d="M199.75,104.26a22.92,22.92,0,0,0,1.68-8.08"/><path class="cls-7" d="M144.08,107.21c11,5.26,29.82-1.94,26.34-15.33-2.17-8.36-11.77-11-19.9-9.14-4.93,1.09-9.32,3.81-11.2,7.85a10.64,10.64,0,0,0-.94,5.37"/><path class="cls-8" d="M130.52,91.89c1.91-14.84,24.61-23.89,39.93-13.67"/><path class="cls-9" d="M147.26,110.74c9.15,2.31,17.47-.41,21.32-5"/><path class="cls-10" d="M36.34,100.84c0,3-1.23,5.47-2.75,5.47s-2.75-2.45-2.75-5.47,1.23-5.46,2.75-5.46S36.34,97.82,36.34,100.84Z"/><path class="cls-11" d="M58.15,95.28a25.82,25.82,0,0,1-3.48,12c-.56.85.56,2.08.44,3.09-.21,1.88-2.9,2.67-3.3.76-.56-2.73-.16-1.84-.75-4.32-3.22-13.37.24-12-.08-24.08,1,1.15,2.07,1.73,3.85-1,1.45,2.72,1,7.62.51,9.7C54.68,94.5,55.45,96,58.15,95.28Z"/><path class="cls-12" d="M51,82.73c.32,12.09-3.14,10.71.08,24.08.59,2.48.19,1.59.75,4.32.4,1.91,3.09,1.12,3.3-.76.12-1-1-2.24-.44-3.09a25.82,25.82,0,0,0,3.48-12c-2.7.73-3.47-.78-2.81-3.84.44-2.08.94-7-.51-9.7C53.05,84.46,52,83.88,51,82.73Z"/><path class="cls-13" d="M147.51,94.47A22.38,22.38,0,0,0,142,99.84c-2.21,3,.9,6.81.95,13.21a19.55,19.55,0,0,1-.37,5.06c-2.59,9.48-11.31,17.81-22.59,17.38-11.07-.74-15.16.62-20.37,9.21A12.8,12.8,0,0,1,98,146.47c.58-2.52-.65-4.84-2.28-8.18h0c5.13-9.16,11.11-9.61,21.68-9.86,11.39,1.06,19.83-3.85,21.75-11.59a22.62,22.62,0,0,0-1-11C136.68,102.13,139.13,96.81,147.51,94.47Z"/><path class="cls-14" d="M48.49,29.93c1.25-.38,4.94-1.22,8.23-2.1,2.72-.71,5.16-1.44,5.76-1.94.62-.33,2-1.45,2.59-1.81a8.74,8.74,0,0,0,2,5.38c3,4.11,12.09,6.8,17-.68a11.15,11.15,0,0,0,.43-6.67A12.52,12.52,0,0,0,81,15.42a2,2,0,0,0-.6-.42l.14-.05c1.64-1.3,7-2.47,10.41-.3A6.05,6.05,0,0,1,93.1,17c.64,1.24,1.64,1.32,2.79.55A24.81,24.81,0,0,1,102.5,14a19.45,19.45,0,0,1,4.18-.82c8.65-1.9,20.12,5.85,20.91,20.79.3,4.06-.52,8-4.1,10.21-5.6,3.53-18.58,2.66-22.7-4.7a4.9,4.9,0,0,0-3.05-2.13,1.73,1.73,0,0,0-1.84.54,18.32,18.32,0,0,0-1.13,2c1.69,5.11-4,8.59-5.68,9.75a23.41,23.41,0,0,1-13.77,4,2.86,2.86,0,0,0-2.59,1.16,11.14,11.14,0,0,0-2.82,7.52c0,8.62,4.86,14.68,12,14.68,2,0,10.75-4,23-2,.53-2.35,2.6-4.62,5-3.91,1.06.31,1.38.8,1.21,1.86a3.91,3.91,0,0,1-.38,1.2,2.19,2.19,0,0,0,0,2.15c.85,2,1.86,4.47,2.75,13.3a7.15,7.15,0,0,0,1.82,3.26l.14,0a3.34,3.34,0,0,1,1.09-1.06c.23-.15.77,0,1.09.21a2.85,2.85,0,0,0,1.68.46A1.67,1.67,0,0,1,121.06,94a38.55,38.55,0,0,1,.74,5,1.86,1.86,0,0,1-.63,1.45,32.73,32.73,0,0,1-3.71,2.06,4.29,4.29,0,0,1-1.48.3A1.73,1.73,0,0,1,114,101.5l-.2,0c-3.22-1.17-5.94-3.6-3.5-9a22,22,0,0,1-4.82-6c-.78-1.44-1.85-2.94-1.45-4.81A90.74,90.74,0,0,0,95,86.21c-13.48,9.37-14.46,16.64-6.4,33.66.54,1.15,5.11,13.94,5.56,15,.54,1.26,1.08,2.39,1.58,3.42,1.63,3.34,2.86,5.66,2.28,8.18h-.12c.16,2.31-1.77,5.32-2.12,6.5a2,2,0,0,0,1.73,2.68,7.8,7.8,0,0,0,2.41-.28c1.43-.42,2.8-1,4.2-1.46a3.18,3.18,0,0,1,3.91,1.21c2.16,3.08,1.38,7.06-5.86,12.17-9.29,8.09-11.75,19.26-12.07,20.57-.53,2.33-2.43,3.09-4.22,4a3.33,3.33,0,0,1-1.76-.07c-2.13-.52-2.75-1.55-2.38-2.79a5,5,0,0,1-1.16,0c-2-.78-2.54-1.75-2.19-2.78l-.78-.08a2.15,2.15,0,0,1-2-2.71,3.43,3.43,0,0,0,.06-.91v-.22a50.3,50.3,0,0,1-6.13-.28,4.65,4.65,0,0,1-1.94-.65,81.83,81.83,0,0,1-6.79-5.67,8.88,8.88,0,0,1-2.62-3.48c-1.76-4.5,1.77-9.18,4.75-11.09,4.48-3,8.38-5.6,9.25-13.05.45-8.44.68-15.92-3.21-25.66-2.16-6.57-7.78-12.75-15-7.86l0,0C60.14,99.24,61,87.16,54,64.92A13.46,13.46,0,0,0,51.58,62a7.09,7.09,0,0,0-3.41-1.87c-2.33-.8-3.66,1.17-4.83,1.14-.4,0-2.29.14-2.89-1.45l-2.11,0c-2.85.39-6.17-1.43-8.68-2.83a40.66,40.66,0,0,1-5-3.38l-1.05-.83a36.72,36.72,0,0,1-3.32-3.67,51.15,51.15,0,0,0-4.79-5,21.81,21.81,0,0,0-5-3.43,1.56,1.56,0,0,0-.51-.14l0-.29a16.45,16.45,0,0,0,2.32-4.74,3.09,3.09,0,0,0,0-2.37l.18-.06c5.31-1.32,6.31-3.17,8.27-4.28C28.21,24.52,42.66,25.62,48.49,29.93Z"/><path class="cls-15" d="M68.91,122.38c3.89,9.74,3.66,17.22,3.21,25.66-.87,7.45-4.77,10-9.25,13.05-3,1.91-6.51,6.59-4.75,11.09a5.24,5.24,0,0,1-.94.33,15.12,15.12,0,0,1-5.65-.12,6,6,0,0,1-2.72-1.17c-2-1.47-2.94-3.67-4.27-5.63-.11-.16-.41-1-1-2.06a18.59,18.59,0,0,0-6.52-7.5c-4.64-3.5-5.72-12.81-4.19-18.2a15.35,15.35,0,0,1,.64-1.61c2.46-5.42,9-13.12,20.17-21.55.07-.06.14-.1.21-.15C61.13,109.63,66.75,115.81,68.91,122.38Z"/><path class="cls-16" d="M69.44,17.16c2.07-.23,2.57,3.4,1.43,5.14C69.51,24.35,66,24.73,65.44,22h0A10.25,10.25,0,0,1,69.44,17.16Z"/><path class="cls-14" d="M71.7,15.85l-.74.37-.09-.16c0-1.41-.69-2.23-1-3.34l0-.22a2,2,0,0,0,1.55-.45,7.11,7.11,0,0,0,1.11-.93,21.16,21.16,0,0,0,4.48-6C79.32-.3,91.8-2.64,95.83,5.62a9.14,9.14,0,0,1,1.28,4.57c-.35,2-3.56,4.46-6.17,4.46-3.43-2.17-8.77-1-10.41.3l-.14.05a1.76,1.76,0,0,0-.41-.13,13.71,13.71,0,0,0-3.25-.18A20.07,20.07,0,0,0,71.7,15.85Z"/><path class="cls-17" d="M70.87,22.3c1.14-1.74.64-5.37-1.43-5.14A13,13,0,0,1,71,16.22l.74-.37a20.07,20.07,0,0,1,5-1.16,13.71,13.71,0,0,1,3.25.18,1.76,1.76,0,0,1,.41.13,2,2,0,0,1,.6.42,12.52,12.52,0,0,1,3.51,6.69,11.15,11.15,0,0,1-.43,6.67c-4.94,7.48-14,4.79-17,.68a8.74,8.74,0,0,1-2-5.38,6.88,6.88,0,0,1,.36-2h0C66,24.73,69.51,24.35,70.87,22.3Z"/><path class="cls-16" d="M57.76,13.23c2.08-.22,2.57,3.41,1.42,5.16-1.35,2-4.86,2.41-5.42-.26L53.45,18a12,12,0,0,1,2.36-3.7,11,11,0,0,1,1.34-1.23Z"/><path class="cls-17" d="M69.84,12.72c.34,1.11,1,1.93,1,3.34l.09.16a13,13,0,0,0-1.52.94,10.25,10.25,0,0,0-4,4.88,6.88,6.88,0,0,0-.36,2c-.61.36-2,1.48-2.59,1.81-.6.5-3,1.23-5.76,1.94-3.95-2.7-4.59-6.44-3.27-9.82l.31.12c.56,2.67,4.07,2.3,5.42.26,1.15-1.75.66-5.38-1.42-5.16l-.61-.15A11.58,11.58,0,0,1,62,11a10.92,10.92,0,0,1,2.14,0,7.58,7.58,0,0,1,4.64,1.12,2.43,2.43,0,0,0,1.06.43Z"/><path class="cls-16" d="M12.27,33.14a3.09,3.09,0,0,1,0,2.37,16.45,16.45,0,0,1-2.32,4.74l0,.29A9.13,9.13,0,0,0,8,40.62C-.58,41.93-.72,29.5,6.5,30a18.48,18.48,0,0,1,4.08,1.56A2.82,2.82,0,0,1,12.27,33.14Z"/><path class="cls-13" d="M4.58,156.42a1.3,1.3,0,0,1,.43-1,2.07,2.07,0,0,1,3.06,0,23.92,23.92,0,0,1,4.33,6.79A28.57,28.57,0,0,0,14,165.37c4.68,7.3,6.08,2.59,5.11-4.38a41.88,41.88,0,0,0-.26-4.75c-.25-3.36-.54-6.7-.84-10.05-.16-1.92-1.42-5.94,1.19-11.49a8.81,8.81,0,0,1,5.34-3.82,4.66,4.66,0,0,1,3.81.41,7.1,7.1,0,0,1,2.33,2.8c.46.92.95,1.86,2.13,2.06l.68.07a15.35,15.35,0,0,0-.64,1.61c-1.53,5.39-.45,14.7,4.19,18.2a18.59,18.59,0,0,1,6.52,7.5l-.69,0a5.94,5.94,0,0,1-1.22-.35c-1.2-.61-2.36-1.3-3.54-1.95-1.62-.86-3.47-1-5.21-1.48-2.67-.73-3.7-.41-5.3,1.77a10.79,10.79,0,0,0-1.78,7.53,5.75,5.75,0,0,0,1.3,3.54c.48.51.9,1,1.31,1.58A9,9,0,0,1,30,180.33c.52,6.81-4.64,9.91-10.6,1.7-2.88-1.38-5.82-2.63-8.74-3.93A16.51,16.51,0,0,1,9,177.35a24.47,24.47,0,0,1-4-2.55,6.45,6.45,0,0,1-1.89-4.61,8.58,8.58,0,0,1,0-2.68,1.69,1.69,0,0,0-.52-1.87c-.45-.45-1-.84-1.39-1.32a3.84,3.84,0,0,1-1-3c.08-.58.89-1.05,1.32-1.59a2,2,0,0,0,.37-.84,2.52,2.52,0,0,1,2-2.23c.19-.05.38-.12.56-.18Z"/><path class="cls-12" d="M94.77,40c1.69,5.11-4,8.59-5.68,9.75a23.41,23.41,0,0,1-13.77,4,2.86,2.86,0,0,0-2.59,1.16,11.14,11.14,0,0,0-2.82,7.52c0,8.62,4.86,14.68,12,14.68,2,0,10.75-4,23-2"/><path class="cls-12" d="M86.12,184.33c-2.28,1.55-4,3.24-4.43,4.64-.37,1.24.25,2.27,2.38,2.79a3.33,3.33,0,0,0,1.76.07c1.79-.87,3.69-1.63,4.22-4,.32-1.31,2.78-12.48,12.07-20.57,7.24-5.11,8-9.09,5.86-12.17a3.18,3.18,0,0,0-3.91-1.21c-1.4.48-2.77,1-4.2,1.46a7.8,7.8,0,0,1-2.41.28A2,2,0,0,1,95.73,153c.35-1.18,2.28-4.19,2.12-6.5a.59.59,0,0,0,0-.19"/><path class="cls-12" d="M4.45,156.43c-.18.06-.37.13-.56.18a2.52,2.52,0,0,0-2,2.23,2,2,0,0,1-.37.84c-.43.54-1.24,1-1.32,1.59a3.84,3.84,0,0,0,1.05,3c.43.48.94.87,1.39,1.32a1.69,1.69,0,0,1,.52,1.87,8.58,8.58,0,0,0,0,2.68,6.45,6.45,0,0,0,1.89,4.61,24.47,24.47,0,0,0,4,2.55,16.51,16.51,0,0,0,1.66.75c2.92,1.3,5.86,2.55,8.74,3.93,6,8.21,11.12,5.11,10.6-1.7a9,9,0,0,0-1.58-6.14c-.41-.53-.83-1.07-1.31-1.58a5.75,5.75,0,0,1-1.3-3.54,10.79,10.79,0,0,1,1.78-7.53c1.6-2.18,2.63-2.5,5.3-1.77,1.74.48,3.59.62,5.21,1.48,1.18.65,2.34,1.34,3.54,1.95a5.94,5.94,0,0,0,1.22.35l.17,0"/><path class="cls-12" d="M89.84,171.67a35,35,0,0,0-5.5,2.77A12.81,12.81,0,0,0,80,179.68a5.74,5.74,0,0,1-.57,1.2A3.51,3.51,0,0,1,77.67,182a9.08,9.08,0,0,1-2.07.22,50.3,50.3,0,0,1-6.13-.28,4.65,4.65,0,0,1-1.94-.65,81.83,81.83,0,0,1-6.79-5.67,8.88,8.88,0,0,1-2.62-3.48c-1.76-4.5,1.77-9.18,4.75-11.09,4.48-3,8.38-5.6,9.25-13.05.45-8.44.68-15.92-3.21-25.66-2.16-6.57-7.78-12.75-15-7.86-.07,0-.14.09-.21.15C42.55,123.1,36,130.8,33.5,136.22a15.35,15.35,0,0,0-.64,1.61c-1.53,5.39-.45,14.7,4.19,18.2a18.59,18.59,0,0,1,6.52,7.5c.56,1.11.86,1.9,1,2.06,1.33,2,2.32,4.16,4.27,5.63a6,6,0,0,0,2.72,1.17,15.12,15.12,0,0,0,5.65.12,5.24,5.24,0,0,0,.94-.33l.1,0"/><path class="cls-12" d="M104.07,81.73A90.74,90.74,0,0,0,95,86.21c-13.48,9.37-14.46,16.64-6.4,33.66.54,1.15,5.11,13.94,5.56,15,.54,1.26,1.08,2.39,1.58,3.42,1.63,3.34,2.86,5.66,2.28,8.18a12.8,12.8,0,0,0,1.64-1.77c5.21-8.59,9.3-9.95,20.37-9.21,11.28.43,20-7.9,22.59-17.38a19.55,19.55,0,0,0,.37-5.06c-.05-6.4-3.16-10.2-.95-13.21a22.38,22.38,0,0,1,5.52-5.37"/><path class="cls-12" d="M53.84,114.47C60.14,99.24,61,87.16,54,64.92A13.46,13.46,0,0,0,51.58,62a7.09,7.09,0,0,0-3.41-1.87c-2.33-.8-3.66,1.17-4.83,1.14-.4,0-2.29.14-2.89-1.45"/><path class="cls-12" d="M32.82,136.15c-1.18-.2-1.67-1.14-2.13-2.06a7.1,7.1,0,0,0-2.33-2.8,4.66,4.66,0,0,0-3.81-.41,8.81,8.81,0,0,0-5.34,3.82c-2.61,5.55-1.35,9.57-1.19,11.49.3,3.35.59,6.69.84,10.05a41.88,41.88,0,0,1,.26,4.75c1,7-.43,11.68-5.11,4.38a28.57,28.57,0,0,1-1.61-3.17,23.92,23.92,0,0,0-4.33-6.79,2.07,2.07,0,0,0-3.06,0,1.3,1.3,0,0,0-.43,1,1.57,1.57,0,0,0,.41.86c.84,1,1.64,2,2.44,3.06a4.3,4.3,0,0,1,.84,2.7"/><path class="cls-12" d="M147.51,94.47c-8.38,2.34-10.83,7.66-9.42,11.42a22.62,22.62,0,0,1,1,11c-1.92,7.74-10.36,12.65-21.75,11.59-10.57.25-16.55.7-21.68,9.86"/><path class="cls-12" d="M104.91,75c.53-2.35,2.6-4.62,5-3.91,1.06.31,1.38.8,1.21,1.86a3.91,3.91,0,0,1-.38,1.2,2.19,2.19,0,0,0,0,2.15c.85,2,1.86,4.47,2.75,13.3a7.15,7.15,0,0,0,1.82,3.26"/><path class="cls-12" d="M118.12,96.71c-.23-1.58-2.92-3.28-2.75-3.6l.1-.19a3.34,3.34,0,0,1,1.09-1.06c.23-.15.77,0,1.09.21a2.85,2.85,0,0,0,1.68.46A1.67,1.67,0,0,1,121.06,94a38.55,38.55,0,0,1,.74,5,1.86,1.86,0,0,1-.63,1.45,32.73,32.73,0,0,1-3.71,2.06,4.29,4.29,0,0,1-1.48.3A1.73,1.73,0,0,1,114,101.5a2.25,2.25,0,0,1,0-1"/><path class="cls-12" d="M56.73,58.48c-11.71-4.27-13.2-1.63-15.95.32,0,0-.05,0-.18.11a4.9,4.9,0,0,1-2.26.9c-2.85.39-6.17-1.43-8.68-2.83a40.66,40.66,0,0,1-5-3.38l-1.05-.83a36.72,36.72,0,0,1-3.32-3.67,51.15,51.15,0,0,0-4.79-5,21.81,21.81,0,0,0-5-3.43,1.56,1.56,0,0,0-.51-.14A9.13,9.13,0,0,0,8,40.62C-.58,41.93-.72,29.5,6.5,30a18.48,18.48,0,0,1,4.08,1.56,2.82,2.82,0,0,1,1.69,1.58,3.09,3.09,0,0,1,0,2.37,16.45,16.45,0,0,1-2.32,4.74"/><path class="cls-12" d="M104.07,81.73c-.4,1.87.67,3.37,1.45,4.81a22,22,0,0,0,4.82,6c-2.44,5.36.28,7.79,3.5,9"/><path class="cls-12" d="M15.46,44.11c-.05,6.54,1.26,11.49,3.69,13.55a1.31,1.31,0,0,0,.77.34,2,2,0,0,0,1.36-.39,12,12,0,0,0,3.17-3.78"/><path class="cls-12" d="M84.73,180.61c-2.17,1.56-5.73,3.67-6.39,5.57-.35,1,.15,2,2.19,2.78a5,5,0,0,0,1.16,0h.06"/><path class="cls-12" d="M71,16.22l.74-.37a20.07,20.07,0,0,1,5-1.16,13.71,13.71,0,0,1,3.25.18,1.76,1.76,0,0,1,.41.13,2,2,0,0,1,.6.42,12.52,12.52,0,0,1,3.51,6.69,11.15,11.15,0,0,1-.43,6.67c-4.94,7.48-14,4.79-17,.68a8.74,8.74,0,0,1-2-5.38,6.88,6.88,0,0,1,.36-2,10.25,10.25,0,0,1,4-4.88A13,13,0,0,1,71,16.22Z"/><path class="cls-12" d="M65.07,24.08c-.61.36-2,1.48-2.59,1.81-.6.5-3,1.23-5.76,1.94-3.29.88-7,1.72-8.23,2.1h0"/><path class="cls-12" d="M90.94,14.65c2.61,0,5.82-2.43,6.17-4.46a9.14,9.14,0,0,0-1.28-4.57C91.8-2.64,79.32-.3,77,5.08a21.16,21.16,0,0,1-4.48,6,7.11,7.11,0,0,1-1.11.93,2,2,0,0,1-1.55.45,2.43,2.43,0,0,1-1.06-.43A7.58,7.58,0,0,0,64.17,11,10.92,10.92,0,0,0,62,11a11.58,11.58,0,0,0-4.88,2.11,11,11,0,0,0-1.34,1.23A12,12,0,0,0,53.45,18c-1.32,3.38-.68,7.12,3.27,9.82a0,0,0,0,0,0,0"/><path class="cls-12" d="M80.53,15c1.64-1.3,7-2.47,10.41-.3A6.05,6.05,0,0,1,93.1,17c.64,1.24,1.64,1.32,2.79.55A24.81,24.81,0,0,1,102.5,14a19.45,19.45,0,0,1,4.18-.82c8.65-1.9,20.12,5.85,20.91,20.79.3,4.06-.52,8-4.1,10.21-5.6,3.53-18.58,2.66-22.7-4.7a4.9,4.9,0,0,0-3.05-2.13,1.73,1.73,0,0,0-1.84.54,18.32,18.32,0,0,0-1.13,2"/><path class="cls-12" d="M87.33,85.73A20.39,20.39,0,0,0,83,90.12a25.33,25.33,0,0,0-1.5,2.59"/><path class="cls-12" d="M2,159.3c2,.53,2.64,2.35,3.7,3.74a2.44,2.44,0,0,1,.77,2"/><path class="cls-12" d="M20.25,49.1c-.58.19.06,8.28-.3,8.53"/><path class="cls-12" d="M75.61,182.48a3.43,3.43,0,0,1-.06.91,2.15,2.15,0,0,0,2,2.71l.78.08h.06"/><path class="cls-12" d="M28.08,35.22c-.1-.15-.69-3.78-3.91-3"/><path class="cls-12" d="M40.36,30.56c1.35.9,1.55,3.75,1.3,4.85"/><path class="cls-12" d="M47.8,165.07a.84.84,0,0,0,.09.19,4,4,0,0,0,3.91,2,5.07,5.07,0,0,1,.65.09"/><path class="cls-12" d="M36,33.36a4.84,4.84,0,0,0-3-3.86"/><path class="cls-12" d="M118.58,92.71c-.12,1.27-.25,2.54-.36,3.81,0,.18.14.36.17.56.08.46.13.93.19,1.39"/><path class="cls-12" d="M50.45,31.78a4.83,4.83,0,0,0-.42-.37,7.27,7.27,0,0,0-1.54-1.48c-5.83-4.31-20.28-5.41-27.77-1.13-2,1.11-3,3-8.27,4.28"/><path class="cls-12" d="M69.84,12.72c.34,1.11,1,1.93,1,3.34"/><path class="cls-12" d="M69.44,17.16c2.07-.23,2.57,3.4,1.43,5.14C69.51,24.35,66,24.73,65.44,22"/><path class="cls-12" d="M57.76,13.23c2.08-.22,2.57,3.41,1.42,5.16-1.35,2-4.86,2.41-5.42-.26"/><path class="cls-15" d="M115.39,19.78c6.57,3.39,9.21,9,7.47,15.43-1.34,4.91-7.81,7.59-12.48,6.11-8-2.58-10.91-6.7-11.72-12.51-.31-2.3-2.93-2.7-3.69-4.15,2.81.65,3.56-1.62,3.08-4.14l1.94-.39C103.16,16.38,112.55,18.29,115.39,19.78Z"/><path class="cls-18" d="M46.57,144.25a2.11,2.11,0,0,0,4-.4,6.43,6.43,0,0,0-3.25-.37"/><path class="cls-11" d="M50.28,73c.09-1.7,2.52-3.26,4.68-1.88a1.24,1.24,0,0,0,1,0c.78-.52,3.13-1.45,4,.22,1.28,7.67.41,10.33-2.49,9.39l-7,2.1c-3.49,3.25-5.82-3.19-4-7.58a3.61,3.61,0,0,1,2.69-1.4C49.74,73.74,50.25,73.55,50.28,73Z"/><path class="cls-19" d="M57.49,80.71c2.9.94,3.77-1.72,2.49-9.39-.89-1.67-3.24-.74-4-.22a1.24,1.24,0,0,1-1,0c-2.16-1.38-4.59.18-4.68,1.88,0,.56-.54.75-1.1.84a3.61,3.61,0,0,0-2.69,1.4c-1.77,4.39.56,10.83,4,7.58"/><path class="cls-19" d="M57.13,77.4c1.94,5.33-2.59,6.35-2.59.87,0,0,.4,6.4.36,6.4"/><path class="cls-19" d="M49.84,78.76c-.55,4,2.26,7.65,4.7,2.32"/><path class="cls-20" d="M407.8,196,206.21,177.32a5.72,5.72,0,0,1-5.15-6.19l6.32-68.23a5.72,5.72,0,0,1,6.19-5.15l200.78,18.59"/><path class="cls-21" d="M407.8,196,206.21,177.32a5.72,5.72,0,0,1-5.15-6.19l6.32-68.23a5.72,5.72,0,0,1,6.19-5.15l200.78,18.59"/><path class="cls-22" d="M414.35,116.34l136,12.59a5.72,5.72,0,0,1,5.15,6.19l-6.32,68.23a5.71,5.71,0,0,1-6.2,5.14L407.8,196"/><path class="cls-21" d="M414.35,116.34l136,12.59a5.72,5.72,0,0,1,5.15,6.19l-6.32,68.23a5.71,5.71,0,0,1-6.2,5.14L407.8,196"/><line class="cls-23" x1="485.2" y1="122.49" x2="478.15" y2="198.63"/><line class="cls-24" x1="497.86" y1="125.72" x2="490.92" y2="200.77"/><line class="cls-25" x1="515.84" y1="128.09" x2="508.9" y2="203.14"/><line class="cls-26" x1="507.45" y1="129.37" x2="500.85" y2="200.73"/><line class="cls-27" x1="229.01" y1="98.77" x2="221.82" y2="176.36"/><line class="cls-28" x1="221.14" y1="103.29" x2="214.64" y2="173.55"/><line class="cls-29" x1="211.24" y1="109.69" x2="206.17" y2="164.44"/><line class="cls-30" x1="215.64" y1="102.37" x2="209.1" y2="173.03"/><line class="cls-23" x1="430.75" y1="117.86" x2="423.8" y2="192.91"/><line class="cls-23" x1="447.6" y1="123.56" x2="441.03" y2="194.51"/><line class="cls-23" x1="462.98" y1="124.98" x2="456.41" y2="195.93"/><line class="cls-23" x1="475.09" y1="121.55" x2="468.01" y2="197.99"/><line class="cls-27" x1="544.68" y1="129.4" x2="537.99" y2="201.62"/><line class="cls-27" x1="548.46" y1="133.18" x2="542.33" y2="199.46"/><line class="cls-28" x1="524.26" y1="126.52" x2="517.12" y2="203.7"/><line class="cls-28" x1="540.67" y1="128.03" x2="533.52" y2="205.22"/><line class="cls-28" x1="536.6" y1="127.25" x2="529.2" y2="207.22"/><line class="cls-28" x1="530.59" y1="129.73" x2="523.46" y2="206.69"/><line class="cls-23" x1="380.52" y1="115.35" x2="373.57" y2="190.41"/><line class="cls-23" x1="395.39" y1="115.58" x2="388.44" y2="190.63"/><line class="cls-23" x1="410.61" y1="120.98" x2="403.66" y2="196.03"/><rect class="cls-31" x="333.84" y="-27.57" width="86.91" height="355.59" rx="6.71" transform="translate(192.93 512.06) rotate(-84.71)"/><text class="cls-32" transform="matrix(0.99, 0.12, -0.12, 0.99, 288.8, 153.69)">Go Back<tspan class="cls-33" x="155.91" y="0"> </tspan></text></g></g></svg>