<svg xmlns="http://www.w3.org/2000/svg" viewBox="0 0 176.18 210.42"><defs><style>.cls-1{fill:#bf8a55;}.cls-2,.cls-5,.cls-6{fill:none;stroke:#231f20;}.cls-2{stroke-width:2px;}.cls-3{fill:#70933d;}.cls-4{fill:#3a6f72;}.cls-5{stroke-miterlimit:10;}.cls-5,.cls-6{stroke-width:2.16px;}</style></defs><g id="Layer_2" data-name="Layer 2"><g id="Hatch-R2"><path class="cls-1" d="M10.24,209C10,184.67,10,60.86,10.89,55.68,10.58,35.76,26.5,19.22,47.08,12.52c2.54-.82,6.56-2,15.15-2.51C72,9.44,88.43,6.9,92.35,1.44l.57.46c3.92,5.46,20.34,8,30.12,8.59,8.59.49,12.62,1.69,15.16,2.53,20.57,6.71,36.5,23.31,36.18,43.3.89,5.22.92,127.5.64,151.9l-.28,1-164.4.2"/><path class="cls-2" d="M10.24,209C10,184.67,10,60.86,10.89,55.68,10.58,35.76,26.5,19.22,47.08,12.52c2.54-.82,6.56-2,15.15-2.51C72,9.44,88.43,6.9,92.35,1.44l.57.46c3.92,5.46,20.34,8,30.12,8.59,8.59.49,12.62,1.69,15.16,2.53,20.57,6.71,36.5,23.31,36.18,43.3.89,5.22.92,127.5.64,151.9l-.28,1-164.4.2"/><path class="cls-3" d="M114.4,96.48c3.42,5.9,2.26,11.79-1.31,15.36-1.9,1.88-3.53,4.07-5.42,5.92-5.12,5.09-10.35,10.15-15.79,15.47l-1.39-.09c-5.47-5.31-10.7-10.37-15.83-15.44-1.89-1.88-3.52-4.09-5.41-5.94-3.57-3.55-4.73-9.47-1.31-15.36C70.59,91.78,83.42,87,82.52,84.14c-.37-1.16-.63-2.41-.94-3.65v-.33c-.21-2.58,1.55-4.1,3.2-5.18,1.87-1.21,4.15-1.66,6.2-2.46l.37.08c2.05.81,4.34,1.25,6.2,2.47,1.66,1.08,3.42,2.6,3.21,5.17v.33c-.29,1.25-.58,2.49-1,3.65C98.92,87.1,111.75,91.83,114.4,96.48Z"/><rect class="cls-4" x="1.08" y="166.6" width="5.52" height="19.26"/><rect class="cls-4" x="1.08" y="74.01" width="5.52" height="19.29"/><path class="cls-5" d="M90.49,133.14c-5.47-5.31-10.7-10.37-15.83-15.44-1.89-1.88-3.52-4.09-5.41-5.94-3.57-3.55-4.73-9.47-1.31-15.36C70.59,91.78,83.42,87,82.52,84.14c-.37-1.16-.63-2.41-.94-3.65"/><path class="cls-5" d="M81.58,80.16c-.21-2.58,1.55-4.1,3.2-5.18,1.87-1.21,4.15-1.66,6.2-2.46"/><path class="cls-5" d="M91.88,133.23c5.44-5.32,10.67-10.38,15.79-15.47,1.89-1.85,3.52-4,5.42-5.92,3.57-3.57,4.73-9.46,1.31-15.36-2.65-4.65-15.48-9.38-14.59-12.26.37-1.16.66-2.4,1-3.65"/><path class="cls-5" d="M100.76,80.24c.21-2.57-1.55-4.09-3.21-5.17-1.86-1.22-4.15-1.66-6.2-2.47"/><path class="cls-5" d="M149.9,80.57c3.76,11.15,1.74,22.41,1.08,33.73-.13,2.49-.21,5-.16,7.47a28.33,28.33,0,0,0,.43,4.24c.44,3,1.15,5.89,1.47,8.88.65,6,2.7,14.14,1.76,20"/><path class="cls-5" d="M126.59,44.6c.35,9.63,1,19.59,1,29.39"/><path class="cls-5" d="M128.54,117.9c-3.81,4.84-1,19.26-1.31,25.29-.35,5.42.65,13.78-1,19"/><path class="cls-5" d="M94,148c1.69,5.32.66,13,.66,19"/><path class="cls-5" d="M59.21,47.67V71.91"/><path class="cls-5" d="M60.53,126.2v41.14"/><path class="cls-5" d="M31,68.12c1.89.75.29,26.81,1,31.79,1,7.86.69,16.13.69,24.24"/><rect class="cls-5" x="1.08" y="74.01" width="5.52" height="19.29"/><rect class="cls-5" x="1.08" y="166.6" width="5.52" height="19.26"/><path class="cls-5" d="M150.64,113.53c.13.27.24.52.34.77,1.47,3.27,1.47,3.43,1.34,5.59-.23,2.91.32,4-1.07,6.12a1,1,0,0,1-.14.19"/><path class="cls-6" d="M114.4,96.48c3.42,5.9,2.26,11.79-1.31,15.36-1.9,1.88-3.53,4.07-5.42,5.92-5.12,5.09-10.35,10.15-15.79,15.47l-1.39-.09c-5.47-5.31-10.7-10.37-15.83-15.44-1.89-1.88-3.52-4.09-5.41-5.94-3.57-3.55-4.73-9.47-1.31-15.36C70.59,91.78,83.42,87,82.52,84.14c-.37-1.16-.63-2.41-.94-3.65v-.33c-.21-2.58,1.55-4.1,3.2-5.18,1.87-1.21,4.15-1.66,6.2-2.46l.37.08c2.05.81,4.34,1.25,6.2,2.47,1.66,1.08,3.42,2.6,3.21,5.17v.33c-.29,1.25-.58,2.49-1,3.65C98.92,87.1,111.75,91.83,114.4,96.48Z"/><rect class="cls-6" x="1.08" y="166.6" width="5.52" height="19.26"/><rect class="cls-6" x="1.08" y="74.01" width="5.52" height="19.29"/><path class="cls-6" d="M90.49,133.14c-5.47-5.31-10.7-10.37-15.83-15.44-1.89-1.88-3.52-4.09-5.41-5.94-3.57-3.55-4.73-9.47-1.31-15.36C70.59,91.78,83.42,87,82.52,84.14c-.37-1.16-.63-2.41-.94-3.65"/><path class="cls-6" d="M81.58,80.16c-.21-2.58,1.55-4.1,3.2-5.18,1.87-1.21,4.15-1.66,6.2-2.46"/><path class="cls-6" d="M91.88,133.23c5.44-5.32,10.67-10.38,15.79-15.47,1.89-1.85,3.52-4,5.42-5.92,3.57-3.57,4.73-9.46,1.31-15.36-2.65-4.65-15.48-9.38-14.59-12.26.37-1.16.66-2.4,1-3.65"/><path class="cls-6" d="M100.76,80.24c.21-2.57-1.55-4.09-3.21-5.17-1.86-1.22-4.15-1.66-6.2-2.47"/><path class="cls-6" d="M149.9,80.57c3.76,11.15,1.74,22.41,1.08,33.73-.13,2.49-.21,5-.16,7.47a28.33,28.33,0,0,0,.43,4.24c.44,3,1.15,5.89,1.47,8.88.65,6,2.7,14.14,1.76,20"/><path class="cls-6" d="M126.59,44.6c.35,9.63,1,19.59,1,29.39"/><path class="cls-6" d="M128.54,117.9c-3.81,4.84-1,19.26-1.31,25.29-.35,5.42.65,13.78-1,19"/><path class="cls-6" d="M94,148c1.69,5.32.66,13,.66,19"/><path class="cls-6" d="M59.21,47.67V71.91"/><path class="cls-6" d="M60.53,126.2v41.14"/><path class="cls-6" d="M31,68.12c1.89.75.29,26.81,1,31.79,1,7.86.69,16.13.69,24.24"/><rect class="cls-6" x="1.08" y="74.01" width="5.52" height="19.29"/><rect class="cls-6" x="1.08" y="166.6" width="5.52" height="19.26"/><path class="cls-6" d="M150.64,113.53c.13.27.24.52.34.77,1.47,3.27,1.47,3.43,1.34,5.59-.23,2.91.32,4-1.07,6.12a1,1,0,0,1-.14.19"/></g></g></svg>