<svg xmlns="http://www.w3.org/2000/svg" viewBox="0 0 175.93 210.42"><defs><style>.cls-1{fill:#bf8a55;}.cls-2,.cls-5,.cls-6{fill:none;stroke:#231f20;}.cls-2{stroke-width:2px;}.cls-3{fill:#70933d;}.cls-4{fill:#3a6f72;}.cls-5{stroke-miterlimit:10;}.cls-5,.cls-6{stroke-width:2.16px;}</style></defs><g id="Layer_2" data-name="Layer 2"><g id="Hatch-L2"><path class="cls-1" d="M1.16,209C.88,184.67.91,60.86,1.8,55.68,1.49,35.76,17.41,19.22,38,12.52c2.54-.82,6.56-2,15.15-2.51,9.78-.57,26.2-3.11,30.13-8.57l.56.46c3.92,5.46,20.34,8,30.12,8.59,8.59.49,12.62,1.69,15.16,2.53,20.57,6.71,36.5,23.31,36.18,43.3.89,5.22.93,127.5.65,151.9l-.28,1-164.41.2"/><path class="cls-2" d="M1.16,209C.88,184.67.91,60.86,1.8,55.68,1.49,35.76,17.41,19.22,38,12.52c2.54-.82,6.56-2,15.15-2.51,9.78-.57,26.2-3.11,30.13-8.57l.56.46c3.92,5.46,20.34,8,30.12,8.59,8.59.49,12.62,1.69,15.16,2.53,20.57,6.71,36.5,23.31,36.18,43.3.89,5.22.93,127.5.65,151.9l-.28,1-164.41.2"/><path class="cls-3" d="M61.53,96c-3.41,5.89-2.26,11.78,1.32,15.35,1.89,1.88,3.52,4.07,5.41,5.92,5.13,5.1,10.35,10.16,15.79,15.47l1.4-.08c5.46-5.31,10.69-10.38,15.82-15.44,1.89-1.88,3.52-4.1,5.41-5.95,3.58-3.54,4.73-9.46,1.32-15.36-2.66-4.62-15.48-9.4-14.59-12.25.37-1.17.63-2.41,1-3.66v-.33c.21-2.57-1.55-4.09-3.21-5.17C89.28,73.27,87,72.83,85,72l-.37.09c-2,.8-4.34,1.24-6.2,2.46-1.66,1.08-3.42,2.6-3.21,5.17v.34c.29,1.24.58,2.49,1,3.65C77,86.61,64.19,91.34,61.53,96Z"/><rect class="cls-4" x="169.33" y="166.1" width="5.52" height="19.26"/><rect class="cls-4" x="169.33" y="73.52" width="5.52" height="19.29"/><path class="cls-5" d="M85.45,132.65c5.46-5.31,10.69-10.38,15.82-15.44,1.89-1.88,3.52-4.1,5.41-5.95,3.58-3.54,4.73-9.46,1.32-15.36-2.66-4.62-15.48-9.4-14.59-12.25.37-1.17.63-2.41,1-3.66"/><path class="cls-5" d="M94.36,79.66c.21-2.57-1.55-4.09-3.21-5.17C89.28,73.27,87,72.83,85,72"/><path class="cls-5" d="M84.05,132.73c-5.44-5.31-10.66-10.37-15.79-15.47-1.89-1.85-3.52-4-5.41-5.92-3.58-3.57-4.73-9.46-1.32-15.35C64.19,91.34,77,86.61,76.12,83.73c-.37-1.16-.66-2.41-1-3.65"/><path class="cls-5" d="M75.17,79.74c-.21-2.57,1.55-4.09,3.21-5.17,1.86-1.22,4.15-1.66,6.2-2.46"/><path class="cls-5" d="M26,80.08c-3.76,11.15-1.74,22.41-1.08,33.73.13,2.49.21,5,.16,7.47a29.57,29.57,0,0,1-.42,4.23c-.45,3-1.16,5.89-1.47,8.88-.66,6-2.71,14.14-1.76,20"/><path class="cls-5" d="M49.34,44.11c-.34,9.63-1,19.59-1,29.38"/><path class="cls-5" d="M47.39,117.4c3.81,4.84,1,19.26,1.32,25.29.34,5.43-.66,13.78,1,19"/><path class="cls-5" d="M81.9,147.51c-1.68,5.31-.66,13-.66,19"/><path class="cls-5" d="M116.72,47.18V71.42"/><path class="cls-5" d="M115.41,125.7v41.15"/><path class="cls-5" d="M145,67.63c-1.89.74-.29,26.81-1,31.79-1,7.86-.68,16.13-.68,24.24"/><rect class="cls-5" x="169.33" y="73.52" width="5.52" height="19.29"/><rect class="cls-5" x="169.33" y="166.1" width="5.52" height="19.26"/><path class="cls-5" d="M25.29,113c-.13.28-.23.53-.34.78-1.47,3.26-1.47,3.43-1.34,5.58.24,2.91-.31,4,1.08,6.12a.72.72,0,0,0,.13.19"/><path class="cls-6" d="M61.53,96c-3.41,5.89-2.26,11.78,1.32,15.35,1.89,1.88,3.52,4.07,5.41,5.92,5.13,5.1,10.35,10.16,15.79,15.47l1.4-.08c5.46-5.31,10.69-10.38,15.82-15.44,1.89-1.88,3.52-4.1,5.41-5.95,3.58-3.54,4.73-9.46,1.32-15.36-2.66-4.62-15.48-9.4-14.59-12.25.37-1.17.63-2.41,1-3.66v-.33c.21-2.57-1.55-4.09-3.21-5.17C89.28,73.27,87,72.83,85,72l-.37.09c-2,.8-4.34,1.24-6.2,2.46-1.66,1.08-3.42,2.6-3.21,5.17v.34c.29,1.24.58,2.49,1,3.65C77,86.61,64.19,91.34,61.53,96Z"/><rect class="cls-6" x="169.33" y="166.1" width="5.52" height="19.26"/><rect class="cls-6" x="169.33" y="73.52" width="5.52" height="19.29"/><path class="cls-6" d="M85.45,132.65c5.46-5.31,10.69-10.38,15.82-15.44,1.89-1.88,3.52-4.1,5.41-5.95,3.58-3.54,4.73-9.46,1.32-15.36-2.66-4.62-15.48-9.4-14.59-12.25.37-1.17.63-2.41,1-3.66"/><path class="cls-6" d="M94.36,79.66c.21-2.57-1.55-4.09-3.21-5.17C89.28,73.27,87,72.83,85,72"/><path class="cls-6" d="M84.05,132.73c-5.44-5.31-10.66-10.37-15.79-15.47-1.89-1.85-3.52-4-5.41-5.92-3.58-3.57-4.73-9.46-1.32-15.35C64.19,91.34,77,86.61,76.12,83.73c-.37-1.16-.66-2.41-1-3.65"/><path class="cls-6" d="M75.17,79.74c-.21-2.57,1.55-4.09,3.21-5.17,1.86-1.22,4.15-1.66,6.2-2.46"/><path class="cls-6" d="M26,80.08c-3.76,11.15-1.74,22.41-1.08,33.73.13,2.49.21,5,.16,7.47a29.57,29.57,0,0,1-.42,4.23c-.45,3-1.16,5.89-1.47,8.88-.66,6-2.71,14.14-1.76,20"/><path class="cls-6" d="M49.34,44.11c-.34,9.63-1,19.59-1,29.38"/><path class="cls-6" d="M47.39,117.4c3.81,4.84,1,19.26,1.32,25.29.34,5.43-.66,13.78,1,19"/><path class="cls-6" d="M81.9,147.51c-1.68,5.31-.66,13-.66,19"/><path class="cls-6" d="M116.72,47.18V71.42"/><path class="cls-6" d="M115.41,125.7v41.15"/><path class="cls-6" d="M145,67.63c-1.89.74-.29,26.81-1,31.79-1,7.86-.68,16.13-.68,24.24"/><rect class="cls-6" x="169.33" y="73.52" width="5.52" height="19.29"/><rect class="cls-6" x="169.33" y="166.1" width="5.52" height="19.26"/><path class="cls-6" d="M25.29,113c-.13.28-.23.53-.34.78-1.47,3.26-1.47,3.43-1.34,5.58.24,2.91-.31,4,1.08,6.12a.72.72,0,0,0,.13.19"/></g></g></svg>