<svg xmlns="http://www.w3.org/2000/svg" xmlns:xlink="http://www.w3.org/1999/xlink" viewBox="0 0 114.5 39.14"><defs><style>.cls-1{fill:#a4a3a2;}.cls-2{fill:none;stroke:#231f20;stroke-linecap:round;stroke-linejoin:round;stroke-width:0.18px;}.cls-3{fill:url(#White_Black);}.cls-4{fill:url(#White_Black-2);}.cls-5{fill:url(#White_Black-3);}.cls-6{fill:url(#White_Black-4);}.cls-7{fill:url(#White_Black-5);}.cls-8{fill:url(#White_Black-6);}.cls-9{fill:url(#White_Black-7);}.cls-10{fill:url(#White_Black-8);}</style><linearGradient id="White_Black" x1="-242.06" y1="505.84" x2="-223.73" y2="505.84" gradientTransform="translate(-462.68 -222.62) rotate(-90)" gradientUnits="userSpaceOnUse"><stop offset="0" stop-color="#fff"/><stop offset="1" stop-color="#231f20"/></linearGradient><linearGradient id="White_Black-2" x1="-242.01" y1="533.72" x2="-223.68" y2="533.72" xlink:href="#White_Black"/><linearGradient id="White_Black-3" x1="-431.34" y1="-293.65" x2="-413.01" y2="-293.65" gradientTransform="translate(-222.62 450.68) rotate(90)" xlink:href="#White_Black"/><linearGradient id="White_Black-4" x1="-431.29" y1="-265.78" x2="-412.96" y2="-265.78" gradientTransform="translate(-222.62 450.68) rotate(90)" xlink:href="#White_Black"/><linearGradient id="White_Black-5" x1="-242.04" y1="477.96" x2="-223.7" y2="477.96" xlink:href="#White_Black"/><linearGradient id="White_Black-6" x1="-431.32" y1="-237.9" x2="-412.99" y2="-237.9" gradientTransform="translate(-222.62 450.68) rotate(90)" xlink:href="#White_Black"/><linearGradient id="White_Black-7" x1="-241.98" y1="561.6" x2="-223.65" y2="561.6" xlink:href="#White_Black"/><linearGradient id="White_Black-8" x1="-431.37" y1="-321.53" x2="-413.04" y2="-321.53" gradientTransform="translate(-222.62 450.68) rotate(90)" xlink:href="#White_Black"/></defs><g id="Layer_2" data-name="Layer 2"><g id="magnifying_glass" data-name="magnifying glass"><rect class="cls-1" x="0.09" y="0.09" width="114.32" height="38.95" rx="1.68"/><rect class="cls-2" x="0.09" y="0.09" width="114.32" height="38.95" rx="1.68"/><path class="cls-3" d="M56.71,19.43A44.47,44.47,0,0,0,53.24,1.56l0-.44H33.05l0,.44a44.53,44.53,0,0,0-3.47,17.89l.47,0Z"/><path class="cls-4" d="M84.59,19.38A44.81,44.81,0,0,0,81.12,1.51l0-.45H60.93l0,.45a44.49,44.49,0,0,0-3.47,17.88h27.1Z"/><path class="cls-5" d="M57.49,19.35A44.47,44.47,0,0,0,61,37.22l0,.45H81.14l0-.45a44.83,44.83,0,0,0,3.47-17.88H57.49Z"/><path class="cls-6" d="M29.61,19.41a44.47,44.47,0,0,0,3.47,17.87l0,.44H53.27l0-.44a44.57,44.57,0,0,0,3.47-17.89l-.46,0Z"/><path class="cls-7" d="M28.83,19.41A44.57,44.57,0,0,0,25.37,1.54l0-.45H5.17l0,.45A44.66,44.66,0,0,0,1.73,19.42h27.1Z"/><path class="cls-8" d="M1.73,19.38A44.73,44.73,0,0,0,5.2,37.24l0,.45H25.39l0-.45a44.65,44.65,0,0,0,3.46-17.88l-.46,0Z"/><path class="cls-9" d="M112.47,19.35A44.81,44.81,0,0,0,109,1.48L109,1H88.81l0,.45a44.69,44.69,0,0,0-3.47,17.88h27.11Z"/><path class="cls-10" d="M85.36,19.32a44.78,44.78,0,0,0,3.47,17.87l0,.45H109l0-.45a44.83,44.83,0,0,0,3.47-17.88H85.36Z"/></g></g></svg>