<svg xmlns="http://www.w3.org/2000/svg" viewBox="0 0 125.75 29.46"><defs><style>.cls-1{fill:#c9eaf5;}.cls-12,.cls-13,.cls-14,.cls-2{fill:none;}.cls-12,.cls-2{stroke:#000;stroke-linecap:round;stroke-linejoin:round;}.cls-2{stroke-width:0.72px;}.cls-3{fill:#962e20;}.cls-4{fill:#f3c19f;}.cls-5{fill:#a02621;}.cls-6{fill:#f9f9fa;}.cls-7{fill:#f7a39d;}.cls-8{fill:#070808;}.cls-9{fill:#020202;}.cls-10{fill:#f7cf62;}.cls-11{fill:#3a3535;}.cls-12{stroke-width:0.09px;}.cls-13,.cls-14{stroke:#231f20;}.cls-13{stroke-width:0.04px;}.cls-14{stroke-width:0.25px;}.cls-15{font-size:10px;fill:#231f20;font-family:KomikaText, Komika Text;}</style></defs><g id="Layer_2" data-name="Layer 2"><g id="main_menu" data-name="main menu"><g id="about_us" data-name="about us"><rect class="cls-1" x="0.36" y="0.36" width="125.04" height="28.75" rx="5.48"/><rect class="cls-2" x="0.36" y="0.36" width="125.04" height="28.75" rx="5.48"/><path class="cls-3" d="M26.5,11c-.15-1.19.26-1.93,0-2.82-.43-1.45-1.15-1.55-2-3.71-.17,1.48-.09,1.51-.16,2.38a4.67,4.67,0,0,0,1,2.72,7.61,7.61,0,0,0,.67.72,2.18,2.18,0,0,1,.46.7l.06.15h0A.59.59,0,0,0,26.5,11Zm.31-3.5a6.1,6.1,0,0,1,.34,2.07,25.8,25.8,0,0,1-.57,2.75,1.91,1.91,0,0,0,0,.89,2.67,2.67,0,0,0-1.37-.63l0-.16c.37.06.72,0,.81-.28a1.93,1.93,0,0,0-.3-1.32,5.57,5.57,0,0,1-1.86-2.91,7.08,7.08,0,0,1,.65-4.74h0a7.22,7.22,0,0,0,1.2,2.67A9.71,9.71,0,0,1,26.81,7.47Z"/><path class="cls-4" d="M26.87,14.36s0,.52,0,1.09h0a1.94,1.94,0,0,1-.43,1.2,4.26,4.26,0,0,0-.34.83,3.2,3.2,0,0,0,.18-1.11c-.06-.57-.55-.32-.84-.29a1.27,1.27,0,0,0,.36-.11,1.4,1.4,0,0,0,.76-1.11,1.56,1.56,0,0,0-.9-1.81,1.94,1.94,0,0,0-1.91.19,1.35,1.35,0,0,0-.41.6h0a1.36,1.36,0,0,0-.82-.82,1.94,1.94,0,0,0-1.91.18,1.19,1.19,0,0,0-.19.2l0,0a1,1,0,0,0,.17-.44h0a2.1,2.1,0,0,1,1.18-.48,2.68,2.68,0,0,1,1.56.44h.2a2.28,2.28,0,0,1,1.78-.34,2.67,2.67,0,0,1,1.37.63h0A11.86,11.86,0,0,1,26.87,14.36Z"/><path class="cls-5" d="M26.84,15.45h0a6.77,6.77,0,0,1-.14,1.25,5.74,5.74,0,0,0-.46,1.11,4.48,4.48,0,0,0,1,3.14,1.32,1.32,0,0,1-1.55.26,1.52,1.52,0,0,0,0-.21c-.24-.87-.24-1.15-1.29-1.68h0a4.92,4.92,0,0,0,.88-.36,3.29,3.29,0,0,0,.76-1.47,4.26,4.26,0,0,1,.34-.83A1.94,1.94,0,0,0,26.84,15.45Z"/><path class="cls-6" d="M25.41,16.08a2.47,2.47,0,0,1-.65.05,1.93,1.93,0,0,1-1.08-.37,1.24,1.24,0,0,1-.42-.59,1.5,1.5,0,0,1-.1-.43,2.15,2.15,0,0,1,.15-.9,1.35,1.35,0,0,1,.41-.6,1.94,1.94,0,0,1,1.91-.19,1.56,1.56,0,0,1,.9,1.81A1.4,1.4,0,0,1,25.77,16a1.27,1.27,0,0,1-.36.11Zm-1-1.42c0-.16-.1-.3-.23-.3s-.23.14-.23.3a.24.24,0,1,0,.46,0Z"/><path class="cls-7" d="M26.5,11a.59.59,0,0,1,0,.13h0L26.44,11a2.18,2.18,0,0,0-.46-.7,7.61,7.61,0,0,1-.67-.72,4.67,4.67,0,0,1-1-2.72c.07-.87,0-.9.16-2.38.88,2.16,1.6,2.26,2,3.71C26.76,9,26.35,9.78,26.5,11Z"/><path class="cls-3" d="M19.51,20.21l-.21.28-.22.31,0,.05a1.89,1.89,0,0,0-.27.6q0,.14-.09.3c-.05.19-.08.45-.14.7a2,2,0,0,1-.09.35,1.06,1.06,0,0,1-1.31.7.14.14,0,0,0,0-.09h0s0,0,0,0-.05-.07-.09-.08h0a.12.12,0,0,0,0-.1s0,0,0,0a.08.08,0,0,0,0-.07c0-.05,0-.16-.07-.14s-.08-.18-.13-.11-.1-.09-.14,0-.05-.19-.1-.13-.08-.13-.15-.09-.08-.15-.13-.12-.13-.15-.19-.11-.1-.08-.14-.05-.08-.15-.12-.1c0-.11-.11-.1-.18-.07l0,0c0-.06-.12-.1-.17,0s-.16-.05-.21,0-.09-.17-.13-.08c0-.11-.17-.1-.17,0s-.09-.07-.11,0c0-.1-.1-.06-.16-.09s-.09-.09-.17,0-.13-.05-.19,0a.09.09,0,0,0-.14,0,.11.11,0,0,0-.18,0c0-.08-.12,0-.18,0s-.12,0-.19,0-.15,0-.15,0-.18-.06-.14,0-.18,0-.19,0-.11,0-.14,0c0-.11-.14,0-.14,0s-.12,0-.09.07a2.89,2.89,0,0,1,.2-1.93,6,6,0,0,1,2.61-2.69,14.07,14.07,0,0,1,5.12-1.58h0a2.86,2.86,0,0,0,1.22.27,1.46,1.46,0,0,0,1.3-1h0a1.24,1.24,0,0,0,.42.59,1.93,1.93,0,0,0,1.08.37,2.47,2.47,0,0,0,.65-.05h0c.29,0,.78-.28.84.29a3.2,3.2,0,0,1-.18,1.11A3.29,3.29,0,0,1,25.31,19a4.92,4.92,0,0,1-.88.36,4.39,4.39,0,0,1-1,.17,12.86,12.86,0,0,0-4,.73Z"/><path class="cls-3" d="M25.26,12.39l0,.16a2.28,2.28,0,0,0-1.78.34h-.2a2.68,2.68,0,0,0-1.56-.44V12.2a.61.61,0,0,0,.39-.18,1.88,1.88,0,0,0,.33-.63,1,1,0,0,1,1.32-.74c.3.18.48.42.78,1.17.06.14.22.4.36.45A3,3,0,0,0,25.26,12.39Z"/><path class="cls-8" d="M24.2,14.36c.13,0,.23.14.23.3a.24.24,0,1,1-.46,0C24,14.5,24.07,14.36,24.2,14.36Z"/><path class="cls-6" d="M23.27,13.83h0a2.15,2.15,0,0,0-.15.9,1.5,1.5,0,0,0,.1.43h0a1.46,1.46,0,0,1-1.3,1,2.86,2.86,0,0,1-1.22-.27A1.35,1.35,0,0,1,20,14.69a2,2,0,0,1,.37-1.3,1.19,1.19,0,0,1,.19-.2A1.94,1.94,0,0,1,22.45,13,1.36,1.36,0,0,1,23.27,13.83Zm-2,.83c0-.16-.1-.3-.23-.3s-.23.14-.23.3a.24.24,0,1,0,.46,0Z"/><path class="cls-3" d="M21.68,12.2v.25a2.1,2.1,0,0,0-1.18.48h0a1.4,1.4,0,0,0-.09-.69,3,3,0,0,0-1.09-1.4s-.79-.86-.83-.93A7.41,7.41,0,0,1,17,6.68a10.64,10.64,0,0,1-.11-1.36,5,5,0,0,1,.4-1.85,7.36,7.36,0,0,1,2,2.23,6.16,6.16,0,0,1,.64,2.56v0a7.65,7.65,0,0,0,.72,3.06,2.57,2.57,0,0,0,.61.75A.8.8,0,0,0,21.68,12.2Zm-1.94-1.92a34.71,34.71,0,0,0-.68-3.58A5.23,5.23,0,0,0,17.6,4.57,5.88,5.88,0,0,0,19.74,10.28Z"/><path class="cls-9" d="M21,14.36c.13,0,.23.14.23.3a.24.24,0,1,1-.46,0C20.78,14.5,20.88,14.36,21,14.36Z"/><path class="cls-7" d="M19.06,6.7a34.71,34.71,0,0,1,.68,3.58A5.88,5.88,0,0,1,17.6,4.57,5.23,5.23,0,0,1,19.06,6.7Z"/><path class="cls-10" d="M19.48,21.74c-.18.09-.43,0-.66-.29h0a1.89,1.89,0,0,1,.27-.6h0A1.53,1.53,0,0,0,19.48,21.74Z"/><path class="cls-10" d="M19.3,20.49h0a.68.68,0,0,0,.17.56.56.56,0,0,1-.46-.2h0l0-.05Z"/><path class="cls-10" d="M19.73,22.53a1.4,1.4,0,0,1-1.15-.07h0c.06-.25.09-.51.14-.7s.06-.21.09-.3h0C19.06,22,19.16,22.31,19.73,22.53Z"/><path class="cls-11" d="M15,22s0,0,0,0A.06.06,0,0,0,15,22Zm2,1.21s0,0,0,0Zm-.23-.32,0,0S16.78,22.86,16.78,22.85Zm-3.61-.94v0Zm3.36.78h0Zm-.14-.1c.07,0,.19,0,.15.09s.14.07.1.13.12,0,.14,0,.17,0,.13.11,0,0,0,0l0,0c.05,0,.1.09.07.14s0,0-.06,0a.06.06,0,0,0,.06,0,.08.08,0,0,1,0,.07s0,0,0,0a.12.12,0,0,1,0,.1h0s0,0,0,0,.09.05.09.08,0,0,0,0a0,0,0,0,0-.08,0,.05.05,0,0,0,.08,0,.14.14,0,0,1,0,.09h0a.11.11,0,0,1-.12.08h-.1A2.08,2.08,0,0,1,16.22,25a2.7,2.7,0,0,1-3.13,0A1.82,1.82,0,0,1,13,22.31s-.24-.12-.25-.17,0-.07.05-.07h0c0-.07,0-.14.09-.07s.13-.16.14,0c0,0,.14-.09.14,0s.15-.09.19,0,.11-.06.14,0,.11-.07.15,0l-.05,0h.07l0,0c.07,0,.16-.07.19,0h0c.06,0,.19-.06.18,0a.11.11,0,0,1,.18,0,.09.09,0,0,1,.14,0c.06,0,.15-.05.19,0s.11,0,.17,0,.15,0,.16.09c0-.08.09-.06.11,0s.14-.1.17,0c0-.09.21.05.13.08s.21,0,.21,0,.13,0,.17,0l0,0c.07,0,.2,0,.18.07,0-.05.13.05.12.1s.11,0,.14.05,0,0,0,0l0,0h0c.06,0,.19.05.19.11S16.44,22.55,16.39,22.59Z"/><path class="cls-12" d="M26.07,17.48a4.26,4.26,0,0,1,.34-.83,1.94,1.94,0,0,0,.43-1.2"/><path class="cls-12" d="M17.27,3.47a7.36,7.36,0,0,1,2,2.23,6.16,6.16,0,0,1,.64,2.56v0a7.65,7.65,0,0,0,.72,3.06,2.57,2.57,0,0,0,.61.75.8.8,0,0,0,.49.11.61.61,0,0,0,.39-.18,1.88,1.88,0,0,0,.33-.63,1,1,0,0,1,1.32-.74c.3.18.48.42.78,1.17.06.14.22.4.36.45"/><path class="cls-12" d="M24.43,19.32c1.05.53,1.05.81,1.29,1.68a1.52,1.52,0,0,1,0,.21"/><path class="cls-12" d="M20.73,15.86a14.07,14.07,0,0,0-5.12,1.58A6,6,0,0,0,13,20.13a2.89,2.89,0,0,0-.2,1.93"/><path class="cls-12" d="M24.57,3.14a7.22,7.22,0,0,0,1.2,2.67,9.71,9.71,0,0,1,1,1.66,6.1,6.1,0,0,1,.34,2.07"/><path class="cls-12" d="M26.6,13.18a11.86,11.86,0,0,1,.27,1.18s0,.52,0,1.09a6.77,6.77,0,0,1-.14,1.25,5.74,5.74,0,0,0-.46,1.11,4.48,4.48,0,0,0,1,3.14"/><path class="cls-12" d="M27.15,9.54a25.8,25.8,0,0,1-.57,2.75,1.91,1.91,0,0,0,0,.89"/><path class="cls-12" d="M26.52,11.07V11h0"/><path class="cls-12" d="M17.6,4.57A5.23,5.23,0,0,1,19.06,6.7a34.71,34.71,0,0,1,.68,3.58"/><path class="cls-12" d="M17.6,4.57a5.88,5.88,0,0,0,2.14,5.71"/><path class="cls-12" d="M24.59,3.08l0,.06a7.08,7.08,0,0,0-.65,4.74,5.57,5.57,0,0,0,1.86,2.91,1.93,1.93,0,0,1,.3,1.32c-.09.27-.44.34-.81.28a3,3,0,0,1-.4-.12"/><path class="cls-12" d="M24.47,4.44c-.17,1.48-.09,1.51-.16,2.38a4.67,4.67,0,0,0,1,2.72,7.61,7.61,0,0,0,.67.72,2.18,2.18,0,0,1,.46.7l.06.15"/><path class="cls-12" d="M24.47,4.44c.88,2.16,1.6,2.26,2,3.71.26.89-.15,1.63,0,2.82a.59.59,0,0,1,0,.13"/><path class="cls-12" d="M20.51,12.93a2.1,2.1,0,0,1,1.18-.48,2.68,2.68,0,0,1,1.56.44"/><path class="cls-12" d="M13,22.31A1.82,1.82,0,0,0,13.09,25a2.7,2.7,0,0,0,3.13,0,2.08,2.08,0,0,0,.71-1.43v0"/><path class="cls-12" d="M17.12,23.41a.14.14,0,0,1,0,.09h0a.11.11,0,0,1-.12.08h0s0,0,0,0,0,0,0,0"/><path class="cls-12" d="M17,23.3s.09.05.09.08,0,0,0,0h0a.05.05,0,0,1-.08,0,0,0,0,0,1,.08,0"/><path class="cls-12" d="M17,23.17s0,0,0,0a.12.12,0,0,1,0,.1h0s0,0,0,0h0"/><path class="cls-12" d="M17,23.17l0,0S17,23.17,17,23.17Z"/><path class="cls-12" d="M17,23.17h0"/><path class="cls-12" d="M17,23.1a.08.08,0,0,1,0,.07"/><path class="cls-12" d="M17,23.1a.06.06,0,0,1-.06,0S17,23.09,17,23.1Z"/><path class="cls-12" d="M16.88,23s0,0,0,0,.1.09.07.14"/><path class="cls-12" d="M16.78,22.85c0-.07.17,0,.13.11l0,0h0"/><path class="cls-12" d="M16.78,22.85s0,0,0,0Z"/><line class="cls-12" x1="16.78" y1="22.85" x2="16.78" y2="22.85"/><path class="cls-12" d="M16.64,22.82h0s.12,0,.14,0"/><path class="cls-12" d="M16.54,22.68c.05-.06.14.07.1.13"/><path class="cls-12" d="M16.53,22.69h0"/><polyline class="cls-12" points="16.54 22.68 16.53 22.69 16.53 22.69"/><polyline class="cls-12" points="16.54 22.68 16.54 22.68 16.54 22.68"/><path class="cls-12" d="M16.39,22.6h0c.07,0,.19,0,.15.09"/><path class="cls-12" d="M16.07,22.36c.06,0,.19.05.19.11s.18.08.13.12"/><path class="cls-12" d="M16.07,22.36h0l0,0S16.06,22.37,16.07,22.36Z"/><path class="cls-12" d="M15,22c0-.09.14-.1.17,0,0-.09.21.05.13.08s.21,0,.21,0,.13,0,.17,0l0,0c.07,0,.2,0,.18.07,0-.05.13.05.12.1s.11,0,.14.05"/><path class="cls-12" d="M15,22a.06.06,0,0,1,0,0S15,22,15,22Z"/><line class="cls-12" x1="14.97" y1="21.96" x2="14.97" y2="21.96"/><path class="cls-12" d="M14.86,22h0c0-.08.09-.06.11,0"/><path class="cls-12" d="M13.84,21.79c.06,0,.19-.06.18,0a.11.11,0,0,1,.18,0,.09.09,0,0,1,.14,0c.06,0,.15-.05.19,0s.11,0,.17,0,.15,0,.16.09"/><path class="cls-12" d="M13.84,21.79h0Z"/><path class="cls-12" d="M13.6,21.84l.05,0c.07,0,.16-.07.19,0"/><path class="cls-12" d="M13.36,21.87h0c0-.08.11-.06.14,0s.11-.07.15,0l0,0H13.6"/><path class="cls-12" d="M13.17,21.91c0-.07.15-.09.19,0"/><path class="cls-12" d="M13.17,21.91v0Z"/><line class="cls-12" x1="13.17" y1="21.91" x2="13.17" y2="21.91"/><path class="cls-12" d="M13,22.31s-.24-.12-.25-.17,0-.07.05-.07h0c0-.07,0-.14.09-.07s.13-.16.14,0c0,0,.14-.09.14,0"/><path class="cls-12" d="M25.41,16.08a2.47,2.47,0,0,1-.65.05,1.93,1.93,0,0,1-1.08-.37,1.24,1.24,0,0,1-.42-.59,1.5,1.5,0,0,1-.1-.43,2.15,2.15,0,0,1,.15-.9,1.35,1.35,0,0,1,.41-.6,1.94,1.94,0,0,1,1.91-.19,1.56,1.56,0,0,1,.9,1.81A1.4,1.4,0,0,1,25.77,16a1.27,1.27,0,0,1-.36.11"/><path class="cls-12" d="M24,18.52a1.13,1.13,0,0,1-1.1.3,1,1,0,0,0-.34,0,8.06,8.06,0,0,0-2.1.71,2.48,2.48,0,0,0-.9.68l-.21.28-.22.31,0,.05a1.89,1.89,0,0,0-.27.6q0,.14-.09.3c-.05.19-.08.45-.14.7a2,2,0,0,1-.09.35,1.06,1.06,0,0,1-1.31.7l-.1,0"/><path class="cls-12" d="M18.58,22.46a1.4,1.4,0,0,0,1.15.07c-.57-.22-.67-.5-.91-1.08.23.27.48.38.66.29a1.53,1.53,0,0,1-.43-.88.56.56,0,0,0,.46.2.68.68,0,0,1-.17-.56"/><path class="cls-12" d="M24.43,14.66a.24.24,0,1,1-.46,0c0-.16.1-.3.23-.3S24.43,14.5,24.43,14.66Z"/><path class="cls-12" d="M21.24,14.66a.24.24,0,1,1-.46,0c0-.16.1-.3.23-.3S21.24,14.5,21.24,14.66Z"/><path class="cls-12" d="M23.25,15.17a1.46,1.46,0,0,1-1.3,1"/><path class="cls-12" d="M22,16.12a2.86,2.86,0,0,1-1.22-.27A1.35,1.35,0,0,1,20,14.69a2,2,0,0,1,.37-1.3,1.19,1.19,0,0,1,.19-.2A1.94,1.94,0,0,1,22.45,13a1.36,1.36,0,0,1,.82.82"/><path class="cls-12" d="M17.27,3.47a5,5,0,0,0-.4,1.85A10.64,10.64,0,0,0,17,6.68a7.41,7.41,0,0,0,1.51,3.23c0,.07.83.93.83.93a3,3,0,0,1,1.09,1.4,1.4,1.4,0,0,1,.09.69,1,1,0,0,1-.17.44"/><path class="cls-12" d="M25.35,16.09h.06c.29,0,.78-.28.84.29a3.2,3.2,0,0,1-.18,1.11A3.29,3.29,0,0,1,25.31,19a4.92,4.92,0,0,1-.88.36,4.39,4.39,0,0,1-1,.17,12.86,12.86,0,0,0-4,.73"/><path class="cls-12" d="M16.87,17.41a2,2,0,0,1,1.71.85"/><path class="cls-12" d="M14,19.5a2,2,0,0,1,1.71.84"/><path class="cls-12" d="M23.45,12.89a2.28,2.28,0,0,1,1.78-.34,2.67,2.67,0,0,1,1.37.63h0"/><path class="cls-13" d="M25.75,21.21A1.32,1.32,0,0,0,27.3,21"/><path class="cls-14" d="M26.5,11c-.15-1.19.26-1.93,0-2.82-.43-1.45-1.15-1.55-2-3.71-.17,1.48-.09,1.51-.16,2.38a4.67,4.67,0,0,0,1,2.72,7.61,7.61,0,0,0,.67.72,2.18,2.18,0,0,1,.46.7l.06.15h0A.59.59,0,0,0,26.5,11Zm.31-3.5a6.1,6.1,0,0,1,.34,2.07,25.8,25.8,0,0,1-.57,2.75,1.91,1.91,0,0,0,0,.89,2.67,2.67,0,0,0-1.37-.63l0-.16c.37.06.72,0,.81-.28a1.93,1.93,0,0,0-.3-1.32,5.57,5.57,0,0,1-1.86-2.91,7.08,7.08,0,0,1,.65-4.74h0a7.22,7.22,0,0,0,1.2,2.67A9.71,9.71,0,0,1,26.81,7.47Z"/><path class="cls-14" d="M26.87,14.36s0,.52,0,1.09h0a1.94,1.94,0,0,1-.43,1.2,4.26,4.26,0,0,0-.34.83,3.2,3.2,0,0,0,.18-1.11c-.06-.57-.55-.32-.84-.29a1.27,1.27,0,0,0,.36-.11,1.4,1.4,0,0,0,.76-1.11,1.56,1.56,0,0,0-.9-1.81,1.94,1.94,0,0,0-1.91.19,1.35,1.35,0,0,0-.41.6h0a1.36,1.36,0,0,0-.82-.82,1.94,1.94,0,0,0-1.91.18,1.19,1.19,0,0,0-.19.2l0,0a1,1,0,0,0,.17-.44h0a2.1,2.1,0,0,1,1.18-.48,2.68,2.68,0,0,1,1.56.44h.2a2.28,2.28,0,0,1,1.78-.34,2.67,2.67,0,0,1,1.37.63h0A11.86,11.86,0,0,1,26.87,14.36Z"/><path class="cls-14" d="M26.84,15.45h0a6.77,6.77,0,0,1-.14,1.25,5.74,5.74,0,0,0-.46,1.11,4.48,4.48,0,0,0,1,3.14,1.32,1.32,0,0,1-1.55.26,1.52,1.52,0,0,0,0-.21c-.24-.87-.24-1.15-1.29-1.68h0a4.92,4.92,0,0,0,.88-.36,3.29,3.29,0,0,0,.76-1.47,4.26,4.26,0,0,1,.34-.83A1.94,1.94,0,0,0,26.84,15.45Z"/><path class="cls-14" d="M25.41,16.08a2.47,2.47,0,0,1-.65.05,1.93,1.93,0,0,1-1.08-.37,1.24,1.24,0,0,1-.42-.59,1.5,1.5,0,0,1-.1-.43,2.15,2.15,0,0,1,.15-.9,1.35,1.35,0,0,1,.41-.6,1.94,1.94,0,0,1,1.91-.19,1.56,1.56,0,0,1,.9,1.81A1.4,1.4,0,0,1,25.77,16a1.27,1.27,0,0,1-.36.11Zm-1-1.42c0-.16-.1-.3-.23-.3s-.23.14-.23.3a.24.24,0,1,0,.46,0Z"/><path class="cls-14" d="M26.5,11a.59.59,0,0,1,0,.13h0L26.44,11a2.18,2.18,0,0,0-.46-.7,7.61,7.61,0,0,1-.67-.72,4.67,4.67,0,0,1-1-2.72c.07-.87,0-.9.16-2.38.88,2.16,1.6,2.26,2,3.71C26.76,9,26.35,9.78,26.5,11Z"/><path class="cls-14" d="M19.51,20.21l-.21.28-.22.31,0,.05a1.89,1.89,0,0,0-.27.6q0,.14-.09.3c-.05.19-.08.45-.14.7a2,2,0,0,1-.09.35,1.06,1.06,0,0,1-1.31.7.14.14,0,0,0,0-.09h0s0,0,0,0-.05-.07-.09-.08h0a.12.12,0,0,0,0-.1s0,0,0,0a.08.08,0,0,0,0-.07c0-.05,0-.16-.07-.14s-.08-.18-.13-.11-.1-.09-.14,0-.05-.19-.1-.13-.08-.13-.15-.09-.08-.15-.13-.12-.13-.15-.19-.11-.1-.08-.14-.05-.08-.15-.12-.1c0-.11-.11-.1-.18-.07l0,0c0-.06-.12-.1-.17,0s-.16-.05-.21,0-.09-.17-.13-.08c0-.11-.17-.1-.17,0s-.09-.07-.11,0c0-.1-.1-.06-.16-.09s-.09-.09-.17,0-.13-.05-.19,0a.09.09,0,0,0-.14,0,.11.11,0,0,0-.18,0c0-.08-.12,0-.18,0s-.12,0-.19,0-.15,0-.15,0-.18-.06-.14,0-.18,0-.19,0-.11,0-.14,0c0-.11-.14,0-.14,0s-.12,0-.09.07a2.89,2.89,0,0,1,.2-1.93,6,6,0,0,1,2.61-2.69,14.07,14.07,0,0,1,5.12-1.58h0a2.86,2.86,0,0,0,1.22.27,1.46,1.46,0,0,0,1.3-1h0a1.24,1.24,0,0,0,.42.59,1.93,1.93,0,0,0,1.08.37,2.47,2.47,0,0,0,.65-.05h0c.29,0,.78-.28.84.29a3.2,3.2,0,0,1-.18,1.11A3.29,3.29,0,0,1,25.31,19a4.92,4.92,0,0,1-.88.36,4.39,4.39,0,0,1-1,.17,12.86,12.86,0,0,0-4,.73Z"/><path class="cls-14" d="M25.26,12.39l0,.16a2.28,2.28,0,0,0-1.78.34h-.2a2.68,2.68,0,0,0-1.56-.44V12.2a.61.61,0,0,0,.39-.18,1.88,1.88,0,0,0,.33-.63,1,1,0,0,1,1.32-.74c.3.18.48.42.78,1.17.06.14.22.4.36.45A3,3,0,0,0,25.26,12.39Z"/><path class="cls-14" d="M24.2,14.36c.13,0,.23.14.23.3a.24.24,0,1,1-.46,0C24,14.5,24.07,14.36,24.2,14.36Z"/><path class="cls-14" d="M23.27,13.83h0a2.15,2.15,0,0,0-.15.9,1.5,1.5,0,0,0,.1.43h0a1.46,1.46,0,0,1-1.3,1,2.86,2.86,0,0,1-1.22-.27A1.35,1.35,0,0,1,20,14.69a2,2,0,0,1,.37-1.3,1.19,1.19,0,0,1,.19-.2A1.94,1.94,0,0,1,22.45,13,1.36,1.36,0,0,1,23.27,13.83Zm-2,.83c0-.16-.1-.3-.23-.3s-.23.14-.23.3a.24.24,0,1,0,.46,0Z"/><path class="cls-14" d="M21.68,12.2v.25a2.1,2.1,0,0,0-1.18.48h0a1.4,1.4,0,0,0-.09-.69,3,3,0,0,0-1.09-1.4s-.79-.86-.83-.93A7.41,7.41,0,0,1,17,6.68a10.64,10.64,0,0,1-.11-1.36,5,5,0,0,1,.4-1.85,7.36,7.36,0,0,1,2,2.23,6.16,6.16,0,0,1,.64,2.56v0a7.65,7.65,0,0,0,.72,3.06,2.57,2.57,0,0,0,.61.75A.8.8,0,0,0,21.68,12.2Zm-1.94-1.92a34.71,34.71,0,0,0-.68-3.58A5.23,5.23,0,0,0,17.6,4.57,5.88,5.88,0,0,0,19.74,10.28Z"/><path class="cls-14" d="M21,14.36c.13,0,.23.14.23.3a.24.24,0,1,1-.46,0C20.78,14.5,20.88,14.36,21,14.36Z"/><path class="cls-14" d="M19.06,6.7a34.71,34.71,0,0,1,.68,3.58A5.88,5.88,0,0,1,17.6,4.57,5.23,5.23,0,0,1,19.06,6.7Z"/><path class="cls-14" d="M19.48,21.74c-.18.09-.43,0-.66-.29h0a1.89,1.89,0,0,1,.27-.6h0A1.53,1.53,0,0,0,19.48,21.74Z"/><path class="cls-14" d="M19.3,20.49h0a.68.68,0,0,0,.17.56.56.56,0,0,1-.46-.2h0l0-.05Z"/><path class="cls-14" d="M19.73,22.53a1.4,1.4,0,0,1-1.15-.07h0c.06-.25.09-.51.14-.7s.06-.21.09-.3h0C19.06,22,19.16,22.31,19.73,22.53Z"/><path class="cls-14" d="M15,22s0,0,0,0A.06.06,0,0,0,15,22Zm2,1.21s0,0,0,0Zm-.23-.32,0,0S16.78,22.86,16.78,22.85Zm-3.61-.94v0Zm3.36.78h0Zm-.14-.1c.07,0,.19,0,.15.09s.14.07.1.13.12,0,.14,0,.17,0,.13.11,0,0,0,0l0,0c.05,0,.1.09.07.14s0,0-.06,0a.06.06,0,0,0,.06,0,.08.08,0,0,1,0,.07s0,0,0,0a.12.12,0,0,1,0,.1h0s0,0,0,0,.09.05.09.08,0,0,0,0a0,0,0,0,0-.08,0,.05.05,0,0,0,.08,0,.14.14,0,0,1,0,.09h0a.11.11,0,0,1-.12.08h-.1A2.08,2.08,0,0,1,16.22,25a2.7,2.7,0,0,1-3.13,0A1.82,1.82,0,0,1,13,22.31s-.24-.12-.25-.17,0-.07.05-.07h0c0-.07,0-.14.09-.07s.13-.16.14,0c0,0,.14-.09.14,0s.15-.09.19,0,.11-.06.14,0,.11-.07.15,0l-.05,0h.07l0,0c.07,0,.16-.07.19,0h0c.06,0,.19-.06.18,0a.11.11,0,0,1,.18,0,.09.09,0,0,1,.14,0c.06,0,.15-.05.19,0s.11,0,.17,0,.15,0,.16.09c0-.08.09-.06.11,0s.14-.1.17,0c0-.09.21.05.13.08s.21,0,.21,0,.13,0,.17,0l0,0c.07,0,.2,0,.18.07,0-.05.13.05.12.1s.11,0,.14.05,0,0,0,0l0,0h0c.06,0,.19.05.19.11S16.44,22.55,16.39,22.59Z"/><path class="cls-14" d="M26.07,17.48a4.26,4.26,0,0,1,.34-.83,1.94,1.94,0,0,0,.43-1.2"/><path class="cls-14" d="M17.27,3.47a7.36,7.36,0,0,1,2,2.23,6.16,6.16,0,0,1,.64,2.56v0a7.65,7.65,0,0,0,.72,3.06,2.57,2.57,0,0,0,.61.75.8.8,0,0,0,.49.11.61.61,0,0,0,.39-.18,1.88,1.88,0,0,0,.33-.63,1,1,0,0,1,1.32-.74c.3.18.48.42.78,1.17.06.14.22.4.36.45"/><path class="cls-14" d="M24.43,19.32c1.05.53,1.05.81,1.29,1.68a1.52,1.52,0,0,1,0,.21"/><path class="cls-14" d="M20.73,15.86a14.07,14.07,0,0,0-5.12,1.58A6,6,0,0,0,13,20.13a2.89,2.89,0,0,0-.2,1.93"/><path class="cls-14" d="M24.57,3.14a7.22,7.22,0,0,0,1.2,2.67,9.71,9.71,0,0,1,1,1.66,6.1,6.1,0,0,1,.34,2.07"/><path class="cls-14" d="M26.6,13.18a11.86,11.86,0,0,1,.27,1.18s0,.52,0,1.09a6.77,6.77,0,0,1-.14,1.25,5.74,5.74,0,0,0-.46,1.11,4.48,4.48,0,0,0,1,3.14"/><path class="cls-14" d="M27.15,9.54a25.8,25.8,0,0,1-.57,2.75,1.91,1.91,0,0,0,0,.89"/><path class="cls-14" d="M26.52,11.07V11h0"/><path class="cls-14" d="M17.6,4.57A5.23,5.23,0,0,1,19.06,6.7a34.71,34.71,0,0,1,.68,3.58"/><path class="cls-14" d="M17.6,4.57a5.88,5.88,0,0,0,2.14,5.71"/><path class="cls-14" d="M24.59,3.08l0,.06a7.08,7.08,0,0,0-.65,4.74,5.57,5.57,0,0,0,1.86,2.91,1.93,1.93,0,0,1,.3,1.32c-.09.27-.44.34-.81.28a3,3,0,0,1-.4-.12"/><path class="cls-14" d="M24.47,4.44c-.17,1.48-.09,1.51-.16,2.38a4.67,4.67,0,0,0,1,2.72,7.61,7.61,0,0,0,.67.72,2.18,2.18,0,0,1,.46.7l.06.15"/><path class="cls-14" d="M24.47,4.44c.88,2.16,1.6,2.26,2,3.71.26.89-.15,1.63,0,2.82a.59.59,0,0,1,0,.13"/><path class="cls-14" d="M20.51,12.93a2.1,2.1,0,0,1,1.18-.48,2.68,2.68,0,0,1,1.56.44"/><path class="cls-14" d="M13,22.31A1.82,1.82,0,0,0,13.09,25a2.7,2.7,0,0,0,3.13,0,2.08,2.08,0,0,0,.71-1.43v0"/><path class="cls-14" d="M17.12,23.41a.14.14,0,0,1,0,.09h0a.11.11,0,0,1-.12.08h0s0,0,0,0,0,0,0,0"/><path class="cls-14" d="M17,23.3s.09.05.09.08,0,0,0,0h0a.05.05,0,0,1-.08,0,0,0,0,0,1,.08,0"/><path class="cls-14" d="M17,23.17s0,0,0,0a.12.12,0,0,1,0,.1h0s0,0,0,0h0"/><path class="cls-14" d="M17,23.17l0,0S17,23.17,17,23.17Z"/><path class="cls-14" d="M17,23.17h0"/><path class="cls-14" d="M17,23.1a.08.08,0,0,1,0,.07"/><path class="cls-14" d="M17,23.1a.06.06,0,0,1-.06,0S17,23.09,17,23.1Z"/><path class="cls-14" d="M16.88,23s0,0,0,0,.1.09.07.14"/><path class="cls-14" d="M16.78,22.85c0-.07.17,0,.13.11l0,0h0"/><path class="cls-14" d="M16.78,22.85s0,0,0,0Z"/><line class="cls-14" x1="16.78" y1="22.85" x2="16.78" y2="22.85"/><path class="cls-14" d="M16.64,22.82h0s.12,0,.14,0"/><path class="cls-14" d="M16.54,22.68c.05-.06.14.07.1.13"/><path class="cls-14" d="M16.53,22.69h0"/><polyline class="cls-14" points="16.54 22.68 16.53 22.69 16.53 22.69"/><polyline class="cls-14" points="16.54 22.68 16.54 22.68 16.54 22.68"/><path class="cls-14" d="M16.39,22.6h0c.07,0,.19,0,.15.09"/><path class="cls-14" d="M16.07,22.36c.06,0,.19.05.19.11s.18.08.13.12"/><path class="cls-14" d="M16.07,22.36h0l0,0S16.06,22.37,16.07,22.36Z"/><path class="cls-14" d="M15,22c0-.09.14-.1.17,0,0-.09.21.05.13.08s.21,0,.21,0,.13,0,.17,0l0,0c.07,0,.2,0,.18.07,0-.05.13.05.12.1s.11,0,.14.05"/><path class="cls-14" d="M15,22a.06.06,0,0,1,0,0S15,22,15,22Z"/><line class="cls-14" x1="14.97" y1="21.96" x2="14.97" y2="21.96"/><path class="cls-14" d="M14.86,22h0c0-.08.09-.06.11,0"/><path class="cls-14" d="M13.84,21.79c.06,0,.19-.06.18,0a.11.11,0,0,1,.18,0,.09.09,0,0,1,.14,0c.06,0,.15-.05.19,0s.11,0,.17,0,.15,0,.16.09"/><path class="cls-14" d="M13.84,21.79h0Z"/><path class="cls-14" d="M13.6,21.84l.05,0c.07,0,.16-.07.19,0"/><path class="cls-14" d="M13.36,21.87h0c0-.08.11-.06.14,0s.11-.07.15,0l0,0H13.6"/><path class="cls-14" d="M13.17,21.91c0-.07.15-.09.19,0"/><path class="cls-14" d="M13.17,21.91v0Z"/><line class="cls-14" x1="13.17" y1="21.91" x2="13.17" y2="21.91"/><path class="cls-14" d="M13,22.31s-.24-.12-.25-.17,0-.07.05-.07h0c0-.07,0-.14.09-.07s.13-.16.14,0c0,0,.14-.09.14,0"/><path class="cls-14" d="M25.41,16.08a2.47,2.47,0,0,1-.65.05,1.93,1.93,0,0,1-1.08-.37,1.24,1.24,0,0,1-.42-.59,1.5,1.5,0,0,1-.1-.43,2.15,2.15,0,0,1,.15-.9,1.35,1.35,0,0,1,.41-.6,1.94,1.94,0,0,1,1.91-.19,1.56,1.56,0,0,1,.9,1.81A1.4,1.4,0,0,1,25.77,16a1.27,1.27,0,0,1-.36.11"/><path class="cls-14" d="M24,18.52a1.13,1.13,0,0,1-1.1.3,1,1,0,0,0-.34,0,8.06,8.06,0,0,0-2.1.71,2.48,2.48,0,0,0-.9.68l-.21.28-.22.31,0,.05a1.89,1.89,0,0,0-.27.6q0,.14-.09.3c-.05.19-.08.45-.14.7a2,2,0,0,1-.09.35,1.06,1.06,0,0,1-1.31.7l-.1,0"/><path class="cls-14" d="M18.58,22.46a1.4,1.4,0,0,0,1.15.07c-.57-.22-.67-.5-.91-1.08.23.27.48.38.66.29a1.53,1.53,0,0,1-.43-.88.56.56,0,0,0,.46.2.68.68,0,0,1-.17-.56"/><path class="cls-14" d="M24.43,14.66a.24.24,0,1,1-.46,0c0-.16.1-.3.23-.3S24.43,14.5,24.43,14.66Z"/><path class="cls-14" d="M21.24,14.66a.24.24,0,1,1-.46,0c0-.16.1-.3.23-.3S21.24,14.5,21.24,14.66Z"/><path class="cls-14" d="M23.25,15.17a1.46,1.46,0,0,1-1.3,1"/><path class="cls-14" d="M22,16.12a2.86,2.86,0,0,1-1.22-.27A1.35,1.35,0,0,1,20,14.69a2,2,0,0,1,.37-1.3,1.19,1.19,0,0,1,.19-.2A1.94,1.94,0,0,1,22.45,13a1.36,1.36,0,0,1,.82.82"/><path class="cls-14" d="M17.27,3.47a5,5,0,0,0-.4,1.85A10.64,10.64,0,0,0,17,6.68a7.41,7.41,0,0,0,1.51,3.23c0,.07.83.93.83.93a3,3,0,0,1,1.09,1.4,1.4,1.4,0,0,1,.09.69,1,1,0,0,1-.17.44"/><path class="cls-14" d="M25.35,16.09h.06c.29,0,.78-.28.84.29a3.2,3.2,0,0,1-.18,1.11A3.29,3.29,0,0,1,25.31,19a4.92,4.92,0,0,1-.88.36,4.39,4.39,0,0,1-1,.17,12.86,12.86,0,0,0-4,.73"/><path class="cls-14" d="M16.87,17.41a2,2,0,0,1,1.71.85"/><path class="cls-14" d="M14,19.5a2,2,0,0,1,1.71.84"/><path class="cls-14" d="M23.45,12.89a2.28,2.28,0,0,1,1.78-.34,2.67,2.67,0,0,1,1.37.63h0"/><path class="cls-14" d="M25.75,21.21A1.32,1.32,0,0,0,27.3,21"/><text class="cls-15" transform="translate(61.42 16.79)">About Us</text></g></g></g></svg>