<svg xmlns="http://www.w3.org/2000/svg" viewBox="0 0 125.06 26.66"><defs><style>.cls-1{fill:#c9eaf5;}.cls-2,.cls-5,.cls-6,.cls-7{fill:none;}.cls-2{stroke:#000;stroke-width:0.5px;}.cls-2,.cls-5,.cls-6{stroke-linecap:round;}.cls-2,.cls-6{stroke-linejoin:round;}.cls-3{fill:#b3b3b7;}.cls-4{fill:#4d4e51;}.cls-5,.cls-6,.cls-7{stroke:#231f20;}.cls-5{stroke-miterlimit:10;}.cls-5,.cls-6{stroke-width:0.14px;}.cls-7{stroke-width:0.75px;}</style></defs><g id="Layer_2" data-name="Layer 2"><g id="main_menu" data-name="main menu"><g id="hen_battery" data-name="hen battery"><rect class="cls-1" x="0.25" y="0.25" width="124.56" height="26.16" rx="5.47"/><rect class="cls-2" x="0.25" y="0.25" width="124.56" height="26.16" rx="5.47"/><path class="cls-3" d="M8.52,7.74l-.47,0a.61.61,0,0,1-.27-.34,7.63,7.63,0,0,1,0-1.52c0-.16.12-.25.4-.25s1.39-.87,2-1c2.54-.41,2.81.81,4.69,1,1.47.12,2.17-1,3.57-.89s2,1.12,3.62,1.06C24,5.7,24.86,4.49,26.64,4.49c1,0,2.61,1.32,3.73,1.25.87-.06,2.06-1.19,3.21-1.19a5.15,5.15,0,0,1,2.66,1.12c.45.08.5,0,.52.46s-.06.87-.07,1.3c0,.09-.12.28-.27.28h-.25c-.9,0-2.67,0-2.89,0-.48,0-12.4-.07-13.68,0C18.6,7.88,10.6,7.81,8.52,7.74Z"/><path class="cls-3" d="M35,19.51h0c-.88-.12-1.73.17-2.64,0s-6.84,0-7.48,0c-.87,0-1.37,0-1.55,0h-.87c-.87,0-1.74,0-2.61,0-.64,0-6.51-.2-7.48,0s-1.76-.14-2.64,0h0A2.73,2.73,0,0,0,9.14,21c.06.44-.62.44-.55-.18,0-.24.18-.45.24-.72S8.53,8.48,8.52,7.74c2.08.07,10.08.14,11.08,0,1.28-.11,13.2,0,13.68,0,.22,0,2,0,2.89,0h0c0,.38-.38,12-.3,12.39s.2.48.23.72c.07.62-.61.62-.55.18A2.73,2.73,0,0,0,35,19.51Zm-1.33-9.35c0-.38,0-1.35-.09-1.37-.38-.08-2.1-.06-2.6-.06h-1.5c-.68,0-5.18,0-5.18,0l0,.28c0,.08,0,.85,0,1.15a17.06,17.06,0,0,0,.1,2.83c.23,0,1.91,0,2.51,0s1,0,1.57,0c.69,0,1.42.07,2.11,0,.42,0,.85,0,1.29,0s.87,0,1.3,0h.49c0-.11,0-1.14,0-1.63S33.65,10.56,33.65,10.16Zm0,5.42c0-.39,0-1.35-.1-1.37a23.73,23.73,0,0,0-2.57-.06h-1.5c-.67,0-5.15,0-5.15,0l0,.28c0,.08,0,.85,0,1.15a17.06,17.06,0,0,0,.1,2.83c.23,0,1.9,0,2.49,0s1,0,1.56,0c.69,0,1.42.07,2.11,0,.42,0,.85,0,1.28,0s.86,0,1.3,0h.48c0-.12.05-1.14,0-1.63S33.6,16,33.6,15.58Zm-12.32.07c0-.39,0-1.35-.1-1.37-.41-.09-2.27-.06-2.81-.06H16.73c-.73,0-5.61,0-5.61,0l0,.28c0,.08,0,.85-.05,1.15a16,16,0,0,0,.11,2.83c.25,0,2.07,0,2.72,0s1.13,0,1.7,0c.75,0,1.54.07,2.29,0,.46,0,.93,0,1.4,0s.94,0,1.42,0h.53c0-.12,0-1.14,0-1.63S21.28,16,21.28,15.65ZM21.19,10c0-.39,0-1.35-.1-1.37-.4-.08-2.25-.06-2.79-.06H16.68c-.72,0-5.57,0-5.57,0l0,.28c0,.08,0,.85-.05,1.15a16,16,0,0,0,.11,2.83c.24,0,2,0,2.69,0s1.13,0,1.69,0c.75,0,1.53.07,2.27,0,.46,0,.92,0,1.39,0s.93,0,1.4,0h.53c0-.11,0-1.14,0-1.63S21.19,10.41,21.19,10Z"/><path class="cls-4" d="M33.56,8.79c.11,0,.09,1,.09,1.37s-.07.74-.06,1.19,0,1.52,0,1.63h-.49c-.43,0-.87,0-1.3,0s-.87,0-1.29,0c-.69.05-1.42,0-2.11,0-.53,0-.92,0-1.57,0s-2.28.06-2.51,0a17.06,17.06,0,0,1-.1-2.83c0-.3,0-1.07,0-1.15l0-.28s4.5,0,5.18,0H31C31.46,8.73,33.18,8.71,33.56,8.79Z"/><path class="cls-4" d="M33.5,14.21c.12,0,.1,1,.1,1.37s-.07.73-.06,1.19,0,1.51,0,1.63H33c-.44,0-.87,0-1.3,0s-.86,0-1.28,0c-.69.06-1.42,0-2.11,0-.52,0-.9,0-1.56,0s-2.26.06-2.49,0a17.06,17.06,0,0,1-.1-2.83c0-.3,0-1.07,0-1.15l0-.28s4.48,0,5.15,0h1.5A23.73,23.73,0,0,1,33.5,14.21Z"/><path class="cls-4" d="M21.18,14.28c.12,0,.1,1,.1,1.37s-.08.73-.06,1.19,0,1.51,0,1.63h-.53c-.48,0-.95,0-1.42,0s-.94,0-1.4,0c-.75.06-1.54,0-2.29,0-.57,0-1,0-1.7,0s-2.47.07-2.72,0A16,16,0,0,1,11,15.7c0-.3,0-1.07.05-1.15l0-.28s4.88,0,5.61,0h1.64C18.91,14.22,20.77,14.19,21.18,14.28Z"/><path class="cls-4" d="M21.09,8.65c.12,0,.11,1,.1,1.37s-.07.74-.06,1.19,0,1.52,0,1.63h-.53c-.47,0-.94,0-1.4,0s-.93,0-1.39,0c-.74,0-1.52,0-2.27,0-.56,0-1,0-1.69,0s-2.45.06-2.69,0A16,16,0,0,1,11,10.07c0-.3,0-1.07.05-1.15l0-.28s4.85-.05,5.57,0H18.3C18.84,8.59,20.69,8.57,21.09,8.65Z"/><path class="cls-5" d="M36.17,7.71h.25c.15,0,.27-.19.27-.28,0-.43.09-.89.07-1.3s-.07-.38-.52-.46a5.15,5.15,0,0,0-2.66-1.12c-1.15,0-2.34,1.13-3.21,1.19-1.12.07-2.74-1.25-3.73-1.25-1.78,0-2.62,1.21-4.57,1.28-1.62.06-2.1-1-3.62-1.06s-2.1,1-3.57.89c-1.88-.16-2.15-1.38-4.69-1-.6.1-1.69,1-2,1s-.38.09-.4.25a7.63,7.63,0,0,0,0,1.52.61.61,0,0,0,.27.34l.47,0c2.08.07,10.08.14,11.08,0,1.28-.11,13.2,0,13.68,0C33.5,7.75,35.27,7.71,36.17,7.71Z"/><path class="cls-5" d="M16.68,8.6H18.3c.54,0,2.39,0,2.79.06.12,0,.11,1,.1,1.37s-.07.74-.06,1.19,0,1.52,0,1.63h-.53c-.47,0-.94,0-1.4,0s-.93,0-1.39,0c-.74,0-1.52,0-2.27,0-.56,0-1,0-1.69,0s-2.45.06-2.69,0A16,16,0,0,1,11,10.07c0-.3,0-1.07.05-1.15l0-.28S16,8.59,16.68,8.6Z"/><path class="cls-5" d="M16.73,14.23h1.64c.54,0,2.4,0,2.81.06.12,0,.1,1,.1,1.37s-.08.73-.06,1.19,0,1.51,0,1.63h-.53c-.48,0-.95,0-1.42,0s-.94,0-1.4,0c-.75.06-1.54,0-2.29,0-.57,0-1,0-1.7,0s-2.47.07-2.72,0A16,16,0,0,1,11,15.7c0-.3,0-1.07.05-1.15l0-.28S16,14.22,16.73,14.23Z"/><path class="cls-5" d="M29.43,14.16h1.5a23.73,23.73,0,0,1,2.57.06c.12,0,.1,1,.1,1.37s-.07.73-.06,1.19,0,1.51,0,1.63H33c-.44,0-.87,0-1.3,0s-.86,0-1.28,0c-.69.06-1.42,0-2.11,0-.52,0-.9,0-1.56,0s-2.26.06-2.49,0a17.06,17.06,0,0,1-.1-2.83c0-.3,0-1.07,0-1.15l0-.28S28.76,14.15,29.43,14.16Z"/><path class="cls-5" d="M29.46,8.74H31c.5,0,2.22,0,2.6.06.11,0,.09,1,.09,1.37s-.07.74-.06,1.19,0,1.52,0,1.63h-.49c-.43,0-.87,0-1.3,0s-.87,0-1.29,0c-.69.05-1.42,0-2.11,0-.53,0-.92,0-1.57,0s-2.28.06-2.51,0a17.06,17.06,0,0,1-.1-2.83c0-.3,0-1.07,0-1.15l0-.28S28.78,8.73,29.46,8.74Z"/><path class="cls-6" d="M35,19.51h0A2.73,2.73,0,0,1,35.55,21c-.06.44.62.44.55-.18,0-.24-.18-.45-.23-.72s.3-12,.3-12.39"/><path class="cls-6" d="M9.71,19.51h0c.88-.12,1.73.17,2.64,0s6.84,0,7.48,0c.87,0,1.74,0,2.61,0h.87c.18,0,.68,0,1.55,0,.64,0,6.5-.2,7.48,0s1.76-.14,2.64,0h0"/><path class="cls-6" d="M8.52,7.71v0c0,.74.38,12,.31,12.36s-.21.48-.24.72c-.07.62.61.62.55.18a2.73,2.73,0,0,1,.57-1.49h0"/><path class="cls-7" d="M8.52,7.74l-.47,0a.61.61,0,0,1-.27-.34,7.63,7.63,0,0,1,0-1.52c0-.16.12-.25.4-.25s1.39-.87,2-1c2.54-.41,2.81.81,4.69,1,1.47.12,2.17-1,3.57-.89s2,1.12,3.62,1.06C24,5.7,24.86,4.49,26.64,4.49c1,0,2.61,1.32,3.73,1.25.87-.06,2.06-1.19,3.21-1.19a5.15,5.15,0,0,1,2.66,1.12c.45.08.5,0,.52.46s-.06.87-.07,1.3c0,.09-.12.28-.27.28h-.25c-.9,0-2.67,0-2.89,0-.48,0-12.4-.07-13.68,0C18.6,7.88,10.6,7.81,8.52,7.74Z"/><path class="cls-7" d="M35,19.51h0c-.88-.12-1.73.17-2.64,0s-6.84,0-7.48,0c-.87,0-1.37,0-1.55,0h-.87c-.87,0-1.74,0-2.61,0-.64,0-6.51-.2-7.48,0s-1.76-.14-2.64,0h0A2.73,2.73,0,0,0,9.14,21c.06.44-.62.44-.55-.18,0-.24.18-.45.24-.72S8.53,8.48,8.52,7.74c2.08.07,10.08.14,11.08,0,1.28-.11,13.2,0,13.68,0,.22,0,2,0,2.89,0h0c0,.38-.38,12-.3,12.39s.2.48.23.72c.07.62-.61.62-.55.18A2.73,2.73,0,0,0,35,19.51Zm-1.33-9.35c0-.38,0-1.35-.09-1.37-.38-.08-2.1-.06-2.6-.06h-1.5c-.68,0-5.18,0-5.18,0l0,.28c0,.08,0,.85,0,1.15a17.06,17.06,0,0,0,.1,2.83c.23,0,1.91,0,2.51,0s1,0,1.57,0c.69,0,1.42.07,2.11,0,.42,0,.85,0,1.29,0s.87,0,1.3,0h.49c0-.11,0-1.14,0-1.63S33.65,10.56,33.65,10.16Zm0,5.42c0-.39,0-1.35-.1-1.37a23.73,23.73,0,0,0-2.57-.06h-1.5c-.67,0-5.15,0-5.15,0l0,.28c0,.08,0,.85,0,1.15a17.06,17.06,0,0,0,.1,2.83c.23,0,1.9,0,2.49,0s1,0,1.56,0c.69,0,1.42.07,2.11,0,.42,0,.85,0,1.28,0s.86,0,1.3,0h.48c0-.12.05-1.14,0-1.63S33.6,16,33.6,15.58Zm-12.32.07c0-.39,0-1.35-.1-1.37-.41-.09-2.27-.06-2.81-.06H16.73c-.73,0-5.61,0-5.61,0l0,.28c0,.08,0,.85-.05,1.15a16,16,0,0,0,.11,2.83c.25,0,2.07,0,2.72,0s1.13,0,1.7,0c.75,0,1.54.07,2.29,0,.46,0,.93,0,1.4,0s.94,0,1.42,0h.53c0-.12,0-1.14,0-1.63S21.28,16,21.28,15.65ZM21.19,10c0-.39,0-1.35-.1-1.37-.4-.08-2.25-.06-2.79-.06H16.68c-.72,0-5.57,0-5.57,0l0,.28c0,.08,0,.85-.05,1.15a16,16,0,0,0,.11,2.83c.24,0,2,0,2.69,0s1.13,0,1.69,0c.75,0,1.53.07,2.27,0,.46,0,.92,0,1.39,0s.93,0,1.4,0h.53c0-.11,0-1.14,0-1.63S21.19,10.41,21.19,10Z"/><path class="cls-7" d="M33.56,8.79c.11,0,.09,1,.09,1.37s-.07.74-.06,1.19,0,1.52,0,1.63h-.49c-.43,0-.87,0-1.3,0s-.87,0-1.29,0c-.69.05-1.42,0-2.11,0-.53,0-.92,0-1.57,0s-2.28.06-2.51,0a17.06,17.06,0,0,1-.1-2.83c0-.3,0-1.07,0-1.15l0-.28s4.5,0,5.18,0H31C31.46,8.73,33.18,8.71,33.56,8.79Z"/><path class="cls-7" d="M33.5,14.21c.12,0,.1,1,.1,1.37s-.07.73-.06,1.19,0,1.51,0,1.63H33c-.44,0-.87,0-1.3,0s-.86,0-1.28,0c-.69.06-1.42,0-2.11,0-.52,0-.9,0-1.56,0s-2.26.06-2.49,0a17.06,17.06,0,0,1-.1-2.83c0-.3,0-1.07,0-1.15l0-.28s4.48,0,5.15,0h1.5A23.73,23.73,0,0,1,33.5,14.21Z"/><path class="cls-7" d="M21.18,14.28c.12,0,.1,1,.1,1.37s-.08.73-.06,1.19,0,1.51,0,1.63h-.53c-.48,0-.95,0-1.42,0s-.94,0-1.4,0c-.75.06-1.54,0-2.29,0-.57,0-1,0-1.7,0s-2.47.07-2.72,0A16,16,0,0,1,11,15.7c0-.3,0-1.07.05-1.15l0-.28s4.88,0,5.61,0h1.64C18.91,14.22,20.77,14.19,21.18,14.28Z"/><path class="cls-7" d="M21.09,8.65c.12,0,.11,1,.1,1.37s-.07.74-.06,1.19,0,1.52,0,1.63h-.53c-.47,0-.94,0-1.4,0s-.93,0-1.39,0c-.74,0-1.52,0-2.27,0-.56,0-1,0-1.69,0s-2.45.06-2.69,0A16,16,0,0,1,11,10.07c0-.3,0-1.07.05-1.15l0-.28s4.85-.05,5.57,0H18.3C18.84,8.59,20.69,8.57,21.09,8.65Z"/><path class="cls-7" d="M36.17,7.71h.25c.15,0,.27-.19.27-.28,0-.43.09-.89.07-1.3s-.07-.38-.52-.46a5.15,5.15,0,0,0-2.66-1.12c-1.15,0-2.34,1.13-3.21,1.19-1.12.07-2.74-1.25-3.73-1.25-1.78,0-2.62,1.21-4.57,1.28-1.62.06-2.1-1-3.62-1.06s-2.1,1-3.57.89c-1.88-.16-2.15-1.38-4.69-1-.6.1-1.69,1-2,1s-.38.09-.4.25a7.63,7.63,0,0,0,0,1.52.61.61,0,0,0,.27.34l.47,0c2.08.07,10.08.14,11.08,0,1.28-.11,13.2,0,13.68,0C33.5,7.75,35.27,7.71,36.17,7.71Z"/><path class="cls-7" d="M16.68,8.6H18.3c.54,0,2.39,0,2.79.06.12,0,.11,1,.1,1.37s-.07.74-.06,1.19,0,1.52,0,1.63h-.53c-.47,0-.94,0-1.4,0s-.93,0-1.39,0c-.74,0-1.52,0-2.27,0-.56,0-1,0-1.69,0s-2.45.06-2.69,0A16,16,0,0,1,11,10.07c0-.3,0-1.07.05-1.15l0-.28S16,8.59,16.68,8.6Z"/><path class="cls-7" d="M16.73,14.23h1.64c.54,0,2.4,0,2.81.06.12,0,.1,1,.1,1.37s-.08.73-.06,1.19,0,1.51,0,1.63h-.53c-.48,0-.95,0-1.42,0s-.94,0-1.4,0c-.75.06-1.54,0-2.29,0-.57,0-1,0-1.7,0s-2.47.07-2.72,0A16,16,0,0,1,11,15.7c0-.3,0-1.07.05-1.15l0-.28S16,14.22,16.73,14.23Z"/><path class="cls-7" d="M29.43,14.16h1.5a23.73,23.73,0,0,1,2.57.06c.12,0,.1,1,.1,1.37s-.07.73-.06,1.19,0,1.51,0,1.63H33c-.44,0-.87,0-1.3,0s-.86,0-1.28,0c-.69.06-1.42,0-2.11,0-.52,0-.9,0-1.56,0s-2.26.06-2.49,0a17.06,17.06,0,0,1-.1-2.83c0-.3,0-1.07,0-1.15l0-.28S28.76,14.15,29.43,14.16Z"/><path class="cls-7" d="M29.46,8.74H31c.5,0,2.22,0,2.6.06.11,0,.09,1,.09,1.37s-.07.74-.06,1.19,0,1.52,0,1.63h-.49c-.43,0-.87,0-1.3,0s-.87,0-1.29,0c-.69.05-1.42,0-2.11,0-.53,0-.92,0-1.57,0s-2.28.06-2.51,0a17.06,17.06,0,0,1-.1-2.83c0-.3,0-1.07,0-1.15l0-.28S28.78,8.73,29.46,8.74Z"/><path class="cls-7" d="M35,19.51h0A2.73,2.73,0,0,1,35.55,21c-.06.44.62.44.55-.18,0-.24-.18-.45-.23-.72s.3-12,.3-12.39"/><path class="cls-7" d="M9.71,19.51h0c.88-.12,1.73.17,2.64,0s6.84,0,7.48,0c.87,0,1.74,0,2.61,0h.87c.18,0,.68,0,1.55,0,.64,0,6.5-.2,7.48,0s1.76-.14,2.64,0h0"/><path class="cls-7" d="M8.52,7.71v0c0,.74.38,12,.31,12.36s-.21.48-.24.72c-.07.62.61.62.55.18a2.73,2.73,0,0,1,.57-1.49h0"/></g></g></g></svg>