<svg xmlns="http://www.w3.org/2000/svg" viewBox="0 0 125.54 29.25"><defs><style>.cls-1{fill:#c9eaf5;}.cls-2{fill:none;stroke-width:0.5px;}.cls-2,.cls-3{stroke:#000;stroke-linecap:round;stroke-linejoin:round;}.cls-3{fill:#b3b3b7;}</style></defs><g id="Layer_2" data-name="Layer 2"><g id="main_menu" data-name="main menu"><g id="home"><rect class="cls-1" x="0.25" y="0.25" width="125.04" height="28.75" rx="5.48"/><rect class="cls-2" x="0.25" y="0.25" width="125.04" height="28.75" rx="5.48"/><path class="cls-3" d="M24.33,14.2c-1.42,0-2.91-.06-3.9-.11-.11,0,0,7.15-.11,9.91a4,4,0,0,1-.69.07,8.39,8.39,0,0,1-.11-2.1c-1.11.09-3.13-.09-4.5-.09s-3,0-4.46.1a6.57,6.57,0,0,0,.08,2.39,7.31,7.31,0,0,1-.81,0c-.16-3.05.11-6.59-.09-9.62-.65.27-2,1.63-1.86-.3,2.59-2.12,6.54-3.05,7.39-3.51.48-.26,5.19-2.65,6-3.08C21.92,7.49,24,6.48,24,6.48h.5c.52.1,8.56,4,9.2,4.49a56.33,56.33,0,0,1,6.92,3.48c.58,2-1.45.32-1.83.23a37.4,37.4,0,0,0-.12,4.26,12.39,12.39,0,0,1,.06,2.86c0,.8.12,1.44,0,2.41a3.74,3.74,0,0,1-.74.09c0-.74.13-1.45.09-2.19-2.73-.14-6.18-.27-9-.13a19.18,19.18,0,0,0-.06,2.17,2.73,2.73,0,0,1-.89-.12c.07-1.88-.24-3.56-.24-5,0-1.59.07-3.2,0-4.78-.69,0-2.11-.06-3.61-.09"/></g></g></g></svg>