<svg xmlns="http://www.w3.org/2000/svg" viewBox="0 0 125.06 26.33"><defs><style>.cls-1{fill:#c9eaf5;}.cls-2{fill:none;stroke-width:0.5px;}.cls-2,.cls-3{stroke:#000;stroke-linecap:round;stroke-linejoin:round;}.cls-3{fill:#b3b3b7;stroke-width:0.63px;}</style></defs><g id="Layer_2" data-name="Layer 2"><g id="main_menu" data-name="main menu"><g id="ranch"><rect class="cls-1" x="0.25" y="0.25" width="124.56" height="25.83" rx="5.47"/><rect class="cls-2" x="0.25" y="0.25" width="124.56" height="25.83" rx="5.47"/><path class="cls-3" d="M23.17,6.31l-2,0c-.05,0,0,3.57-.05,5-.18,0-.17,0-.34,0a4,4,0,0,1-.06-1.05c-.56,0-1.57,0-2.25,0s-1.51,0-2.23,0a3.37,3.37,0,0,0,0,1.19,2.67,2.67,0,0,1-.4,0c-.09-1.53.05-3.3-.05-4.81-.32.13-1,.82-.93-.15a14.3,14.3,0,0,1,3.69-1.76c.25-.13,2.6-1.32,3-1.54S23,2.45,23,2.45h.25c.26,0,4.28,2,4.6,2.24a32,32,0,0,1,3.46,1.74c.29,1-.73.16-.92.12a20,20,0,0,0-.06,2.13,5.38,5.38,0,0,1,0,1.43,11.74,11.74,0,0,1,0,1.21,2.2,2.2,0,0,1-.36,0c0-.37.06-.73,0-1.1-1.37-.06-3.09-.13-4.49-.06a9.54,9.54,0,0,0,0,1.08,1.17,1.17,0,0,1-.45-.06c0-.94-.12-1.77-.12-2.47s0-1.6,0-2.39c-.34,0-1,0-1.8-.05"/><path class="cls-3" d="M14.72,16.46l-2-.05s0,3.58-.06,4.95a1.86,1.86,0,0,1-.34,0,4.44,4.44,0,0,1-.06-1c-.55,0-1.56-.05-2.25-.05s-1.51,0-2.23.05a3.43,3.43,0,0,0,0,1.2,2.75,2.75,0,0,1-.4,0c-.08-1.52,0-3.29,0-4.81-.32.14-1,.82-.93-.15a14.19,14.19,0,0,1,3.7-1.75l3-1.54,1.36-.68h.26c.25.06,4.27,2,4.6,2.25a28.11,28.11,0,0,1,3.46,1.74c.28,1-.73.16-.92.11a17.57,17.57,0,0,0-.06,2.13,6.3,6.3,0,0,1,0,1.43c0,.4.06.72,0,1.21a2.33,2.33,0,0,1-.37,0c0-.37.07-.72,0-1.09-1.36-.07-3.09-.14-4.48-.07a7.76,7.76,0,0,0,0,1.09,1.74,1.74,0,0,1-.45-.06c0-.94-.12-1.78-.12-2.48s0-1.6,0-2.39c-.34,0-1,0-1.8-.05"/><path class="cls-3" d="M33.43,16.08c-.71,0-1.45,0-1.95-.06-.05,0,0,3.58-.06,5-.17,0-.16,0-.34,0A4,4,0,0,1,31,20c-.56,0-1.57-.05-2.26-.05s-1.51,0-2.23.05a3.43,3.43,0,0,0,0,1.2,2.75,2.75,0,0,1-.4,0c-.08-1.52.05-3.29,0-4.81-.33.14-1,.82-.94-.15a14.54,14.54,0,0,1,3.7-1.75l3-1.54,1.37-.68h.25c.26.06,4.27,2,4.6,2.25a28.11,28.11,0,0,1,3.46,1.74c.28,1-.73.16-.92.12a17.39,17.39,0,0,0-.06,2.12,6.3,6.3,0,0,1,0,1.43c0,.4.06.72,0,1.21a2.33,2.33,0,0,1-.37,0c0-.37.07-.72,0-1.09C39,20,37.23,19.9,35.84,20a9.72,9.72,0,0,0,0,1.09,1.4,1.4,0,0,1-.45-.06c0-.94-.12-1.78-.12-2.48s0-1.6,0-2.39c-.34,0-1,0-1.8,0"/></g></g></g></svg>