<svg xmlns="http://www.w3.org/2000/svg" viewBox="0 0 125.75 29.46"><defs><style>.cls-1{fill:#c9eaf5;}.cls-2,.cls-4,.cls-5,.cls-6,.cls-8{fill:none;}.cls-2{stroke:#000;stroke-width:0.72px;}.cls-10,.cls-2,.cls-4,.cls-8{stroke-linecap:round;stroke-linejoin:round;}.cls-3{fill:#a6adad;}.cls-10,.cls-4,.cls-5,.cls-6,.cls-8{stroke:#231f20;}.cls-4{stroke-width:0.2px;}.cls-10,.cls-5,.cls-8{stroke-width:0.5px;}.cls-6{stroke-width:0.39px;}.cls-7{fill:#a0a0a8;}.cls-9{fill:#838487;}.cls-10{fill:#355caa;}</style></defs><g id="Layer_2" data-name="Layer 2"><g id="main_menu" data-name="main menu"><g id="rules_of_the_game" data-name="rules of the game"><rect class="cls-1" x="0.36" y="0.36" width="125.04" height="28.75" rx="5.48"/><rect class="cls-2" x="0.36" y="0.36" width="125.04" height="28.75" rx="5.48"/><path class="cls-3" d="M22.87,12.32c.29,1,.74,2.73,1,3.77l.85,3.46a1.83,1.83,0,0,1-1.44,2.26h0c-1.05.2-2.76.59-3.8.87l-6.69,1.77a1.84,1.84,0,0,1-2.3-1.4l-.76-3.48c-.23-1-.6-2.76-.82-3.82l-.11-.52c-.21-1.05-.66-2.75-1-3.77L7.27,9.78A1.74,1.74,0,0,1,8.6,7.52l1.86-.39c1-.22,2.75-.63,3.79-.91L19.1,4.91a1.8,1.8,0,0,1,2.26,1.4l0,.11c.2,1,.61,2.76.9,3.79Z"/><path class="cls-4" d="M24.71,19.55a1.83,1.83,0,0,1-1.44,2.26h0c-1.05.2-2.76.59-3.8.87l-6.69,1.77a1.84,1.84,0,0,1-2.3-1.4l-.76-3.48c-.23-1-.6-2.76-.82-3.82l-.11-.52c-.21-1.05-.66-2.75-1-3.77L7.27,9.78A1.74,1.74,0,0,1,8.6,7.52l1.86-.39c1-.22,2.75-.63,3.79-.91L19.1,4.91a1.8,1.8,0,0,1,2.26,1.4l0,.11c.2,1,.61,2.76.9,3.79l.59,2.11c.29,1,.74,2.73,1,3.77Z"/><path class="cls-5" d="M22.87,12.32c.29,1,.74,2.73,1,3.77l.85,3.46a1.83,1.83,0,0,1-1.44,2.26h0c-1.05.2-2.76.59-3.8.87l-6.69,1.77a1.84,1.84,0,0,1-2.3-1.4l-.76-3.48c-.23-1-.6-2.76-.82-3.82l-.11-.52c-.21-1.05-.66-2.75-1-3.77L7.27,9.78A1.74,1.74,0,0,1,8.6,7.52l1.86-.39c1-.22,2.75-.63,3.79-.91L19.1,4.91a1.8,1.8,0,0,1,2.26,1.4l0,.11c.2,1,.61,2.76.9,3.79Z"/><path class="cls-5" d="M22.87,12.32c.29,1,.74,2.73,1,3.77l.85,3.46a1.83,1.83,0,0,1-1.44,2.26h0c-1.05.2-2.76.59-3.8.87l-6.69,1.77a1.84,1.84,0,0,1-2.3-1.4l-.76-3.48c-.23-1-.6-2.76-.82-3.82l-.11-.52c-.21-1.05-.66-2.75-1-3.77L7.27,9.78A1.74,1.74,0,0,1,8.6,7.52l1.86-.39c1-.22,2.75-.63,3.79-.91L19.1,4.91a1.8,1.8,0,0,1,2.26,1.4l0,.11c.2,1,.61,2.76.9,3.79Z"/><path class="cls-5" d="M24.71,19.55a1.83,1.83,0,0,1-1.44,2.26h0c-1.05.2-2.76.59-3.8.87l-6.69,1.77a1.84,1.84,0,0,1-2.3-1.4l-.76-3.48c-.23-1-.6-2.76-.82-3.82l-.11-.52c-.21-1.05-.66-2.75-1-3.77L7.27,9.78A1.74,1.74,0,0,1,8.6,7.52l1.86-.39c1-.22,2.75-.63,3.79-.91L19.1,4.91a1.8,1.8,0,0,1,2.26,1.4l0,.11c.2,1,.61,2.76.9,3.79l.59,2.11c.29,1,.74,2.73,1,3.77Z"/><path class="cls-5" d="M24.71,19.55a1.83,1.83,0,0,1-1.44,2.26h0c-1.05.2-2.76.59-3.8.87l-6.69,1.77a1.84,1.84,0,0,1-2.3-1.4l-.76-3.48c-.23-1-.6-2.76-.82-3.82l-.11-.52c-.21-1.05-.66-2.75-1-3.77L7.27,9.78A1.74,1.74,0,0,1,8.6,7.52l1.86-.39c1-.22,2.75-.63,3.79-.91L19.1,4.91a1.8,1.8,0,0,1,2.26,1.4l0,.11c.2,1,.61,2.76.9,3.79l.59,2.11c.29,1,.74,2.73,1,3.77Z"/><path class="cls-6" d="M22.87,12.32c.29,1,.74,2.73,1,3.77l.85,3.46a1.83,1.83,0,0,1-1.44,2.26h0c-1.05.2-2.76.59-3.8.87l-6.69,1.77a1.84,1.84,0,0,1-2.3-1.4l-.76-3.48c-.23-1-.6-2.76-.82-3.82l-.11-.52c-.21-1.05-.66-2.75-1-3.77L7.27,9.78A1.74,1.74,0,0,1,8.6,7.52l1.86-.39c1-.22,2.75-.63,3.79-.91L19.1,4.91a1.8,1.8,0,0,1,2.26,1.4l0,.11c.2,1,.61,2.76.9,3.79Z"/><path class="cls-6" d="M22.87,12.32c.29,1,.74,2.73,1,3.77l.85,3.46a1.83,1.83,0,0,1-1.44,2.26h0c-1.05.2-2.76.59-3.8.87l-6.69,1.77a1.84,1.84,0,0,1-2.3-1.4l-.76-3.48c-.23-1-.6-2.76-.82-3.82l-.11-.52c-.21-1.05-.66-2.75-1-3.77L7.27,9.78A1.74,1.74,0,0,1,8.6,7.52l1.86-.39c1-.22,2.75-.63,3.79-.91L19.1,4.91a1.8,1.8,0,0,1,2.26,1.4l0,.11c.2,1,.61,2.76.9,3.79Z"/><path class="cls-6" d="M24.71,19.55a1.83,1.83,0,0,1-1.44,2.26h0c-1.05.2-2.76.59-3.8.87l-6.69,1.77a1.84,1.84,0,0,1-2.3-1.4l-.76-3.48c-.23-1-.6-2.76-.82-3.82l-.11-.52c-.21-1.05-.66-2.75-1-3.77L7.27,9.78A1.74,1.74,0,0,1,8.6,7.52l1.86-.39c1-.22,2.75-.63,3.79-.91L19.1,4.91a1.8,1.8,0,0,1,2.26,1.4l0,.11c.2,1,.61,2.76.9,3.79l.59,2.11c.29,1,.74,2.73,1,3.77Z"/><path class="cls-6" d="M24.71,19.55a1.83,1.83,0,0,1-1.44,2.26h0c-1.05.2-2.76.59-3.8.87l-6.69,1.77a1.84,1.84,0,0,1-2.3-1.4l-.76-3.48c-.23-1-.6-2.76-.82-3.82l-.11-.52c-.21-1.05-.66-2.75-1-3.77L7.27,9.78A1.74,1.74,0,0,1,8.6,7.52l1.86-.39c1-.22,2.75-.63,3.79-.91L19.1,4.91a1.8,1.8,0,0,1,2.26,1.4l0,.11c.2,1,.61,2.76.9,3.79l.59,2.11c.29,1,.74,2.73,1,3.77Z"/><path class="cls-6" d="M22.87,12.32c.29,1,.74,2.73,1,3.77l.85,3.46a1.83,1.83,0,0,1-1.44,2.26h0c-1.05.2-2.76.59-3.8.87l-6.69,1.77a1.84,1.84,0,0,1-2.3-1.4l-.76-3.48c-.23-1-.6-2.76-.82-3.82l-.11-.52c-.21-1.05-.66-2.75-1-3.77L7.27,9.78A1.74,1.74,0,0,1,8.6,7.52l1.86-.39c1-.22,2.75-.63,3.79-.91L19.1,4.91a1.8,1.8,0,0,1,2.26,1.4l0,.11c.2,1,.61,2.76.9,3.79Z"/><path class="cls-6" d="M22.87,12.32c.29,1,.74,2.73,1,3.77l.85,3.46a1.83,1.83,0,0,1-1.44,2.26h0c-1.05.2-2.76.59-3.8.87l-6.69,1.77a1.84,1.84,0,0,1-2.3-1.4l-.76-3.48c-.23-1-.6-2.76-.82-3.82l-.11-.52c-.21-1.05-.66-2.75-1-3.77L7.27,9.78A1.74,1.74,0,0,1,8.6,7.52l1.86-.39c1-.22,2.75-.63,3.79-.91L19.1,4.91a1.8,1.8,0,0,1,2.26,1.4l0,.11c.2,1,.61,2.76.9,3.79Z"/><path class="cls-6" d="M24.71,19.55a1.83,1.83,0,0,1-1.44,2.26h0c-1.05.2-2.76.59-3.8.87l-6.69,1.77a1.84,1.84,0,0,1-2.3-1.4l-.76-3.48c-.23-1-.6-2.76-.82-3.82l-.11-.52c-.21-1.05-.66-2.75-1-3.77L7.27,9.78A1.74,1.74,0,0,1,8.6,7.52l1.86-.39c1-.22,2.75-.63,3.79-.91L19.1,4.91a1.8,1.8,0,0,1,2.26,1.4l0,.11c.2,1,.61,2.76.9,3.79l.59,2.11c.29,1,.74,2.73,1,3.77Z"/><path class="cls-6" d="M24.71,19.55a1.83,1.83,0,0,1-1.44,2.26h0c-1.05.2-2.76.59-3.8.87l-6.69,1.77a1.84,1.84,0,0,1-2.3-1.4l-.76-3.48c-.23-1-.6-2.76-.82-3.82l-.11-.52c-.21-1.05-.66-2.75-1-3.77L7.27,9.78A1.74,1.74,0,0,1,8.6,7.52l1.86-.39c1-.22,2.75-.63,3.79-.91L19.1,4.91a1.8,1.8,0,0,1,2.26,1.4l0,.11c.2,1,.61,2.76.9,3.79l.59,2.11c.29,1,.74,2.73,1,3.77Z"/><path class="cls-6" d="M22.87,12.32c.29,1,.74,2.73,1,3.77l.85,3.46a1.83,1.83,0,0,1-1.44,2.26h0c-1.05.2-2.76.59-3.8.87l-6.69,1.77a1.84,1.84,0,0,1-2.3-1.4l-.76-3.48c-.23-1-.6-2.76-.82-3.82l-.11-.52c-.21-1.05-.66-2.75-1-3.77L7.27,9.78A1.74,1.74,0,0,1,8.6,7.52l1.86-.39c1-.22,2.75-.63,3.79-.91L19.1,4.91a1.8,1.8,0,0,1,2.26,1.4l0,.11c.2,1,.61,2.76.9,3.79Z"/><path class="cls-6" d="M22.87,12.32c.29,1,.74,2.73,1,3.77l.85,3.46a1.83,1.83,0,0,1-1.44,2.26h0c-1.05.2-2.76.59-3.8.87l-6.69,1.77a1.84,1.84,0,0,1-2.3-1.4l-.76-3.48c-.23-1-.6-2.76-.82-3.82l-.11-.52c-.21-1.05-.66-2.75-1-3.77L7.27,9.78A1.74,1.74,0,0,1,8.6,7.52l1.86-.39c1-.22,2.75-.63,3.79-.91L19.1,4.91a1.8,1.8,0,0,1,2.26,1.4l0,.11c.2,1,.61,2.76.9,3.79Z"/><path class="cls-6" d="M24.71,19.55a1.83,1.83,0,0,1-1.44,2.26h0c-1.05.2-2.76.59-3.8.87l-6.69,1.77a1.84,1.84,0,0,1-2.3-1.4l-.76-3.48c-.23-1-.6-2.76-.82-3.82l-.11-.52c-.21-1.05-.66-2.75-1-3.77L7.27,9.78A1.74,1.74,0,0,1,8.6,7.52l1.86-.39c1-.22,2.75-.63,3.79-.91L19.1,4.91a1.8,1.8,0,0,1,2.26,1.4l0,.11c.2,1,.61,2.76.9,3.79l.59,2.11c.29,1,.74,2.73,1,3.77Z"/><path class="cls-6" d="M24.71,19.55a1.83,1.83,0,0,1-1.44,2.26h0c-1.05.2-2.76.59-3.8.87l-6.69,1.77a1.84,1.84,0,0,1-2.3-1.4l-.76-3.48c-.23-1-.6-2.76-.82-3.82l-.11-.52c-.21-1.05-.66-2.75-1-3.77L7.27,9.78A1.74,1.74,0,0,1,8.6,7.52l1.86-.39c1-.22,2.75-.63,3.79-.91L19.1,4.91a1.8,1.8,0,0,1,2.26,1.4l0,.11c.2,1,.61,2.76.9,3.79l.59,2.11c.29,1,.74,2.73,1,3.77Z"/><path class="cls-7" d="M26.42,23.83a1.85,1.85,0,0,1-2.5,1h0c-1-.46-2.58-1.14-3.58-1.53l-6.46-2.49a1.86,1.86,0,0,1-1-2.49L14.26,15c.43-1,1.09-2.6,1.46-3.61l.76-2.06c.37-1,1-2.64,1.41-3.64l0-.09a1.89,1.89,0,0,1,2.52-1l1.73.78c1,.44,2.6,1.11,3.61,1.49l4.69,1.79a1.81,1.81,0,0,1,1,2.47l0,.09c-.46,1-1.13,2.59-1.5,3.6l-.77,2.06c-.37,1-1,2.64-1.41,3.63Z"/><path class="cls-8" d="M26.42,23.83a1.85,1.85,0,0,1-2.5,1h0c-1-.46-2.58-1.14-3.58-1.53l-6.46-2.49a1.86,1.86,0,0,1-1-2.49L14.26,15c.43-1,1.09-2.6,1.46-3.61l.76-2.06c.37-1,1-2.64,1.41-3.64l0-.09a1.89,1.89,0,0,1,2.52-1l1.73.78c1,.44,2.6,1.11,3.61,1.49l4.69,1.79a1.81,1.81,0,0,1,1,2.47l0,.09c-.46,1-1.13,2.59-1.5,3.6l-.77,2.06c-.37,1-1,2.64-1.41,3.63Z"/><path class="cls-6" d="M26.42,23.83a1.85,1.85,0,0,1-2.5,1h0c-1-.46-2.58-1.14-3.58-1.53l-6.46-2.49a1.86,1.86,0,0,1-1-2.49L14.26,15c.43-1,1.09-2.6,1.46-3.61l.76-2.06c.37-1,1-2.64,1.41-3.64l0-.09a1.89,1.89,0,0,1,2.52-1l1.73.78c1,.44,2.6,1.11,3.61,1.49l4.69,1.79a1.81,1.81,0,0,1,1,2.47l0,.09c-.46,1-1.13,2.59-1.5,3.6l-.77,2.06c-.37,1-1,2.64-1.41,3.63Z"/><path class="cls-6" d="M26.42,23.83a1.85,1.85,0,0,1-2.5,1h0c-1-.46-2.58-1.14-3.58-1.53l-6.46-2.49a1.86,1.86,0,0,1-1-2.49L14.26,15c.43-1,1.09-2.6,1.46-3.61l.76-2.06c.37-1,1-2.64,1.41-3.64l0-.09a1.89,1.89,0,0,1,2.52-1l1.73.78c1,.44,2.6,1.11,3.61,1.49l4.69,1.79a1.81,1.81,0,0,1,1,2.47l0,.09c-.46,1-1.13,2.59-1.5,3.6l-.77,2.06c-.37,1-1,2.64-1.41,3.63Z"/><path class="cls-9" d="M26.32,22.34a1.85,1.85,0,0,1-1.95,1.85h0c-1.07-.05-2.83-.08-3.9-.06l-6.93.12a1.84,1.84,0,0,1-1.89-1.91l.09-3.56c0-1.07,0-2.83,0-3.9l-.07-2.2c0-1.07-.07-2.82-.07-3.9V8.69A1.88,1.88,0,0,1,13.54,6.8l1.91.07c1.07,0,2.82,0,3.9,0l5-.11a1.78,1.78,0,0,1,1.85,1.9v.11c0,1.07-.07,2.82,0,3.89l.07,2.2c0,1.07.06,2.83.06,3.9Z"/><path class="cls-8" d="M26.32,22.34a1.85,1.85,0,0,1-1.95,1.85h0c-1.07-.05-2.83-.08-3.9-.06l-6.93.12a1.84,1.84,0,0,1-1.89-1.91l.09-3.56c0-1.07,0-2.83,0-3.9l-.07-2.2c0-1.07-.07-2.82-.07-3.9V8.69A1.88,1.88,0,0,1,13.54,6.8l1.91.07c1.07,0,2.82,0,3.9,0l5-.11a1.78,1.78,0,0,1,1.85,1.9v.11c0,1.07-.07,2.82,0,3.89l.07,2.2c0,1.07.06,2.83.06,3.9Z"/><path class="cls-6" d="M26.32,22.34a1.85,1.85,0,0,1-1.95,1.85h0c-1.07-.05-2.83-.08-3.9-.06l-6.93.12a1.84,1.84,0,0,1-1.89-1.91l.09-3.56c0-1.07,0-2.83,0-3.9l-.07-2.2c0-1.07-.07-2.82-.07-3.9V8.69A1.88,1.88,0,0,1,13.54,6.8l1.91.07c1.07,0,2.82,0,3.9,0l5-.11a1.78,1.78,0,0,1,1.85,1.9v.11c0,1.07-.07,2.82,0,3.89l.07,2.2c0,1.07.06,2.83.06,3.9Z"/><path class="cls-6" d="M26.32,22.34a1.85,1.85,0,0,1-1.95,1.85h0c-1.07-.05-2.83-.08-3.9-.06l-6.93.12a1.84,1.84,0,0,1-1.89-1.91l.09-3.56c0-1.07,0-2.83,0-3.9l-.07-2.2c0-1.07-.07-2.82-.07-3.9V8.69A1.88,1.88,0,0,1,13.54,6.8l1.91.07c1.07,0,2.82,0,3.9,0l5-.11a1.78,1.78,0,0,1,1.85,1.9v.11c0,1.07-.07,2.82,0,3.89l.07,2.2c0,1.07.06,2.83.06,3.9Z"/><path class="cls-10" d="M19,9.83c2.66,0,3,2.94,1.73,4.56a2.28,2.28,0,0,1,2.48.43c1.12,1.07,1.81,3.39-.79,4.3-.74.26-1.72.21-3.07-.91A6.61,6.61,0,0,0,19.55,20c.1.4.38,1.18.89,1.2a13.41,13.41,0,0,0-3,0c.52,0,.79-.8.89-1.2a6.23,6.23,0,0,0,.19-1.78c-1.35,1.12-2.34,1.17-3.08.91-2.6-.91-1.9-3.23-.78-4.3a2.27,2.27,0,0,1,2.47-.43c-1.23-1.62-.93-4.56,1.74-4.56Z"/></g></g></g></svg>