<svg xmlns="http://www.w3.org/2000/svg" viewBox="0 0 29.62 29.62"><defs><style>.cls-1{fill:#a5a4a4;}.cls-1,.cls-10,.cls-6,.cls-7,.cls-8,.cls-9{stroke:#231f20;}.cls-1,.cls-6,.cls-8{stroke-linecap:round;stroke-linejoin:round;}.cls-2{fill:#191919;}.cls-3{fill:#454a9f;}.cls-4{fill:#3a3738;}.cls-5{fill:#7dd3f3;}.cls-10,.cls-6,.cls-7,.cls-8,.cls-9{fill:none;}.cls-10,.cls-6,.cls-7{stroke-width:0.2px;}.cls-7,.cls-9{stroke-miterlimit:10;}.cls-8{stroke-width:0.05px;}.cls-9{stroke-width:0.24px;}</style></defs><g id="Layer_2" data-name="Layer 2"><g id="menu-icons"><g id="icon-all-opinions"><path class="cls-1" d="M22.29,28.29c-3.38,1.12-10.89,1.12-15.58-.09a7.05,7.05,0,0,1-5-4.94l-.15-.49A34.25,34.25,0,0,1,1.1,8.06c.08-.35.16-.69.25-1l.15-.52c.05-.17.11-.34.17-.51L2,5.33A7.4,7.4,0,0,1,7.33,1.05c4.07-.88,12-.58,15.41.05a6.83,6.83,0,0,1,5.21,5l.15.48a34.1,34.1,0,0,1,.41,14.71c-.07.35-.15.7-.24,1l-.15.51A9.48,9.48,0,0,1,22.29,28.29Z"/><path class="cls-2" d="M28.16,14.2c.44.66.58,1.34.33,1.5s-.8-.25-1.23-.92-.58-1.33-.33-1.5S27.73,13.53,28.16,14.2Z"/><path class="cls-2" d="M27.82,9.21c.29.11.3.77,0,1.47s-.77,1.18-1.07,1.07-.29-.77,0-1.48S27.53,9.1,27.82,9.21Z"/><path class="cls-2" d="M26,12.21a.56.56,0,0,1,.44-.22.58.58,0,0,1,.57.57.57.57,0,0,1-.57.56.54.54,0,0,1-.35-.13.56.56,0,0,1-.09-.78Z"/><path class="cls-3" d="M26.07,13h0a2.14,2.14,0,0,1-.59.29h0a.32.32,0,0,0,.05-.33c-.14-.27-.82-.18-1.52.19a3.76,3.76,0,0,0-.73.51h0c-.33,0-.49.1-.87.16A31.18,31.18,0,0,0,16.59,15c-.94.35-1.62.8-1.77,1.39h0a8.14,8.14,0,0,0,0-3.76c.28.28,1.58.31,3.13.23,1.05-.06,2.23-.07,3.28-.19,1.55-.16,2.83-.45,3-.48a4.58,4.58,0,0,1,1.79,0,.56.56,0,0,0,.09.78Z"/><path class="cls-2" d="M23.27,13.64a3.76,3.76,0,0,1,.73-.51c.7-.37,1.38-.46,1.52-.19a.32.32,0,0,1-.05.33,2.43,2.43,0,0,1-1,.82c-.7.36-1.45.49-1.59.22s.07-.41.36-.67Z"/><path class="cls-2" d="M20.85,9.42a4.72,4.72,0,0,1-2.36.4c-.68,0-1.45,0-2.28,0l-1.69,0a11.34,11.34,0,0,1-3.13-.27c0-.08.51-.15,1.35-.21s2.11-.08,3.47-.08L18,9.3A13.32,13.32,0,0,1,20.85,9.42Z"/><path class="cls-2" d="M5.62,23c.17,0,.37,0,.59,0H8c1.29,0,2.78.07,4.18.08h1.53l2.47,0v.41l-2,0-4.5.05a44.53,44.53,0,0,1-4.78-.1,3.17,3.17,0,0,1-2.41-2.87h.62c.3,1.25.41,1.95,1.79,2.36A3.17,3.17,0,0,0,5.62,23Z"/><path class="cls-3" d="M14.74,12.64a8.14,8.14,0,0,1,0,3.76,5.44,5.44,0,0,1-1.49,3,3.18,3.18,0,0,1-1.59.78,4.12,4.12,0,0,1-.52.06,33.57,33.57,0,0,1-3.87,0l-.52-.05-.91-.12a8,8,0,0,1-2.18-.71,2.8,2.8,0,0,1-.9-.68c5.52,0,8.74-2.95,9-6.84v-.07h.27c.47,0,.83,0,.94,0A1.92,1.92,0,0,1,14.74,12.64Z"/><path class="cls-2" d="M12.73,23v.13h-.51l-.3-.81c-.31-.89-.51-1.53-.73-2a4.12,4.12,0,0,0,.52-.06v.05c.12.26.22.54.34.87S12.43,22.2,12.73,23Z"/><path class="cls-4" d="M12.11,11.74v.1h-.27c-.67,0-1.48,0-2.05,0v-.06a1.53,1.53,0,0,1,.75-.89,1.06,1.06,0,0,1,.92,0A1.39,1.39,0,0,1,12.11,11.74Z"/><path class="cls-5" d="M11.83,11.83v.07c-.28,3.89-3.5,6.84-9,6.84a2.43,2.43,0,0,1-.27-2.68c.73-1.71,2.9-3.47,6-4.07a7,7,0,0,1,.8-.13l.44,0C10.35,11.8,11.16,11.81,11.83,11.83Z"/><path class="cls-4" d="M11.49,10.89l-.05,0a1.06,1.06,0,0,0-.92,0l0-.07C11,9.26,11,9.84,11.49,10.89Z"/><path class="cls-2" d="M10.68,9.57c0,.08-.51.15-1.35.2s-2.11.09-3.47.09l-1.75,0a14.18,14.18,0,0,1-2.89-.12,4.78,4.78,0,0,1,2.36-.41c.68,0,1.46,0,2.28,0,.59,0,1.16,0,1.69,0A10.89,10.89,0,0,1,10.68,9.57Z"/><path class="cls-2" d="M7.32,20.3v.11c-.11.24-.19.44-.27.62-.36.83-.47,1.06-.84,2h0c-.22,0-.42,0-.59,0,.21-.53.35-.88.51-1.23s.36-.83.67-1.56Z"/><path class="cls-6" d="M26,12.21a4.58,4.58,0,0,0-1.79,0c-.21,0-1.49.32-3,.48-1,.12-2.23.13-3.28.19-1.55.08-2.85.05-3.13-.23"/><line class="cls-6" x1="25.98" y1="12.21" x2="25.98" y2="12.21"/><path class="cls-6" d="M25.48,13.28a2.14,2.14,0,0,0,.59-.29h0"/><path class="cls-6" d="M23.27,13.64h0"/><path class="cls-6" d="M14.79,16.59a.68.68,0,0,1,0-.19c.15-.59.83-1,1.77-1.39A31.18,31.18,0,0,1,22.4,13.8c.38-.06.54-.11.87-.16"/><path class="cls-6" d="M9.77,11.76a1.53,1.53,0,0,1,.75-.89,1.06,1.06,0,0,1,.92,0,1.39,1.39,0,0,1,.67.83"/><path class="cls-6" d="M23.27,13.64h0a3.76,3.76,0,0,1,.73-.51c.7-.37,1.38-.46,1.52-.19a.32.32,0,0,1-.05.33"/><path class="cls-7" d="M25.47,13.27a2.43,2.43,0,0,1-1,.82c-.7.36-1.45.49-1.59.22s.07-.41.36-.67"/><path class="cls-6" d="M5.62,23.06v0c.21-.53.35-.88.51-1.23s.36-.83.67-1.56"/><path class="cls-6" d="M11.72,20.27c.12.26.22.54.34.87s.37,1.06.67,1.86"/><path class="cls-6" d="M11.83,11.9c-.28,3.89-3.5,6.84-9,6.84"/><path class="cls-6" d="M12.1,11.84c.47,0,.83,0,.94,0a1.92,1.92,0,0,1,1.7.76,8.14,8.14,0,0,1,0,3.76,5.44,5.44,0,0,1-1.49,3,3.18,3.18,0,0,1-1.59.78,4.12,4.12,0,0,1-.52.06,33.57,33.57,0,0,1-3.87,0l-.52-.05-.91-.12a8,8,0,0,1-2.18-.71,2.8,2.8,0,0,1-.9-.68,2.43,2.43,0,0,1-.27-2.68c.73-1.71,2.9-3.47,6-4.07a7,7,0,0,1,.8-.13l.44,0c.57,0,1.38,0,2.05,0Z"/><path class="cls-7" d="M27.83,10.68c-.3.7-.77,1.18-1.07,1.07s-.29-.77,0-1.48.77-1.17,1.06-1.06S28.12,10,27.83,10.68Z"/><path class="cls-7" d="M28.16,14.2c.44.66.58,1.34.33,1.5s-.8-.25-1.23-.92-.58-1.33-.33-1.5S27.73,13.53,28.16,14.2Z"/><path class="cls-8" d="M11.39,9.57c0-.08.51-.15,1.35-.21s2.11-.08,3.47-.08L18,9.3a13.32,13.32,0,0,1,2.89.12,4.72,4.72,0,0,1-2.36.4c-.68,0-1.45,0-2.28,0l-1.69,0A11.34,11.34,0,0,1,11.39,9.57Z"/><path class="cls-9" d="M10.68,9.57c0,.08-.51.15-1.35.2s-2.11.09-3.47.09l-1.75,0a14.18,14.18,0,0,1-2.89-.12,4.78,4.78,0,0,1,2.36-.41c.68,0,1.46,0,2.28,0,.59,0,1.16,0,1.69,0A10.89,10.89,0,0,1,10.68,9.57Z"/><line class="cls-6" x1="25.98" y1="12.21" x2="25.98" y2="12.21"/><path class="cls-7" d="M26,12.21a.56.56,0,0,1,.44-.22.58.58,0,0,1,.57.57.57.57,0,0,1-.57.56.54.54,0,0,1-.35-.13.56.56,0,0,1-.09-.78"/><path class="cls-6" d="M10.49,10.8c.48-1.54.55-1,1,.09"/><path class="cls-6" d="M12.22,23.12h1.53l2.47,0v.41l-2,0-4.5.05a44.53,44.53,0,0,1-4.78-.1,3.17,3.17,0,0,1-2.41-2.87h.62c.3,1.25.41,1.95,1.79,2.36a3.17,3.17,0,0,0,.69.06c.17,0,.37,0,.59,0H8c1.29,0,2.78.07,4.18.08"/><path class="cls-6" d="M6.21,23c.37-.94.48-1.17.84-2,.08-.18.16-.38.27-.62"/><path class="cls-6" d="M11.19,20.28c.22.5.42,1.14.73,2l.3.81h0v0"/><path class="cls-10" d="M28.16,14.2c.44.66.58,1.34.33,1.5s-.8-.25-1.23-.92-.58-1.33-.33-1.5S27.73,13.53,28.16,14.2Z"/><path class="cls-10" d="M27.82,9.21c.29.11.3.77,0,1.47s-.77,1.18-1.07,1.07-.29-.77,0-1.48S27.53,9.1,27.82,9.21Z"/><path class="cls-10" d="M26,12.21a.56.56,0,0,1,.44-.22.58.58,0,0,1,.57.57.57.57,0,0,1-.57.56.54.54,0,0,1-.35-.13.56.56,0,0,1-.09-.78Z"/><path class="cls-10" d="M26.07,13h0a2.14,2.14,0,0,1-.59.29h0a.32.32,0,0,0,.05-.33c-.14-.27-.82-.18-1.52.19a3.76,3.76,0,0,0-.73.51h0c-.33,0-.49.1-.87.16A31.18,31.18,0,0,0,16.59,15c-.94.35-1.62.8-1.77,1.39h0a8.14,8.14,0,0,0,0-3.76c.28.28,1.58.31,3.13.23,1.05-.06,2.23-.07,3.28-.19,1.55-.16,2.83-.45,3-.48a4.58,4.58,0,0,1,1.79,0,.56.56,0,0,0,.09.78Z"/><path class="cls-10" d="M23.27,13.64a3.76,3.76,0,0,1,.73-.51c.7-.37,1.38-.46,1.52-.19a.32.32,0,0,1-.05.33,2.43,2.43,0,0,1-1,.82c-.7.36-1.45.49-1.59.22s.07-.41.36-.67Z"/><path class="cls-10" d="M20.85,9.42a4.72,4.72,0,0,1-2.36.4c-.68,0-1.45,0-2.28,0l-1.69,0a11.34,11.34,0,0,1-3.13-.27c0-.08.51-.15,1.35-.21s2.11-.08,3.47-.08L18,9.3A13.32,13.32,0,0,1,20.85,9.42Z"/><path class="cls-10" d="M5.62,23c.17,0,.37,0,.59,0H8c1.29,0,2.78.07,4.18.08h1.53l2.47,0v.41l-2,0-4.5.05a44.53,44.53,0,0,1-4.78-.1,3.17,3.17,0,0,1-2.41-2.87h.62c.3,1.25.41,1.95,1.79,2.36A3.17,3.17,0,0,0,5.62,23Z"/><path class="cls-10" d="M14.74,12.64a8.14,8.14,0,0,1,0,3.76,5.44,5.44,0,0,1-1.49,3,3.18,3.18,0,0,1-1.59.78,4.12,4.12,0,0,1-.52.06,33.57,33.57,0,0,1-3.87,0l-.52-.05-.91-.12a8,8,0,0,1-2.18-.71,2.8,2.8,0,0,1-.9-.68c5.52,0,8.74-2.95,9-6.84v-.07h.27c.47,0,.83,0,.94,0A1.92,1.92,0,0,1,14.74,12.64Z"/><path class="cls-10" d="M12.73,23v.13h-.51l-.3-.81c-.31-.89-.51-1.53-.73-2a4.12,4.12,0,0,0,.52-.06v.05c.12.26.22.54.34.87S12.43,22.2,12.73,23Z"/><path class="cls-10" d="M12.11,11.74v.1h-.27c-.67,0-1.48,0-2.05,0v-.06a1.53,1.53,0,0,1,.75-.89,1.06,1.06,0,0,1,.92,0A1.39,1.39,0,0,1,12.11,11.74Z"/><path class="cls-10" d="M11.83,11.83v.07c-.28,3.89-3.5,6.84-9,6.84a2.43,2.43,0,0,1-.27-2.68c.73-1.71,2.9-3.47,6-4.07a7,7,0,0,1,.8-.13l.44,0C10.35,11.8,11.16,11.81,11.83,11.83Z"/><path class="cls-10" d="M11.49,10.89l-.05,0a1.06,1.06,0,0,0-.92,0l0-.07C11,9.26,11,9.84,11.49,10.89Z"/><path class="cls-10" d="M10.68,9.57c0,.08-.51.15-1.35.2s-2.11.09-3.47.09l-1.75,0a14.18,14.18,0,0,1-2.89-.12,4.78,4.78,0,0,1,2.36-.41c.68,0,1.46,0,2.28,0,.59,0,1.16,0,1.69,0A10.89,10.89,0,0,1,10.68,9.57Z"/><path class="cls-10" d="M7.32,20.3v.11c-.11.24-.19.44-.27.62-.36.83-.47,1.06-.84,2h0c-.22,0-.42,0-.59,0,.21-.53.35-.88.51-1.23s.36-.83.67-1.56Z"/><path class="cls-10" d="M26,12.21a4.58,4.58,0,0,0-1.79,0c-.21,0-1.49.32-3,.48-1,.12-2.23.13-3.28.19-1.55.08-2.85.05-3.13-.23"/><line class="cls-10" x1="25.98" y1="12.21" x2="25.98" y2="12.21"/><path class="cls-10" d="M25.48,13.28a2.14,2.14,0,0,0,.59-.29h0"/><path class="cls-10" d="M23.27,13.64h0"/><path class="cls-10" d="M14.79,16.59a.68.68,0,0,1,0-.19c.15-.59.83-1,1.77-1.39A31.18,31.18,0,0,1,22.4,13.8c.38-.06.54-.11.87-.16"/><path class="cls-10" d="M9.77,11.76a1.53,1.53,0,0,1,.75-.89,1.06,1.06,0,0,1,.92,0,1.39,1.39,0,0,1,.67.83"/><path class="cls-10" d="M23.27,13.64h0a3.76,3.76,0,0,1,.73-.51c.7-.37,1.38-.46,1.52-.19a.32.32,0,0,1-.05.33"/><path class="cls-10" d="M25.47,13.27a2.43,2.43,0,0,1-1,.82c-.7.36-1.45.49-1.59.22s.07-.41.36-.67"/><path class="cls-10" d="M5.62,23.06v0c.21-.53.35-.88.51-1.23s.36-.83.67-1.56"/><path class="cls-10" d="M11.72,20.27c.12.26.22.54.34.87s.37,1.06.67,1.86"/><path class="cls-10" d="M11.83,11.9c-.28,3.89-3.5,6.84-9,6.84"/><path class="cls-10" d="M12.1,11.84c.47,0,.83,0,.94,0a1.92,1.92,0,0,1,1.7.76,8.14,8.14,0,0,1,0,3.76,5.44,5.44,0,0,1-1.49,3,3.18,3.18,0,0,1-1.59.78,4.12,4.12,0,0,1-.52.06,33.57,33.57,0,0,1-3.87,0l-.52-.05-.91-.12a8,8,0,0,1-2.18-.71,2.8,2.8,0,0,1-.9-.68,2.43,2.43,0,0,1-.27-2.68c.73-1.71,2.9-3.47,6-4.07a7,7,0,0,1,.8-.13l.44,0c.57,0,1.38,0,2.05,0Z"/><path class="cls-10" d="M27.83,10.68c-.3.7-.77,1.18-1.07,1.07s-.29-.77,0-1.48.77-1.17,1.06-1.06S28.12,10,27.83,10.68Z"/><path class="cls-10" d="M28.16,14.2c.44.66.58,1.34.33,1.5s-.8-.25-1.23-.92-.58-1.33-.33-1.5S27.73,13.53,28.16,14.2Z"/><path class="cls-10" d="M11.39,9.57c0-.08.51-.15,1.35-.21s2.11-.08,3.47-.08L18,9.3a13.32,13.32,0,0,1,2.89.12,4.72,4.72,0,0,1-2.36.4c-.68,0-1.45,0-2.28,0l-1.69,0A11.34,11.34,0,0,1,11.39,9.57Z"/><path class="cls-10" d="M10.68,9.57c0,.08-.51.15-1.35.2s-2.11.09-3.47.09l-1.75,0a14.18,14.18,0,0,1-2.89-.12,4.78,4.78,0,0,1,2.36-.41c.68,0,1.46,0,2.28,0,.59,0,1.16,0,1.69,0A10.89,10.89,0,0,1,10.68,9.57Z"/><line class="cls-10" x1="25.98" y1="12.21" x2="25.98" y2="12.21"/><path class="cls-10" d="M26,12.21a.56.56,0,0,1,.44-.22.58.58,0,0,1,.57.57.57.57,0,0,1-.57.56.54.54,0,0,1-.35-.13.56.56,0,0,1-.09-.78"/><path class="cls-10" d="M10.49,10.8c.48-1.54.55-1,1,.09"/><path class="cls-10" d="M12.22,23.12h1.53l2.47,0v.41l-2,0-4.5.05a44.53,44.53,0,0,1-4.78-.1,3.17,3.17,0,0,1-2.41-2.87h.62c.3,1.25.41,1.95,1.79,2.36a3.17,3.17,0,0,0,.69.06c.17,0,.37,0,.59,0H8c1.29,0,2.78.07,4.18.08"/><path class="cls-10" d="M6.21,23c.37-.94.48-1.17.84-2,.08-.18.16-.38.27-.62"/><path class="cls-10" d="M11.19,20.28c.22.5.42,1.14.73,2l.3.81h0v0"/></g></g></g></svg>