<svg xmlns="http://www.w3.org/2000/svg" viewBox="0 0 35.35 44.48"><defs><style>.cls-1{fill:#2f2f7e;}.cls-2{fill:#0e1235;}.cls-3{fill:#9290a0;}.cls-4{fill:#5f4f93;}.cls-5{fill:#f5f5f7;}.cls-6{fill:#8888bc;}.cls-7{fill:#bbb9dd;}.cls-10,.cls-11,.cls-12,.cls-13,.cls-17,.cls-18,.cls-7{stroke:#231f20;}.cls-10,.cls-11,.cls-7{stroke-miterlimit:10;}.cls-10,.cls-12,.cls-16,.cls-7{stroke-width:0.2px;}.cls-8{fill:#e81e3c;}.cls-9{fill:#515068;}.cls-10,.cls-11,.cls-12,.cls-13,.cls-14,.cls-15,.cls-16,.cls-17,.cls-18{fill:none;}.cls-11,.cls-18{stroke-width:0.05px;}.cls-12,.cls-13,.cls-14,.cls-15,.cls-16,.cls-17,.cls-18{stroke-linecap:round;stroke-linejoin:round;}.cls-13,.cls-14,.cls-15{stroke-width:0.6px;}.cls-14{stroke:#f4eeed;}.cls-15{stroke:#f8f2f4;}.cls-16{stroke:#f8f4f5;}.cls-17{stroke-width:0.1px;}</style></defs><g id="Layer_2" data-name="Layer 2"><g id="menu-icons"><g id="icon-compass"><path class="cls-1" d="M10.75,41.2C5.6,39,1,34.36.1,26.38h0a21,21,0,0,1,.13-2.26c1.48,15.59,13,16.05,17.18,16.05,5.45,0,17.83-4.12,17-18.78h0A17.82,17.82,0,0,1,27.3,39.92c-2.27,1.65-7.19,2.76-7.38,2.78A19.21,19.21,0,0,1,10.75,41.2Z"/><path class="cls-2" d="M19.92,42.7c.19,0,5.11-1.13,7.38-2.78a17.82,17.82,0,0,0,7.08-18.53c.75,2.93,1.38,6.49.26,9.91-6,18.33-27.39,15.13-32.43,4.19A21.66,21.66,0,0,1,.1,26.38C1,34.36,5.6,39,10.75,41.2A19.21,19.21,0,0,0,19.92,42.7Z"/><path class="cls-3" d="M8.56,8.67C7.91,7.68,6.92,6.42,6,6.2a1.32,1.32,0,0,1-.83-.57A6.56,6.56,0,0,1,8.81,3.72,7.66,7.66,0,0,0,8.76,5a18.32,18.32,0,0,0,.91,3.14C10.23,9.48,9.23,9.66,8.56,8.67Z"/><path class="cls-4" d="M10.46,8l-.31,0a4.4,4.4,0,0,1-.43-1.2l.41-.08C12.52,3.12,9.27.1,5.39,2.11c-3.27,1.7-2.3,6.92,2,6.2l.06-.05a6.76,6.76,0,0,1,.58.89L8,9.2c-7.11,1-7-7-2.59-8.64C10.64-1.44,14.22,3.45,10.46,8Z"/><path class="cls-5" d="M5.39,2.11c3.88-2,7.13,1,4.74,4.6l-.41.08a5,5,0,0,1,0-2.24c.17-.32,1.09-.33.69-.61a2.27,2.27,0,0,0-1.56-.22A6.56,6.56,0,0,0,5.19,5.63a2.14,2.14,0,0,0-.58,1.24c0,.43.61-.24,1-.16A4.08,4.08,0,0,1,7.47,8.26l-.06.05C3.09,9,2.12,3.81,5.39,2.11Z"/><path class="cls-4" d="M9.68,4.55a5,5,0,0,0,0,2.24A4.4,4.4,0,0,0,10.15,8a2,2,0,0,0,.8.8l.1.26a14.2,14.2,0,0,0-2.54,1.41,3.08,3.08,0,0,0-.46-1.31,6.76,6.76,0,0,0-.58-.89A4.08,4.08,0,0,0,5.64,6.71c-.42-.08-1,.59-1,.16a2.14,2.14,0,0,1,.58-1.24A1.32,1.32,0,0,0,6,6.2c.9.22,1.89,1.48,2.54,2.47s1.67.81,1.11-.53A18.32,18.32,0,0,1,8.76,5a7.66,7.66,0,0,1,.05-1.28,2.27,2.27,0,0,1,1.56.22C10.77,4.22,9.85,4.23,9.68,4.55Z"/><path class="cls-6" d="M11.05,9.05a8.68,8.68,0,0,1,1.45-.47c8-1.79,18.34.12,21.48,11.35.13.46.27.94.4,1.45h0c.86,14.66-11.52,18.78-17,18.78-4.21,0-15.7-.46-17.18-16A19.92,19.92,0,0,1,8.51,10.46,14.2,14.2,0,0,1,11.05,9.05ZM30.44,28.13c1.18-2.85,1.91-6,.62-9.09C27.73,11.12,16.93,8,9,13.75A13.45,13.45,0,0,0,5.19,31.8c.09.13.19.27.3.41,2.35,3,7.92,5.77,13.79,4.68A15.21,15.21,0,0,0,30.44,28.13Z"/><polygon class="cls-4" points="34.38 21.39 34.38 21.39 34.38 21.39 34.38 21.39"/><path class="cls-7" d="M8.64,29.35a10.18,10.18,0,0,0,6.68,5.52,11.11,11.11,0,0,0,2.79.36A10.72,10.72,0,0,0,24,33.51a9.53,9.53,0,0,0,4.45-8A9.25,9.25,0,0,0,27,20.66a9.27,9.27,0,0,0-1.14-1.5A10.37,10.37,0,0,0,21,16.22c-.13-.24-.28-.48-.42-.71L20,16a11.66,11.66,0,0,0-1.89-.16,10.76,10.76,0,0,0-3.48.57,10,10,0,0,0-2.12,1,16,16,0,0,0-1.58-.51,1.83,1.83,0,0,0,.62,1.17,9.48,9.48,0,0,0-3.74,7.47A9.23,9.23,0,0,0,8.64,29.35ZM31.06,19c1.29,3.06.56,6.24-.62,9.09a15.21,15.21,0,0,1-11.16,8.76C13.41,38,7.84,35.23,5.49,32.21c-2.79-9.31.2-14.32,6.5-18C17.47,11.05,25.83,12.11,31.06,19Z"/><path class="cls-5" d="M15.32,34.87a10.18,10.18,0,0,1-6.68-5.52,9.23,9.23,0,0,1-.83-3.82,9.48,9.48,0,0,1,3.74-7.47,9.07,9.07,0,0,1,1-.66c1.06.37,2.27.81,3,1a14.9,14.9,0,0,0-.83-1.95,10.76,10.76,0,0,1,3.48-.57A11.66,11.66,0,0,1,20,16a43.16,43.16,0,0,0-3.62,3.65c.49,0,3,.17,3,.24.24,1.17-.74,3.22-1,4.18l.32.29a1.65,1.65,0,0,0-2.21.42c0,.08-.65,1.2,0,2a1.93,1.93,0,0,0,1.9.46c.4-.16,1.33-1.16,1.06-1.9a1.91,1.91,0,0,0-.29-.53c.14-.54,1.63-4,2-4.77,1.28-.13.91.14,2.17,0A26.85,26.85,0,0,1,21,16.22a10.37,10.37,0,0,1,4.89,2.94l-.25.15c-.55.37.34,1.23.69,1.71l.07.09c.35.57.55,1.64,1.2,1.78a.84.84,0,0,0,.42-.06,9,9,0,0,1,.41,2.7,9.53,9.53,0,0,1-4.45,8,10.72,10.72,0,0,1-5.85,1.72A11.11,11.11,0,0,1,15.32,34.87Z"/><path class="cls-8" d="M23.35,20.05c-1.26.1-.89-.17-2.17,0-.37.76-1.86,4.23-2,4.77a1.44,1.44,0,0,0-.47-.42l-.32-.29c.26-1,1.24-3,1-4.18,0-.07-2.52-.21-3-.24A43.16,43.16,0,0,1,20,16c.33.06.66.13,1,.22A26.85,26.85,0,0,0,23.35,20.05Z"/><path class="cls-8" d="M20.56,15.51c.14.23.29.47.42.71-.32-.09-.65-.16-1-.22Z"/><path class="cls-4" d="M19.47,25.31c.27.74-.66,1.74-1.06,1.9a1.93,1.93,0,0,1-1.9-.46c-.66-.77,0-1.89,0-2a1.65,1.65,0,0,1,2.21-.42l.47.42A1.91,1.91,0,0,1,19.47,25.31Z"/><path class="cls-8" d="M19.18,24.78l-.47-.42A1.44,1.44,0,0,1,19.18,24.78Z"/><path class="cls-9" d="M31.06,19c-5.23-6.93-13.59-8-19.07-4.81-6.3,3.66-9.29,8.67-6.5,18-.11-.14-.21-.28-.3-.41A13.45,13.45,0,0,1,9,13.75C16.93,8,27.73,11.12,31.06,19Z"/><path class="cls-4" d="M12.51,17.4a9.07,9.07,0,0,0-1,.66,1.83,1.83,0,0,1-.62-1.17A16,16,0,0,1,12.51,17.4Z"/><path class="cls-10" d="M5.49,32.21c-.11-.14-.21-.28-.3-.41A13.45,13.45,0,0,1,9,13.75C16.93,8,27.73,11.12,31.06,19c1.29,3.06.56,6.24-.62,9.09a15.21,15.21,0,0,1-11.16,8.76C13.41,38,7.84,35.23,5.49,32.21Z"/><path class="cls-10" d="M.1,26.38a21,21,0,0,1,.13-2.26A19.92,19.92,0,0,1,8.51,10.46a14.2,14.2,0,0,1,2.54-1.41,8.68,8.68,0,0,1,1.45-.47c8-1.79,18.34.12,21.48,11.35.13.46.27.94.4,1.45"/><path class="cls-10" d="M34.38,21.39c.75,2.93,1.38,6.49.26,9.91-6,18.33-27.39,15.13-32.43,4.19A21.66,21.66,0,0,1,.1,26.38"/><path class="cls-11" d="M34.38,21.39h0"/><path class="cls-12" d="M5.49,32.21c-2.79-9.31.2-14.32,6.5-18,5.48-3.18,13.84-2.12,19.07,4.81"/><path class="cls-12" d="M18.71,24.36l-.32-.29c.26-1,1.24-3,1-4.18,0-.07-2.52-.21-3-.24A43.16,43.16,0,0,1,20,16l.56-.49c.14.23.29.47.42.71a26.85,26.85,0,0,0,2.37,3.83c-1.26.1-.89-.17-2.17,0-.37.76-1.86,4.23-2,4.77Z"/><path class="cls-13" d="M29.61,21.87a7.91,7.91,0,0,1-1.61,1,.84.84,0,0,1-.42.06c-.65-.14-.85-1.21-1.2-1.78L26.31,21c-.35-.48-1.24-1.34-.69-1.71l.25-.15a15.91,15.91,0,0,1,2.21-.8"/><path class="cls-13" d="M28.55,19.88a11.71,11.71,0,0,0-1.54.78c-.28.15-.53.29-.7.36"/><path class="cls-13" d="M14.12,15a5.22,5.22,0,0,0,.51,1.46,14.9,14.9,0,0,1,.83,1.95c-.68-.15-1.89-.59-3-1a16,16,0,0,0-1.58-.51,1.83,1.83,0,0,0,.62,1.17,10.65,10.65,0,0,1,1.6,1.82"/><path class="cls-13" d="M22.34,30.61c-1.31,0-2.68.29-2.08,2.13,1.51.8,3.48-1.83,3.7.77h0c0,1-1.61,1.6-2.19,1.53"/><path class="cls-13" d="M11,27.39a9.51,9.51,0,0,0,.52,4A7.35,7.35,0,0,0,8.61,29a3.14,3.14,0,0,0,0,.39c.16.94.79,2.59.57,3.19-.76-.59-2-2.17-2.74-2.86"/><path class="cls-13" d="M19.18,24.78a1.91,1.91,0,0,1,.29.53c.27.74-.66,1.74-1.06,1.9a1.93,1.93,0,0,1-1.9-.46c-.66-.77,0-1.89,0-2a1.65,1.65,0,0,1,2.21-.42"/><path class="cls-13" d="M14.12,24.36c-1-.42-2.66-.5-4.25-1"/><path class="cls-13" d="M16.38,23.09c-.17-.41-.94-1.09-1.15-1.89"/><path class="cls-13" d="M21.77,26.38c1.19.28,3.73,1.14,5,1.41"/><path class="cls-13" d="M16.93,29.07c-.53,1.45-1.14,4.31-1.61,5.8a1.09,1.09,0,0,0-.05.17"/><path class="cls-13" d="M13.15,28.3c.54-.29.92-.66,1.69-1"/><path class="cls-13" d="M19.59,28.3c.18.35.5.95.67,1.3"/><path class="cls-12" d="M8,9.2c-7.11,1-7-7-2.59-8.64,5.26-2,8.84,2.89,5.08,7.41"/><path class="cls-12" d="M7.41,8.31c-4.32.72-5.29-4.5-2-6.2,3.88-2,7.13,1,4.74,4.6"/><path class="cls-13" d="M21.46,24.36c.49-.35,1.48-.86,1.77-1.1"/><path class="cls-14" d="M12,10.26a9.34,9.34,0,0,1,5.25-1"/><path class="cls-15" d="M9,11.72C3.93,14.25,0,23.19,2.51,29.9"/><path class="cls-14" d="M32.66,20.83c.65,7-3,12.06-5.9,13.91"/><path class="cls-16" d="M7.51,4.92c.14.26.28.54.43.83C8.28,6.41,8.65,7.16,9,8"/><path class="cls-12" d="M8.51,10.46a3.08,3.08,0,0,0-.46-1.31,6.76,6.76,0,0,0-.58-.89A4.08,4.08,0,0,0,5.64,6.71c-.42-.08-1,.59-1,.16a2.14,2.14,0,0,1,.58-1.24A6.56,6.56,0,0,1,8.81,3.72a2.27,2.27,0,0,1,1.56.22c.4.28-.52.29-.69.61a5,5,0,0,0,0,2.24A4.4,4.4,0,0,0,10.15,8a2,2,0,0,0,.8.8"/><path class="cls-11" d="M34.38,21.39h0"/><path class="cls-10" d="M.1,26.38h0C1,34.36,5.6,39,10.75,41.2a19.21,19.21,0,0,0,9.17,1.5c.19,0,5.11-1.13,7.38-2.78a17.82,17.82,0,0,0,7.08-18.53"/><path class="cls-17" d="M5.19,5.63A1.32,1.32,0,0,0,6,6.2c.9.22,1.89,1.48,2.54,2.47s1.67.81,1.11-.53A18.32,18.32,0,0,1,8.76,5a7.66,7.66,0,0,1,.05-1.28h0"/><path class="cls-10" d="M.23,24.12c1.48,15.59,13,16.05,17.18,16.05,5.45,0,17.83-4.12,17-18.78h0"/><path class="cls-18" d="M21,16.22a10.37,10.37,0,0,1,4.89,2.94A9.27,9.27,0,0,1,27,20.66a9.25,9.25,0,0,1,1.4,4.87,9.53,9.53,0,0,1-4.45,8,10.72,10.72,0,0,1-5.85,1.72,11.11,11.11,0,0,1-2.79-.36,10.18,10.18,0,0,1-6.68-5.52,9.23,9.23,0,0,1-.83-3.82,9.48,9.48,0,0,1,3.74-7.47,9.07,9.07,0,0,1,1-.66,10,10,0,0,1,2.12-1,10.76,10.76,0,0,1,3.48-.57A11.66,11.66,0,0,1,20,16"/></g></g></g></svg>