<svg xmlns="http://www.w3.org/2000/svg" viewBox="0 0 29.56 29.56"><defs><style>.cls-1{fill:#a5a4a4;stroke-width:0.94px;}.cls-1,.cls-10,.cls-2,.cls-3,.cls-4,.cls-5,.cls-6,.cls-7,.cls-8,.cls-9{stroke:#231f20;stroke-linecap:round;stroke-linejoin:round;}.cls-10,.cls-2,.cls-7,.cls-8,.cls-9{fill:#444243;}.cls-2,.cls-3,.cls-4,.cls-5,.cls-6{stroke-width:0.4px;}.cls-3{fill:#ef4b6a;}.cls-4{fill:#bdd979;}.cls-5{fill:#4c59a7;}.cls-6{fill:#f2e950;}.cls-7{stroke-width:0.37px;}.cls-8{stroke-width:0.32px;}.cls-9{stroke-width:0.36px;}.cls-10{stroke-width:0.32px;}</style></defs><g id="Layer_2" data-name="Layer 2"><g id="menu-icons"><g id="icon-filter"><path class="cls-1" d="M22.26,28.26c-3.38,1.12-10.89,1.12-15.58-.09a7.05,7.05,0,0,1-5-4.94l-.15-.49A34.1,34.1,0,0,1,1.08,8q.1-.52.24-1l.15-.52c.05-.17.11-.34.17-.51,0,0,.21-.52.28-.67A7.41,7.41,0,0,1,7.3,1c4.07-.88,12-.58,15.41.05a6.83,6.83,0,0,1,5.21,5l.16.48a34.41,34.41,0,0,1,.41,14.71c-.08.36-.16.7-.25,1,0,.17-.1.35-.15.51A9.48,9.48,0,0,1,22.26,28.26Z"/><path class="cls-2" d="M16.26,7a.39.39,0,0,1-.4.39H3.2A.39.39,0,0,1,2.8,7h0c0-.22.18-.39.62-.39H16.08a.61.61,0,0,1,.18.39Z"/><path class="cls-3" d="M20.41,6.94a1.66,1.66,0,0,1-3.32,0,1.66,1.66,0,0,1,3.32,0Z"/><path class="cls-4" d="M9.34,21.69A1.66,1.66,0,1,0,11,20.14,1.61,1.61,0,0,0,9.34,21.69Z"/><path class="cls-5" d="M18.23,11.82a1.66,1.66,0,1,1-1.66-1.56A1.62,1.62,0,0,1,18.23,11.82Z"/><path class="cls-6" d="M15.18,16.71a1.66,1.66,0,1,1-1.65-1.56A1.6,1.6,0,0,1,15.18,16.71Z"/><path class="cls-2" d="M26.48,7c0,.22-.07.39-.16.39H21.27c-.09,0-.16-.17-.16-.39h0c0-.21.07-.39.25-.39h5.05a1.2,1.2,0,0,1,.07.39Z"/><path class="cls-7" d="M14.21,11.82a.37.37,0,0,1-.36.39h-11a.37.37,0,0,1-.35-.39h0c0-.22.16-.39.54-.39H14a.57.57,0,0,1,.17.39Z"/><path class="cls-8" d="M27.44,11.89c0,.21-.11.39-.25.39h-8c-.14,0-.25-.18-.25-.39h0a.35.35,0,0,1,.39-.39h8a.66.66,0,0,1,.12.39Z"/><path class="cls-9" d="M27.44,16.75a.36.36,0,0,1-.33.39H16.6a.37.37,0,0,1-.34-.39h0c0-.21.16-.39.52-.39H27.29a.69.69,0,0,1,.15.39Z"/><path class="cls-10" d="M10.92,16.69c0,.22-.12.39-.26.39H2.74c-.14,0-.25-.17-.25-.39h0a.35.35,0,0,1,.39-.38H10.8a.73.73,0,0,1,.12.38Z"/><path class="cls-7" d="M14.21,11.82a.37.37,0,0,1-.36.39h-11a.37.37,0,0,1-.35-.39h0c0-.22.16-.39.54-.39H14a.57.57,0,0,1,.17.39Z"/><path class="cls-2" d="M8.27,21.69c0,.22-.07.39-.17.39h-5c-.09,0-.16-.17-.16-.39h0c0-.21.07-.39.25-.39h5a.88.88,0,0,1,.08.39Z"/><path class="cls-2" d="M27.14,21.76a.4.4,0,0,1-.41.39H14.08a.4.4,0,0,1-.41-.39h0c0-.22.18-.39.63-.39H27a.55.55,0,0,1,.19.39Z"/></g></g></g></svg>