<svg xmlns="http://www.w3.org/2000/svg" viewBox="0 0 29.62 29.62"><defs><style>.cls-1{fill:#a5a4a4;}.cls-1,.cls-4,.cls-5{stroke:#231f20;}.cls-1,.cls-5{stroke-linecap:round;stroke-linejoin:round;}.cls-2{fill:#535aa8;}.cls-3{fill:#b3b3b7;}.cls-4,.cls-5{fill:none;stroke-width:0.5px;}.cls-4{stroke-miterlimit:10;}</style></defs><g id="Layer_2" data-name="Layer 2"><g id="menu-icons"><g id="icon-logged-in"><path class="cls-1" d="M22.29,28.29c-3.38,1.12-10.89,1.12-15.58-.09a7.05,7.05,0,0,1-5-4.94l-.15-.49A34.25,34.25,0,0,1,1.1,8.06c.08-.35.16-.69.25-1l.15-.52c.05-.17.11-.34.17-.51l.27-.68A7.44,7.44,0,0,1,7.33,1.05c4.07-.88,12-.58,15.41.05a6.83,6.83,0,0,1,5.21,5l.15.48a34.25,34.25,0,0,1,.42,14.71c-.08.35-.16.7-.25,1-.05.17-.1.35-.15.51A9.48,9.48,0,0,1,22.29,28.29Z"/><path class="cls-2" d="M14.81,3.3A11.51,11.51,0,1,1,3.2,14.81,11.56,11.56,0,0,1,14.81,3.3Zm6,15.58c0-.56-.51-.79-1.62-.79,0-.93,0-1.86.08-2.83,0-.39,0-.79.05-1.2.16-4.25-1.88-4.19-2.79-4.23a1.4,1.4,0,1,0-2.8-.06c0,.44-2.39-.4-2.91,2.56a7.43,7.43,0,0,0-.1,1.33c0,1-.07,1.12,0,4.14v.11l-1,0c-.46,0-1.11.08-1.11.8s.11.83,1.12.88c.47,0,1.07,0,1.73.06l2,0v.09c0,1.32,2.72,1.6,2.83,0h0c1.11,0,2.17,0,2.86,0C20.22,19.69,20.81,19.6,20.81,18.88Z"/><path class="cls-3" d="M19.19,18.09c1.11,0,1.62.23,1.62.79,0,.72-.59.81-1.66.85-.69,0-1.75,0-2.86,0l-1.93,0-.9,0-2,0c-.66,0-1.26,0-1.73-.06-1,0-1.12-.3-1.12-.88s.65-.82,1.11-.8l1,0c1.11,0,2.16,0,3.5.09,1,.05,2.06.07,3,.08Z"/><path class="cls-3" d="M16.53,9.83c.91,0,2.95,0,2.79,4.23,0,.41,0,.81-.05,1.2-.05,1-.09,1.9-.08,2.83H17.26c-1,0-2.06,0-3-.08-1.34-.06-2.39-.05-3.5-.09V17.8c-.08-3,0-3.17,0-4.14a7.43,7.43,0,0,1,.1-1.33c.52-3,2.93-2.12,2.91-2.56A1.4,1.4,0,1,1,16.53,9.83Z"/><path class="cls-3" d="M16.29,19.74h0c-.11,1.6-2.83,1.32-2.83,0v-.09l.9,0Z"/><path class="cls-4" d="M26.42,14.81A11.61,11.61,0,1,1,14.81,3.3,11.56,11.56,0,0,1,26.42,14.81Z"/><path class="cls-5" d="M10.73,17.8c-.08-3,0-3.17,0-4.14a7.43,7.43,0,0,1,.1-1.33c.52-3,2.93-2.12,2.91-2.56a1.4,1.4,0,1,1,2.8.06c.91,0,2.95,0,2.79,4.23,0,.41,0,.81-.05,1.2-.05,1-.09,1.9-.08,2.83"/><path class="cls-5" d="M13.46,19.75c0,1.32,2.72,1.6,2.83,0"/><path class="cls-5" d="M13.46,19.66l-2,0c-.66,0-1.26,0-1.73-.06-1,0-1.12-.3-1.12-.88s.65-.82,1.11-.8l1,0c1.11,0,2.16,0,3.5.09,1,.05,2.06.07,3,.08h1.93c1.11,0,1.62.23,1.62.79,0,.72-.59.81-1.66.85-.69,0-1.75,0-2.86,0l-1.93,0Z"/></g></g></g></svg>