<svg xmlns="http://www.w3.org/2000/svg" viewBox="0 0 29.62 29.62"><defs><style>.cls-1{fill:#a5a4a4;}.cls-1,.cls-7{stroke:#231f20;stroke-linecap:round;stroke-linejoin:round;}.cls-2{fill:#abcfee;}.cls-3{fill:#ddd8d4;}.cls-4{fill:#ed1c24;}.cls-5{fill:#356b94;}.cls-6{fill:#f26822;}.cls-7{fill:none;stroke-width:0.14px;}</style></defs><g id="Layer_2" data-name="Layer 2"><g id="menu-icons"><g id="icon-search"><path class="cls-1" d="M22.29,28.29c-3.38,1.12-10.89,1.12-15.58-.09a7.05,7.05,0,0,1-5-4.94l-.15-.49A34.25,34.25,0,0,1,1.1,8.06c.08-.35.16-.69.25-1l.15-.52c.05-.17.11-.34.17-.51l.27-.68A7.44,7.44,0,0,1,7.33,1.05c4.07-.88,12-.58,15.41.05a6.83,6.83,0,0,1,5.21,5l.16.48a34.41,34.41,0,0,1,.41,14.71c-.08.35-.16.7-.25,1l-.15.51A9.48,9.48,0,0,1,22.29,28.29Z"/><path class="cls-2" d="M21.6,10.62a5.3,5.3,0,1,1-5.29,5.3A5.3,5.3,0,0,1,21.6,10.62Z"/><path class="cls-3" d="M11.25,9.88l0-.06a4.6,4.6,0,0,1,1.47-2.49h0c.21.1.45.19.7.28l.09.16c.46,1.16.86.12,1.24-.58.47-.91,1.48-.48,2.32.39a5.23,5.23,0,0,1,1.29,2.24l0,.07a6.87,6.87,0,0,0-3.57,5.78A6.79,6.79,0,0,0,11.25,9.88Z"/><path class="cls-4" d="M12.75,7.33c-5-2.2-1-5.3-.29-3.67,0-1.21,1.49-1.32,1.93-1a1.54,1.54,0,0,1,.19.17c.89-1.23,2.85.37,1.83,1.53h0c1.25-1.2,1.5.78.65,1.12h0C18.26,5,19,6.58,17.12,7.56l0,0c-.84-.87-1.85-1.3-2.32-.39-.38.7-.78,1.74-1.24.58l-.09-.16C13.2,7.52,13,7.43,12.75,7.33Z"/><path class="cls-5" d="M14.85,15.67a6.83,6.83,0,1,1,6.83,7,6.84,6.84,0,0,1-6.83-6.6,1.69,1.69,0,0,0,0-.23A1.62,1.62,0,0,0,14.85,15.67Zm12,.25a5.3,5.3,0,1,0-5.3,5.29A5.3,5.3,0,0,0,26.9,15.92Z"/><path class="cls-6" d="M14.44,21.4c-.08,0-.15.2-.15.45s.07.45.15.45.14-.2.14-.45S14.51,21.4,14.44,21.4Zm.41-5.28a6.79,6.79,0,0,0,2.65,5.17A9.68,9.68,0,0,1,15.61,25c-.3.44-.59.45-1,0s-2.06-2.16-2.06-4A6.81,6.81,0,0,0,14.85,16.12Zm1.09,5.78c0-.25-.06-.45-.14-.45s-.14.2-.14.45c0,0,.06.44.14.44S15.94,22.14,15.94,21.9Z"/><path class="cls-2" d="M2.81,15.92A5.3,5.3,0,1,1,8.1,21.21,5.29,5.29,0,0,1,2.81,15.92Z"/><path class="cls-5" d="M8.1,10.62a5.3,5.3,0,1,0,5.3,5.3A5.29,5.29,0,0,0,8.1,10.62ZM8,22.72A6.83,6.83,0,0,1,8,9.07a6.72,6.72,0,0,1,3.22.81,6.79,6.79,0,0,1,3.6,5.79v.45A6.81,6.81,0,0,1,8,22.72Z"/><path class="cls-7" d="M12.46,3.66a3.76,3.76,0,0,0,.94,2.11"/><path class="cls-7" d="M14.62,4.74c.54-.93.34-1.51,0-1.89a1.54,1.54,0,0,0-.19-.17c-.44-.34-1.93-.23-1.93,1"/><path class="cls-7" d="M14.58,2.85h0c.89-1.23,2.85.37,1.83,1.53a2.15,2.15,0,0,1-.8.55"/><path class="cls-7" d="M16.41,4.38c1.25-1.2,1.5.78.65,1.12a.69.69,0,0,1-.36,0"/><path class="cls-7" d="M17,5.55l.08,0C18.26,5,19,6.58,17.12,7.56"/><path class="cls-7" d="M12.75,7.33a4.6,4.6,0,0,0-1.47,2.49"/><path class="cls-7" d="M12.46,3.66h0C11.73,2,7.7,5.13,12.75,7.33c.21.1.45.19.7.28l.09.16c.46,1.16.86.12,1.24-.58.47-.91,1.48-.48,2.32.39a5.23,5.23,0,0,1,1.29,2.24"/><path class="cls-7" d="M12.52,21c0,1.86,1.6,3.58,2.06,4s.73.41,1,0a9.68,9.68,0,0,0,1.89-3.74v-.06"/><path class="cls-7" d="M13.4,15.92a5.3,5.3,0,1,1-5.3-5.3A5.29,5.29,0,0,1,13.4,15.92Z"/><path class="cls-7" d="M14.85,15.67a1.62,1.62,0,0,1,0,.22,1.69,1.69,0,0,1,0,.23A6.82,6.82,0,1,1,8,9.07a6.72,6.72,0,0,1,3.22.81A6.79,6.79,0,0,1,14.85,15.67Z"/><path class="cls-7" d="M14.58,21.85c0,.25-.07.45-.14.45s-.15-.2-.15-.45.07-.45.15-.45S14.58,21.6,14.58,21.85Z"/><path class="cls-7" d="M15.94,21.9c0,.24-.06.44-.14.44s-.14-.44-.14-.44c0-.25.06-.45.14-.45S15.94,21.65,15.94,21.9Z"/><path class="cls-7" d="M16.31,15.92a5.3,5.3,0,1,0,5.29-5.3A5.29,5.29,0,0,0,16.31,15.92Z"/><path class="cls-7" d="M14.85,15.67v.45a6.83,6.83,0,1,0,6.83-7,6.81,6.81,0,0,0-6.83,6.6Z"/></g></g></g></svg>