<svg xmlns="http://www.w3.org/2000/svg" viewBox="0 0 29.62 29.62"><defs><style>.cls-1{fill:#a5a4a4;}.cls-1,.cls-3{stroke:#231f20;stroke-linecap:round;stroke-linejoin:round;}.cls-2{fill:#5d66af;}.cls-3{fill:none;stroke-width:0.41px;}</style></defs><g id="Layer_2" data-name="Layer 2"><g id="menu-icons"><g id="icon-sort"><path class="cls-1" d="M22.29,28.29c-3.38,1.12-10.89,1.12-15.58-.09a7.05,7.05,0,0,1-5-4.94l-.15-.49A34.25,34.25,0,0,1,1.1,8.06c.08-.35.16-.69.25-1l.15-.52c.05-.17.11-.34.17-.51l.27-.68A7.44,7.44,0,0,1,7.33,1.05c4.07-.88,12-.58,15.41.05a6.83,6.83,0,0,1,5.21,5l.15.48a34.25,34.25,0,0,1,.42,14.71c-.08.35-.16.7-.25,1-.05.17-.1.35-.15.51A9.48,9.48,0,0,1,22.29,28.29Z"/><path class="cls-2" d="M5.42,14.23c-.75,0-.94-.44-.42-1l8.71-9a1.28,1.28,0,0,1,1.87,0l8.34,9c.51.55.31,1-.44,1Z"/><path class="cls-3" d="M5.42,14.23c-.75,0-.94-.44-.42-1l8.71-9a1.28,1.28,0,0,1,1.87,0l8.34,9c.51.55.31,1-.44,1Z"/><path class="cls-2" d="M23.35,16c.74,0,.93.44.41,1L15.05,26a1.26,1.26,0,0,1-1.86,0L4.85,17c-.51-.55-.32-1,.43-1Z"/><path class="cls-3" d="M23.35,16c.74,0,.93.44.41,1L15.05,26a1.26,1.26,0,0,1-1.86,0L4.85,17c-.51-.55-.32-1,.43-1Z"/></g></g></g></svg>