<svg xmlns="http://www.w3.org/2000/svg" viewBox="0 0 125.54 29.25"><defs><style>.cls-1{fill:#c9eaf5;}.cls-2{fill:none;stroke:#000;stroke-width:0.5px;}.cls-2,.cls-3,.cls-4{stroke-linecap:round;stroke-linejoin:round;}.cls-3{fill:#a5a4a4;stroke-width:1.17px;}.cls-3,.cls-4{stroke:#231f20;}.cls-4{fill:#7877b8;}</style></defs><g id="Layer_2" data-name="Layer 2"><g id="profile_menu" data-name="profile menu"><g id="add_opinion" data-name="add opinion"><rect class="cls-1" x="0.25" y="0.25" width="125.04" height="28.75" rx="5.48"/><rect class="cls-2" x="0.25" y="0.25" width="125.04" height="28.75" rx="5.48"/><path class="cls-3" d="M28.54,24.79c-2.55.84-8.22.84-11.75-.07A5.31,5.31,0,0,1,13,21l-.12-.36a25.8,25.8,0,0,1-.31-11.09c.06-.27.12-.53.19-.78s.07-.26.11-.38L13,8l.21-.51a5.59,5.59,0,0,1,4.06-3.23,39.26,39.26,0,0,1,11.62,0A5.14,5.14,0,0,1,32.8,8.05l.11.36a25.8,25.8,0,0,1,.32,11.09c-.06.27-.12.53-.19.78s-.07.26-.11.39A7.2,7.2,0,0,1,28.54,24.79Z"/><path class="cls-4" d="M24.3,23.09c0,.34-.41.62-.93.62h-.23c-.51,0-.93-.28-.93-.62V6.18c0-.35.42-.63.93-.63h.23c.52,0,.93.28.93.63Z"/><path class="cls-4" d="M31.61,13.22c.35,0,.62.42.62.93v.23c0,.51-.27.93-.62.93H14.7c-.35,0-.63-.42-.63-.93v-.23c0-.51.28-.93.63-.93Z"/></g></g></g></svg>