<svg xmlns="http://www.w3.org/2000/svg" viewBox="0 0 125.54 29.25"><defs><style>.cls-1{fill:#c9eaf5;}.cls-2,.cls-5,.cls-6{fill:none;}.cls-2{stroke:#000;stroke-width:0.5px;}.cls-2,.cls-5{stroke-linecap:round;stroke-linejoin:round;}.cls-3{fill:#525ba8;}.cls-4{fill:#b3b3b7;}.cls-5,.cls-6{stroke:#231f20;}.cls-5{stroke-width:0.5px;}.cls-7{font-size:10px;fill:#231f20;font-family:KomikaText, Komika Text;}</style></defs><g id="Layer_2" data-name="Layer 2"><g id="profile_menu" data-name="profile menu"><g id="chats"><rect class="cls-1" x="0.25" y="0.25" width="125.04" height="28.75" rx="5.48"/><rect class="cls-2" x="0.25" y="0.25" width="125.04" height="28.75" rx="5.48"/><path class="cls-3" d="M35.92,7.06a5.61,5.61,0,0,1-1.07,9.19c-.51.32-.69.52-.91.56a9.82,9.82,0,0,0,1.61,3.92A10.32,10.32,0,0,0,31.66,19h0c1.83-2.49.42-6-1.19-7.46C26.38,7.79,19.92,7.73,15.39,9.21a6.11,6.11,0,0,1,2.22-2.9C21.57,3.52,30.69,2.28,35.92,7.06Z"/><path class="cls-4" d="M35.75,20.94a1.8,1.8,0,0,1-.19-.2Z"/><path class="cls-4" d="M30.46,11.52c1.61,1.47,3,5,1.19,7.46a5.69,5.69,0,0,1-2.26,1.74c-1.57.7-1,.6-.9.56a9.79,9.79,0,0,0,1.58,3.88c-1.81-1.78-6.73-3-9.11-2.56a14.8,14.8,0,0,1-3.76,0c-2.66-.55-5-1.27-6.27-2.59-2-2.09-2.1-6.95,1.22-9.28a12.69,12.69,0,0,1,3.24-1.57C19.92,7.73,26.38,7.79,30.46,11.52Zm-7,4.24a.54.54,0,0,0-.58-.5.5.5,0,1,0,0,1A.54.54,0,0,0,23.43,15.76Zm-2.77,0a.55.55,0,0,0-.59-.5.5.5,0,1,0,0,1A.55.55,0,0,0,20.66,15.76Zm-2.88,0a.59.59,0,1,0-.58.49A.54.54,0,0,0,17.78,15.76Z"/><path class="cls-4" d="M30.29,25.4a2,2,0,0,1-.2-.21Z"/><path class="cls-4" d="M28.49,21.28Z"/><path class="cls-4" d="M22.85,15.26a.5.5,0,1,1,0,1,.5.5,0,1,1,0-1Z"/><path class="cls-4" d="M20.07,15.26a.5.5,0,1,1,0,1,.5.5,0,1,1,0-1Z"/><path class="cls-4" d="M17.2,15.26a.5.5,0,1,1-.59.5A.54.54,0,0,1,17.2,15.26Z"/><path class="cls-5" d="M30.09,25.19a2,2,0,0,0,.2.21Z"/><path class="cls-5" d="M30.09,25.19l0,0"/><path class="cls-5" d="M28.49,21.28a9.79,9.79,0,0,0,1.58,3.88"/><path class="cls-5" d="M28.49,21.28Z"/><path class="cls-5" d="M30.07,25.16c-1.81-1.78-6.73-3-9.11-2.56a14.8,14.8,0,0,1-3.76,0c-2.66-.55-5-1.27-6.27-2.59-2-2.09-2.1-6.95,1.22-9.28a12.69,12.69,0,0,1,3.24-1.57c4.53-1.48,11-1.42,15.07,2.31,1.61,1.47,3,5,1.19,7.46a5.69,5.69,0,0,1-2.26,1.74c-1.57.7-1,.6-.9.56"/><path class="cls-5" d="M35.55,20.73A10.32,10.32,0,0,0,31.66,19"/><path class="cls-5" d="M35.56,20.74a1.8,1.8,0,0,0,.19.2Z"/><line class="cls-5" x1="35.56" y1="20.74" x2="35.55" y2="20.73"/><path class="cls-5" d="M15.39,9.21a6.11,6.11,0,0,1,2.22-2.9c4-2.79,13.08-4,18.31.75a5.61,5.61,0,0,1-1.07,9.19c-.51.32-.69.52-.91.56a9.82,9.82,0,0,0,1.61,3.92"/><path class="cls-5" d="M17.78,15.76a.59.59,0,1,1-.58-.5A.54.54,0,0,1,17.78,15.76Z"/><path class="cls-5" d="M23.43,15.76a.54.54,0,0,1-.58.49.5.5,0,1,1,0-1A.54.54,0,0,1,23.43,15.76Z"/><path class="cls-5" d="M20.66,15.76a.55.55,0,0,1-.59.49.5.5,0,1,1,0-1A.55.55,0,0,1,20.66,15.76Z"/><path class="cls-6" d="M35.92,7.06a5.61,5.61,0,0,1-1.07,9.19c-.51.32-.69.52-.91.56a9.82,9.82,0,0,0,1.61,3.92A10.32,10.32,0,0,0,31.66,19h0c1.83-2.49.42-6-1.19-7.46C26.38,7.79,19.92,7.73,15.39,9.21a6.11,6.11,0,0,1,2.22-2.9C21.57,3.52,30.69,2.28,35.92,7.06Z"/><path class="cls-6" d="M35.75,20.94a1.8,1.8,0,0,1-.19-.2Z"/><path class="cls-6" d="M30.46,11.52c1.61,1.47,3,5,1.19,7.46a5.69,5.69,0,0,1-2.26,1.74c-1.57.7-1,.6-.9.56a9.79,9.79,0,0,0,1.58,3.88c-1.81-1.78-6.73-3-9.11-2.56a14.8,14.8,0,0,1-3.76,0c-2.66-.55-5-1.27-6.27-2.59-2-2.09-2.1-6.95,1.22-9.28a12.69,12.69,0,0,1,3.24-1.57C19.92,7.73,26.38,7.79,30.46,11.52Zm-7,4.24a.54.54,0,0,0-.58-.5.5.5,0,1,0,0,1A.54.54,0,0,0,23.43,15.76Zm-2.77,0a.55.55,0,0,0-.59-.5.5.5,0,1,0,0,1A.55.55,0,0,0,20.66,15.76Zm-2.88,0a.59.59,0,1,0-.58.49A.54.54,0,0,0,17.78,15.76Z"/><path class="cls-6" d="M30.29,25.4a2,2,0,0,1-.2-.21Z"/><path class="cls-6" d="M28.49,21.28Z"/><path class="cls-6" d="M22.85,15.26a.5.5,0,1,1,0,1,.5.5,0,1,1,0-1Z"/><path class="cls-6" d="M20.07,15.26a.5.5,0,1,1,0,1,.5.5,0,1,1,0-1Z"/><path class="cls-6" d="M17.2,15.26a.5.5,0,1,1-.59.5A.54.54,0,0,1,17.2,15.26Z"/><path class="cls-6" d="M30.09,25.19a2,2,0,0,0,.2.21Z"/><path class="cls-6" d="M30.09,25.19l0,0"/><path class="cls-6" d="M28.49,21.28a9.79,9.79,0,0,0,1.58,3.88"/><path class="cls-6" d="M28.49,21.28Z"/><path class="cls-6" d="M30.07,25.16c-1.81-1.78-6.73-3-9.11-2.56a14.8,14.8,0,0,1-3.76,0c-2.66-.55-5-1.27-6.27-2.59-2-2.09-2.1-6.95,1.22-9.28a12.69,12.69,0,0,1,3.24-1.57c4.53-1.48,11-1.42,15.07,2.31,1.61,1.47,3,5,1.19,7.46a5.69,5.69,0,0,1-2.26,1.74c-1.57.7-1,.6-.9.56"/><path class="cls-6" d="M35.55,20.73A10.32,10.32,0,0,0,31.66,19"/><path class="cls-6" d="M35.56,20.74a1.8,1.8,0,0,0,.19.2Z"/><line class="cls-6" x1="35.56" y1="20.74" x2="35.55" y2="20.73"/><path class="cls-6" d="M15.39,9.21a6.11,6.11,0,0,1,2.22-2.9c4-2.79,13.08-4,18.31.75a5.61,5.61,0,0,1-1.07,9.19c-.51.32-.69.52-.91.56a9.82,9.82,0,0,0,1.61,3.92"/><path class="cls-6" d="M17.78,15.76a.59.59,0,1,1-.58-.5A.54.54,0,0,1,17.78,15.76Z"/><path class="cls-6" d="M23.43,15.76a.54.54,0,0,1-.58.49.5.5,0,1,1,0-1A.54.54,0,0,1,23.43,15.76Z"/><path class="cls-6" d="M20.66,15.76a.55.55,0,0,1-.59.49.5.5,0,1,1,0-1A.55.55,0,0,1,20.66,15.76Z"/><text class="cls-7" transform="translate(67.45 17.49)">Chats</text></g></g></g></svg>