<svg xmlns="http://www.w3.org/2000/svg" viewBox="0 0 125.76 29.46"><defs><style>.cls-1{fill:#c9eaf5;}.cls-2,.cls-6{fill:none;stroke-linecap:round;stroke-linejoin:round;}.cls-2{stroke:#000;stroke-width:0.72px;}.cls-3{fill:#ed1c24;}.cls-4{fill:#999293;}.cls-5{fill:#383637;}.cls-6{stroke:#231f20;stroke-width:1.07px;}</style></defs><g id="Layer_2" data-name="Layer 2"><g id="profile_menu" data-name="profile menu"><g id="log_off" data-name="log off"><rect class="cls-1" x="0.36" y="0.36" width="125.04" height="28.75" rx="5.48"/><rect class="cls-2" x="0.36" y="0.36" width="125.04" height="28.75" rx="5.48"/><path class="cls-3" d="M13.45,9.39a12.91,12.91,0,0,1-2,1.06,3,3,0,0,0-1.25.91c-.32.47,0,.86.24,1.29a8.57,8.57,0,0,0,1.84,1.6c.45.39,1,.62,1.52,1,.2.14.47.27.7.43s.31,0,.31-.09c0-.69,0-1.37,0-2a14.37,14.37,0,0,1,1.94.07c.79.08,1.58.18,2.26.19,1,0,1.33-.05,1.38-.85,0-.55.15-1.78.15-1.78-.12-.25-.61-.17-.72-.17-1,0-2.05,0-3.07,0q-.33,0-.66,0c-.2,0-.78.12-.94,0s-.17-.51-.2-.77.06-.79,0-1.17c0-.14-.25-.36-.36-.32A3.31,3.31,0,0,0,13.45,9.39Z"/><path class="cls-4" d="M25.08,16.11c-.15,0-.84-.2-.72-1.16.1-.7,0-1.38.74-1.37.58,0,.78,1.18.72,1.45S25.59,16.11,25.08,16.11ZM23,15a55.42,55.42,0,0,1,.1,5.62c0,.85,0,1.69-.06,2.52a4.62,4.62,0,0,0,0,2,12.67,12.67,0,0,0,4.16-1.57,4.39,4.39,0,0,0,1-.5l.78-.62c.51-.42,1-.85,1.58-1.27.32-.26.34-.13.33-.65,0-.27,0-.57,0-.87,0-.57-.2-1.12-.24-1.69a23.57,23.57,0,0,1,.29-4.76,10.46,10.46,0,0,0,.09-2.1,12,12,0,0,0-.52-2,8.56,8.56,0,0,1-.1-2.1,10.13,10.13,0,0,1,.15-2.4c-.29.76-1.44,1.23-2.15,1.5a5.2,5.2,0,0,0-2,1.09,11,11,0,0,1-3,1.56c-.76.4-.75,1.86-.75,2.68A34.27,34.27,0,0,0,23,15Z"/><path class="cls-5" d="M30.52,4.61a40.52,40.52,0,0,0-7.47-.19c-1.51.07-3,.39-4.5.39-.61,0-1.54-.32-1.76.35a4.68,4.68,0,0,0,0,1.54c.06.89,0,3.36,0,4.27h0c1,0,2.05,0,3.07,0,.11,0,.6-.08.72.17,0,0-.12,1.23-.15,1.78-.05.8-.37.87-1.38.85-.68,0-1.47-.11-2.26-.19h0c0,1.28,0,4.37,0,5.63,0,.39,0,.8,0,1.18s.1.5.59.52c.81.05,1.56-.14,2.4-.14s2.48-.17,3.26-.17A55.42,55.42,0,0,0,23,15a34.27,34.27,0,0,1-.34-3.57c0-.82,0-2.28.75-2.68a11,11,0,0,0,3-1.56,5.2,5.2,0,0,1,2-1.09c.71-.27,1.86-.74,2.15-1.5Z"/><path class="cls-6" d="M30.62,4.62h-.1a40.52,40.52,0,0,0-7.47-.19c-1.51.07-3,.39-4.5.39-.61,0-1.54-.32-1.76.35a4.68,4.68,0,0,0,0,1.54c.06.89,0,3.36,0,4.27"/><path class="cls-6" d="M16.79,13.61c.79.08,1.58.18,2.26.19,1,0,1.33-.05,1.38-.85,0-.55.15-1.78.15-1.78-.12-.25-.61-.17-.72-.17-1,0-2.05,0-3.07,0q-.33,0-.66,0c-.2,0-.78.12-.94,0s-.17-.51-.2-.77.06-.79,0-1.17c0-.14-.25-.36-.36-.32a3.31,3.31,0,0,0-1.23.7,12.91,12.91,0,0,1-2,1.06,3,3,0,0,0-1.25.91c-.32.47,0,.86.24,1.29a8.57,8.57,0,0,0,1.84,1.6c.45.39,1,.62,1.52,1,.2.14.47.27.7.43s.31,0,.31-.09c0-.69,0-1.37,0-2A14.37,14.37,0,0,1,16.79,13.61Z"/><path class="cls-6" d="M30.52,4.62c-.29.76-1.44,1.23-2.15,1.5a5.2,5.2,0,0,0-2,1.09,11,11,0,0,1-3,1.56c-.76.4-.75,1.86-.75,2.68A34.27,34.27,0,0,0,23,15a55.42,55.42,0,0,1,.1,5.62c0,.85,0,1.69-.06,2.52a4.62,4.62,0,0,0,0,2,12.67,12.67,0,0,0,4.16-1.57,4.39,4.39,0,0,0,1-.5l.78-.62c.51-.42,1-.85,1.58-1.27.32-.26.34-.13.33-.65,0-.27,0-.57,0-.87,0-.57-.2-1.12-.24-1.69a23.57,23.57,0,0,1,.29-4.76,10.46,10.46,0,0,0,.09-2.1,12,12,0,0,0-.52-2,8.56,8.56,0,0,1-.1-2.1,10.13,10.13,0,0,1,.15-2.4"/><path class="cls-6" d="M25.1,13.58c-.75,0-.64.67-.74,1.37-.12,1,.57,1.16.72,1.16.51,0,.69-.81.74-1.08S25.68,13.57,25.1,13.58Z"/><path class="cls-6" d="M16.79,13.62c0,1.28,0,4.37,0,5.63,0,.39,0,.8,0,1.18s.1.5.59.52c.81.05,1.56-.14,2.4-.14s2.48-.17,3.26-.17"/></g></g></g></svg>