<svg xmlns="http://www.w3.org/2000/svg" viewBox="0 0 125.06 26.68"><defs><style>.cls-1{fill:#c9eaf5;}.cls-2,.cls-6,.cls-7,.cls-8{fill:none;}.cls-2{stroke:#000;stroke-width:0.5px;}.cls-2,.cls-7{stroke-linecap:round;stroke-linejoin:round;}.cls-3{font-size:10px;fill:#231f20;font-family:KomikaText, Komika Text;}.cls-4{fill:#b3b3b7;}.cls-5{fill:#7b8fc8;}.cls-6,.cls-7,.cls-8{stroke:#231f20;}.cls-6{stroke-miterlimit:10;}.cls-6,.cls-7{stroke-width:0.5px;}</style></defs><g id="Layer_2" data-name="Layer 2"><g id="profile_menu" data-name="profile menu"><g id="notifications"><rect class="cls-1" x="0.25" y="0.25" width="124.56" height="26.18" rx="5.47"/><rect class="cls-2" x="0.25" y="0.25" width="124.56" height="26.18" rx="5.47"/><text class="cls-3" transform="translate(51.87 17.1)">Notifications</text><path class="cls-4" d="M34.83,6.13h0a3.77,3.77,0,0,0,1-.86h0c.54.42.46,1.48.61,2.42.09.56.12,2.71.14,4.94,0,2.69,0,5.52.07,5.92a3.64,3.64,0,0,1-.5,2c-.53,1-1.32,1.12-2.57,1.17-.2,0-2.95,0-6.44.08-2.36,0-5.19-.09-7.66-.07-4,0-7.3.21-7.62.2-1.2,0-3-1.28-2.79-2.59.05-.32.23-3.41.25-6.38,0-2.52-.14-5-.19-5.46A2.6,2.6,0,0,1,9.74,5c2,1.52,6.53,4,8.63,5.37,1.68,1.13,3.58,2.91,5.69,2.15.46-.17,3.28-1.9,3.76-2.15s2.11-.94,2.53-1.17S33.37,7.24,34.83,6.13Z"/><path class="cls-5" d="M35.8,5.25h0l-1,.86h0C33.37,7.24,30.74,9,30.35,9.18s-2.05.94-2.53,1.17-3.3,2-3.76,2.15c-2.11.76-4-1-5.69-2.15C16.27,9,11.77,6.5,9.74,5a3.14,3.14,0,0,1,1.31-.63c1.19-.31,3.18.13,6,.13.88,0,3.38.44,6.24.46,4.46,0,9.65-.35,10-.35A4.75,4.75,0,0,1,35.8,5.25Z"/><path class="cls-4" d="M35.8,5.26a3.77,3.77,0,0,1-1,.86Z"/><path class="cls-6" d="M9.74,5a3.14,3.14,0,0,1,1.31-.63c1.19-.31,3.18.13,6,.13.88,0,3.38.44,6.24.46,4.46,0,9.65-.35,10-.35a4.75,4.75,0,0,1,2.53.66c.54.42.46,1.48.61,2.42.09.56.12,2.71.14,4.94,0,2.69,0,5.52.07,5.92a3.64,3.64,0,0,1-.5,2c-.53,1-1.32,1.12-2.57,1.17-.2,0-2.95,0-6.44.08-2.36,0-5.19-.09-7.66-.07-4,0-7.3.21-7.62.2-1.2,0-3-1.28-2.79-2.59.05-.32.23-3.41.25-6.38,0-2.52-.14-5-.19-5.46A2.6,2.6,0,0,1,9.74,5Z"/><path class="cls-7" d="M34.83,6.13,34,6.92"/><path class="cls-7" d="M35.8,5.25h0l-1,.86"/><path class="cls-7" d="M34.84,6.12a3.77,3.77,0,0,0,1-.86"/><path class="cls-7" d="M34.84,6.12h0"/><path class="cls-7" d="M9.74,5c2,1.52,6.53,4,8.63,5.37,1.68,1.13,3.58,2.91,5.69,2.15.46-.17,3.28-1.9,3.76-2.15s2.11-.94,2.53-1.17,3-1.94,4.48-3"/><path class="cls-7" d="M11.49,19.4c.28-.1,3.27-2.9,3.73-3.09.87-.36,1.23-1.16,2-1.68.37-.26,1.54-1.37,1.8-1.61a1.5,1.5,0,0,0,.45-.67"/><path class="cls-7" d="M26.29,12.4c.69.56,1.16,1.19,1.79,1.77s3.39,3,3.65,3.27a10.79,10.79,0,0,0,2.73,2"/><path class="cls-8" d="M34.83,6.13h0a3.77,3.77,0,0,0,1-.86h0c.54.42.46,1.48.61,2.42.09.56.12,2.71.14,4.94,0,2.69,0,5.52.07,5.92a3.64,3.64,0,0,1-.5,2c-.53,1-1.32,1.12-2.57,1.17-.2,0-2.95,0-6.44.08-2.36,0-5.19-.09-7.66-.07-4,0-7.3.21-7.62.2-1.2,0-3-1.28-2.79-2.59.05-.32.23-3.41.25-6.38,0-2.52-.14-5-.19-5.46A2.6,2.6,0,0,1,9.74,5c2,1.52,6.53,4,8.63,5.37,1.68,1.13,3.58,2.91,5.69,2.15.46-.17,3.28-1.9,3.76-2.15s2.11-.94,2.53-1.17S33.37,7.24,34.83,6.13Z"/><path class="cls-8" d="M35.8,5.25h0l-1,.86h0C33.37,7.24,30.74,9,30.35,9.18s-2.05.94-2.53,1.17-3.3,2-3.76,2.15c-2.11.76-4-1-5.69-2.15C16.27,9,11.77,6.5,9.74,5a3.14,3.14,0,0,1,1.31-.63c1.19-.31,3.18.13,6,.13.88,0,3.38.44,6.24.46,4.46,0,9.65-.35,10-.35A4.75,4.75,0,0,1,35.8,5.25Z"/><path class="cls-8" d="M35.8,5.26a3.77,3.77,0,0,1-1,.86Z"/><path class="cls-8" d="M9.74,5a3.14,3.14,0,0,1,1.31-.63c1.19-.31,3.18.13,6,.13.88,0,3.38.44,6.24.46,4.46,0,9.65-.35,10-.35a4.75,4.75,0,0,1,2.53.66c.54.42.46,1.48.61,2.42.09.56.12,2.71.14,4.94,0,2.69,0,5.52.07,5.92a3.64,3.64,0,0,1-.5,2c-.53,1-1.32,1.12-2.57,1.17-.2,0-2.95,0-6.44.08-2.36,0-5.19-.09-7.66-.07-4,0-7.3.21-7.62.2-1.2,0-3-1.28-2.79-2.59.05-.32.23-3.41.25-6.38,0-2.52-.14-5-.19-5.46A2.6,2.6,0,0,1,9.74,5Z"/><path class="cls-8" d="M34.83,6.13,34,6.92"/><path class="cls-8" d="M35.8,5.25h0l-1,.86"/><path class="cls-8" d="M34.84,6.12a3.77,3.77,0,0,0,1-.86"/><path class="cls-8" d="M34.84,6.12h0"/><path class="cls-8" d="M9.74,5c2,1.52,6.53,4,8.63,5.37,1.68,1.13,3.58,2.91,5.69,2.15.46-.17,3.28-1.9,3.76-2.15s2.11-.94,2.53-1.17,3-1.94,4.48-3"/><path class="cls-8" d="M11.49,19.4c.28-.1,3.27-2.9,3.73-3.09.87-.36,1.23-1.16,2-1.68.37-.26,1.54-1.37,1.8-1.61a1.5,1.5,0,0,0,.45-.67"/><path class="cls-8" d="M26.29,12.4c.69.56,1.16,1.19,1.79,1.77s3.39,3,3.65,3.27a10.79,10.79,0,0,0,2.73,2"/></g></g></g></svg>