<svg xmlns="http://www.w3.org/2000/svg" viewBox="0 0 125.06 26.66"><defs><style>.cls-1{fill:#c9eaf5;}.cls-2,.cls-8,.cls-9{fill:none;}.cls-2{stroke:#000;stroke-linecap:round;stroke-linejoin:round;stroke-width:0.5px;}.cls-3{fill:#0c65af;}.cls-4{fill:#e76025;}.cls-5{fill:#d4cdcf;}.cls-6{fill:#ed1852;}.cls-7{fill:#020202;}.cls-8,.cls-9{stroke:#231f20;stroke-miterlimit:10;}.cls-8{stroke-width:0.12px;}.cls-9{stroke-width:0.24px;}</style></defs><g id="Layer_2" data-name="Layer 2"><g id="profile_menu" data-name="profile menu"><g id="profile_page" data-name="profile page"><rect class="cls-1" x="0.25" y="0.25" width="124.56" height="26.16" rx="5.47"/><rect class="cls-2" x="0.25" y="0.25" width="124.56" height="26.16" rx="5.47"/><path class="cls-3" d="M31.51,3.92V22.74A1.47,1.47,0,0,1,30,24.16H11.74v-.69h15.9c0-3.8-3.45-6.89-7.74-7h0a4.73,4.73,0,0,0,3.71-1.63l4.66-1.67L23.75,11a4,4,0,0,0-1-1,7.11,7.11,0,0,0,1.29-1c1.48-1.52,2-3.38,1.06-4.15s-2.69-.2-4.16,1.2c-.22-1.71-1.13-3-2.2-3V2.51H30A1.46,1.46,0,0,1,31.51,3.92Z"/><path class="cls-4" d="M28.27,13.18l-4.66,1.67a3.18,3.18,0,0,0,.75-2A3.13,3.13,0,0,0,23.75,11Z"/><path class="cls-5" d="M27.64,23.47H11.74c0-3.86,3.56-7,8-7h.21C24.19,16.58,27.64,19.67,27.64,23.47Z"/><path class="cls-6" d="M25.12,4.86c.9.77.42,2.63-1.06,4.15a7.11,7.11,0,0,1-1.29,1,5.07,5.07,0,0,0-2.26-.82A5.32,5.32,0,0,0,21,6.76a5.24,5.24,0,0,0-.05-.7C22.43,4.66,24.25,4.12,25.12,4.86Z"/><path class="cls-5" d="M23.75,11a3.13,3.13,0,0,1,.61,1.85,3.18,3.18,0,0,1-.75,2,4.73,4.73,0,0,1-3.71,1.63c-2.47,0-4.46-1.63-4.46-3.64a3,3,0,0,1,.26-1.24,2.7,2.7,0,0,0,2.57.5,1.72,1.72,0,0,0-.15.72,2,2,0,0,0,3.92,0,1.9,1.9,0,0,0-2-1.83,2.08,2.08,0,0,0-1.17.36,2.26,2.26,0,0,0,.09-.84,1.34,1.34,0,0,0,.63-.23l.1.09c.66.56,1.86.39,3-.33A4,4,0,0,1,23.75,11Z"/><path class="cls-5" d="M20.08,11a1.9,1.9,0,0,1,2,1.83,2,2,0,0,1-3.92,0,1.72,1.72,0,0,1,.15-.72.65.65,0,0,0,.16-.09,1.36,1.36,0,0,0,.48-.66A2.08,2.08,0,0,1,20.08,11Zm1.53,2.19a1,1,0,0,0-1.92,0,1,1,0,0,0,1.92,0Z"/><path class="cls-7" d="M20.65,12.4a.88.88,0,0,1,1,.78,1,1,0,0,1-1.92,0A.88.88,0,0,1,20.65,12.4Z"/><path class="cls-6" d="M21,6.76a5.32,5.32,0,0,1-.5,2.46c-.2,0-.41,0-.61,0s-.42,0-.63,0a4.77,4.77,0,0,1,1.52-3c.06-.06.11-.12.17-.17A5.24,5.24,0,0,1,21,6.76Z"/><path class="cls-6" d="M21,6.06c-.06.05-.11.11-.17.17a4.77,4.77,0,0,0-1.52,3,5,5,0,0,0-.56.1,6.3,6.3,0,0,0-.91-1.53,6.58,6.58,0,0,0-1.21-1.16c0-2,1-3.54,2.15-3.56h0C19.83,3.07,20.74,4.35,21,6.06Z"/><path class="cls-5" d="M22.77,10c-1.18.72-2.38.89-3,.33l-.1-.09a2.61,2.61,0,0,0,.88-1.06A5.07,5.07,0,0,1,22.77,10Z"/><path class="cls-5" d="M19.9,9.19c.2,0,.41,0,.61,0a2.61,2.61,0,0,1-.88,1.06,1.5,1.5,0,0,1-.36-1.06Q19.59,9.19,19.9,9.19Z"/><path class="cls-3" d="M19.9,16.48h-.21c-4.39,0-8,3.13-8,7v.69H9.18a1.47,1.47,0,0,1-1.51-1.42V3.92A1.46,1.46,0,0,1,9.18,2.51h9.58v.56h0c-1.18,0-2.12,1.59-2.15,3.56-1.09-.81-2.26-1.08-3-.58-1,.68-.7,2.57.63,4.22A6.85,6.85,0,0,0,15.7,11.6a3,3,0,0,0-.26,1.24C15.44,14.85,17.43,16.48,19.9,16.48Z"/><path class="cls-5" d="M19.27,9.22a1.5,1.5,0,0,0,.36,1.06,1.34,1.34,0,0,1-.63.23,3.75,3.75,0,0,0-.29-1.19A5,5,0,0,1,19.27,9.22Z"/><path class="cls-5" d="M19,10.51a2.26,2.26,0,0,1-.09.84,1.85,1.85,0,0,0-.64.75,2.7,2.7,0,0,1-2.57-.5,3.91,3.91,0,0,1,1.8-1.84,1.75,1.75,0,0,0,1.37.76Z"/><path class="cls-5" d="M19,10.51h-.13a1.75,1.75,0,0,1-1.37-.76,4.48,4.48,0,0,1,1.21-.44A3.75,3.75,0,0,1,19,10.51Z"/><path class="cls-5" d="M18.27,12.1a1.85,1.85,0,0,1,.64-.75,1.36,1.36,0,0,1-.48.66A.65.65,0,0,1,18.27,12.1Z"/><path class="cls-6" d="M17.8,7.79a6.3,6.3,0,0,1,.91,1.53,4.48,4.48,0,0,0-1.21.44,5,5,0,0,1-.91-2.93v-.2A6.58,6.58,0,0,1,17.8,7.79Z"/><path class="cls-6" d="M17.5,9.76a3.91,3.91,0,0,0-1.8,1.84,6.85,6.85,0,0,1-1.44-1.33c-1.33-1.65-1.61-3.54-.63-4.22.7-.5,1.87-.23,3,.58v.2A5,5,0,0,0,17.5,9.76Z"/><path class="cls-8" d="M18.76,2.51H30a1.46,1.46,0,0,1,1.51,1.41V22.74A1.47,1.47,0,0,1,30,24.16H9.18a1.47,1.47,0,0,1-1.51-1.42V3.92A1.46,1.46,0,0,1,9.18,2.51Z"/><path class="cls-9" d="M21,6.06c1.47-1.4,3.29-1.94,4.16-1.2S25.54,7.49,24.06,9a7.11,7.11,0,0,1-1.29,1"/><path class="cls-9" d="M16.59,6.63c0-2,1-3.54,2.15-3.56h0c1.07,0,2,1.28,2.2,3"/><path class="cls-9" d="M15.7,11.6a6.85,6.85,0,0,1-1.44-1.33c-1.33-1.65-1.61-3.54-.63-4.22.7-.5,1.87-.23,3,.58"/><line class="cls-9" x1="23.61" y1="14.85" x2="28.27" y2="13.18"/><line class="cls-9" x1="23.75" y1="10.99" x2="28.27" y2="13.18"/><path class="cls-9" d="M11.74,23.47c0-3.86,3.56-7,8-7h.21c4.29.09,7.74,3.18,7.74,7"/><path class="cls-9" d="M23.75,11a3.13,3.13,0,0,1,.61,1.85,3.18,3.18,0,0,1-.75,2,4.73,4.73,0,0,1-3.71,1.63c-2.47,0-4.46-1.63-4.46-3.64a3,3,0,0,1,.26-1.24,3.91,3.91,0,0,1,1.8-1.84,4.48,4.48,0,0,1,1.21-.44,5,5,0,0,1,.56-.1q.32,0,.63,0c.2,0,.41,0,.61,0a5.07,5.07,0,0,1,2.26.82A4,4,0,0,1,23.75,11Z"/><path class="cls-9" d="M18.91,11.35A2.08,2.08,0,0,1,20.08,11a1.9,1.9,0,0,1,2,1.83,2,2,0,0,1-3.92,0,1.72,1.72,0,0,1,.15-.72A1.85,1.85,0,0,1,18.91,11.35Z"/><path class="cls-9" d="M21.61,13.18a1,1,0,0,1-1.92,0,1,1,0,0,1,1.92,0Z"/><line class="cls-9" x1="11.74" y1="23.47" x2="27.64" y2="23.47"/></g></g></g></svg>